<ttFont>
<head>
        <!-- Most of this table will be recalculated by the compiler -->
        <tableVersion value="1.0"/>
        <fontRevision value="1.002"/>
        <checkSumAdjustment value="0x87becba3"/>
        <magicNumber value="0x5f0f3cf5"/>
        <flags value="00000000 00000011"/>
        <unitsPerEm value="1000"/>
        <created value="Fri Jan 15 17:03:16 2016"/>
        <modified value="Fri Jan 15 22:03:17 2016"/>
        <xMin value="-1766"/>
        <yMin value="-416"/>
        <xMax value="790"/>
        <yMax value="1249"/>
        <macStyle value="00000000 00000010"/>
        <lowestRecPPEM value="3"/>
        <fontDirectionHint value="2"/>
        <indexToLocFormat value="0"/>
        <glyphDataFormat value="0"/>
    </head>
                    <CharString index="0">
                        rmoveto
-172 -139 -169 -203 -147 87 -89 123 173 138 171 202 147 -88 88 -122 hvcurveto
-87 -547 rmoveto
-86 -65 67 117 163 93 140 131 86 65 -67 -117 -164 -93 -139 -131 hvcurveto
endchar
                    </CharString>
                    <CharString index="1">
                        rmoveto
67 339 rlineto
-73 hlineto
-65 -332 rlineto
-193 -37 91 -70 125 hhcurveto
121 93 65 157 31 hvcurveto
73 373 rlineto
-73 hlineto
-72 -373 rlineto
-116 -22 -57 -46 -86 hhcurveto
-85 -61 45 151 30 hvcurveto
endchar
                    </CharString>
                    <CharString index="2">
                        rmoveto
-80 -61 -45 -46 -53 hhcurveto
-51 -33 37 94 -34 hvcurveto
-56 -30 rlineto
-110 38 52 -51 68 hhcurveto
71 73 57 101 73 hvcurveto
return
                    </CharString>
                    <CharString index="3">
                        81 hlineto
43 110 70 222 65 251 rrcurveto
-69 hlineto
-33 -124 -85 -313 -23 -61 rrcurveto
-5 hlineto
-59 333 rlineto
-50 hlineto
-186 -333 rlineto
-6 hlineto
2 61 37 313 17 124 rrcurveto
-71 hlineto
-33 -250 -18 -223 -2 -110 rrcurveto
83 hlineto
182 321 rlineto
endchar
                    </CharString>
                    <CharString index="4">
                        rmoveto
91 471 rlineto
131 hlineto
10 56 rlineto
-336 hlineto
-11 -17 callsubr
-92 -471 rlineto
-132 hlineto
-10 -56 rlineto
336 hlineto
14 56 rlineto
endchar
                    </CharString>
                    <CharString index="5">
                        rmoveto
211 164 -34 40 -163 -126 -103 130 -51 -41 139 -167 rlineto
return
                    </CharString>
                    <CharString index="6">
                        rmoveto
-196 -161 -199 -243 -172 97 -104 137 196 161 199 244 172 -98 103 -136 hvcurveto
-107 -654 rmoveto
-102 -75 82 142 198 113 168 156 100 76 -81 -142 -198 -113 -169 -155 hvcurveto
endchar
                    </CharString>
                    <CharString index="7">
                        -43 callgsubr
-200 -142 -4 -27 rlineto
133 -28 45 -36 -37 vvcurveto
-38 -47 -41 -199 20 vhcurveto
return
                    </CharString>
                    <CharString index="8">
                        rmoveto
-82 -59 -55 -68 -61 50 -45 72 83 60 56 68 61 -51 44 -73 hvcurveto
-5 -47 rmoveto
43 31 -27 -37 -38 -35 -32 -46 -44 -30 27 36 39 34 32 47 hvcurveto
return
                    </CharString>
                    <CharString index="9">
                        rmoveto
-54 49 -80 89 -48 65 -52 -60 rcurveline
56 -58 98 -77 60 -40 rrcurveto
return
                    </CharString>
                    <CharString index="10">
                        12 54 rlineto
-219 hlineto
162 105 91 74 95 vvcurveto
90 -87 44 -170 -26 vhcurveto
-9 -56 rlineto
151 22 52 -31 -57 vvcurveto
-78 -104 -74 -176 -113 vhcurveto
1 -49 rlineto
return
                    </CharString>
                    <CharString index="11">
                        rmoveto
-109 52 -61 81 117 95 138 152 109 -54 60 -80 -116 -95 -137 -152 vhcurveto
284 111 rmoveto
-115 -58 -113 -83 -53 -30 41 82 115 57 114 84 53 30 -42 -82 vhcurveto
endchar
                    </CharString>
                    <CharString index="12">
                        13 53 rlineto
-121 hlineto
81 406 -61 -4 -12 -62 -128 -16 -6 -44 123 7 -56 -287 rlineto
-130 hlineto
-10 -53 rlineto
return
                    </CharString>
                    <CharString index="13">
                        rmoveto
163 93 140 131 44 38 -17 -33 27 vhcurveto
-321 -333 rlineto
-8 23 -4 27 30 vvcurveto
151 -184 rmoveto
-46 -39 19 35 -28 hvcurveto
323 333 rlineto
9 -24 5 -28 -32 vvcurveto
-164 -93 -139 -131 vhcurveto
-14 -61 rmoveto
173 138 171 202 hvcurveto
hintmask 10011110
53 -11 45 -21 37 vhcurveto
81 82 -40 36 -73 -75 rlineto
hintmask 01100110
37 -37 -51 20 -58 hhcurveto
-172 -139 -169 -203 -50 10 -44 19 -36 hvcurveto
-84 -85 rlineto
hintmask 10100110
40 -36 75 77 rlineto
-40 37 52 -22 61 hhcurveto
endchar
                    </CharString>
                    <CharString index="14">
                        rmoveto
-16 37 -156 -87 -80 2 -7 144 rlinecurve
236 192 105 174 137 vvcurveto
70 -34 40 -57 -139 -183 -295 -311 -208 126 -32 205 137 vhcurveto
-36 636 rmoveto
27 20 -22 -43 -102 -74 -145 -196 -172 hvcurveto
257 9 126 227 88 hhcurveto
return
                    </CharString>
                    <CharString index="15">
                        rmoveto
79 331 -69 -2 -37 -163 rlineto
-173 -45 -97 57 149 vvcurveto
150 92 160 139 81 16 -53 -102 vhcurveto
69 1 rlineto
145 3 -38 70 -115 hhcurveto
-177 -143 -186 -199 hvcurveto
return
                    </CharString>
                    <CharString index="16">
                        -97 callsubr
endchar
                    </CharString>
                    <CharString index="17">
                        rmoveto
-10 38 -161 -55 -35 19 28 118 rlinecurve
90 374 -59 2 -170 -50 7 -39 139 21 -79 -321 -38 -157 86 -61 202 111 rlinecurve
endchar
                    </CharString>
                    <CharString index="18">
                        rmoveto
29 57 -18 100 126 vvcurveto
12 0 12 1 11 vhcurveto
56 108 43 151 38 vvcurveto
17 -26 12 -21 -32 -70 -184 -148 -10 vhcurveto
-76 -67 -77 -48 -53 hhcurveto
hintmask 01011011
-71 -37 73 374 135 hvcurveto
-70 -3 rlineto
-415 -156 65 -95 101 hhcurveto
79 86 58 71 64 hvcurveto
2 -131 13 -86 -28 -28 -23 -23 -87 -22 -216 18 rrcurveto
hintmask 00110111
-11 -74 rlineto
hintmask 10010111
255 -15 110 43 34 67 rrcurveto
endchar
                    </CharString>
                    <CharString index="19">
                        -99 callgsubr
17 callsubr
18 92 rlineto
endchar
                    </CharString>
                    <CharString index="20">
                        67 hlineto
81 202 56 160 50 177 rrcurveto
-76 hlineto
-39 -157 -39 -134 -49 -154 rrcurveto
-6 hlineto
-63 310 rlineto
-49 hlineto
-181 -309 rlineto
-5 hlineto
13 150 13 135 18 159 rrcurveto
-73 hlineto
-23 -201 -13 -208 2 -130 rrcurveto
67 hlineto
181 308 rlineto
endchar
                    </CharString>
                    <CharString index="21">
                        83 hlineto
48 130 82 262 76 296 rrcurveto
-70 hlineto
-40 -155 -99 -367 -28 -76 rrcurveto
-5 hlineto
-68 400 rlineto
-54 hlineto
-221 -400 rlineto
-6 hlineto
2 76 43 367 21 155 rrcurveto
-72 hlineto
-39 -296 -22 -262 -2 -130 rrcurveto
84 hlineto
218 387 rlineto
endchar
                    </CharString>
                    <CharString index="22">
                        -85 callgsubr
hintmask 01011100
-69 callsubr
hintmask 10101100
-78 callsubr
hintmask 01011100
-35 callsubr
                    </CharString>
                    <CharString index="23">
                        -84 627 rmoveto
8 hlineto
15 -114 15 -115 14 -115 rrcurveto
-232 hlineto
59 115 60 115 61 114 rrcurveto
endchar
                    </CharString>
                    <CharString index="24">
                        rmoveto
62 57 77 85 43 58 -71 39 rcurveline
-34 -61 -60 -92 -49 -59 rrcurveto
244 -27 rmoveto
62 56 76 84 43 60 -73 35 rcurveline
return
                    </CharString>
                    <CharString index="25">
                        rmoveto
hintmask 00111100
-57 callsubr
hintmask 01011100
-78 callgsubr
hintmask 10011100
9 -76 8 -75 8 -75 rrcurveto
hintmask 00111100
-84 callsubr
                    </CharString>
                    <CharString index="26">
                        rmoveto
-91 callsubr
                    </CharString>
                    <CharString index="27">
                        80 hlineto
113 583 rlineto
-68 hlineto
hintmask 10110000
-90 -474 rlineto
-6 hlineto
-186 475 -90 -3 -113 -581 rlineto
68 hlineto
93 492 rlineto
7 hlineto
return
                    </CharString>
                    <CharString index="28">
                        rmoveto
44 145 -84 -2 -35 -144 rlineto
return
                    </CharString>
                    <CharString index="29">
                        14 -55 -48 7 -42 hhcurveto
-194 -136 -190 -203 -113 49 -56 66 62 81 52 64 65 hvcurveto
return
                    </CharString>
                    <CharString index="30">
                        45 20 -118 68 hhcurveto
50 52 57 92 51 hvcurveto
-37 23 rlineto
-66 -39 -33 -48 -28 hhcurveto
return
                    </CharString>
                    <CharString index="31">
                        rmoveto
29 callsubr
50 52 57 92 51 hvcurveto
-37 23 rlineto
-66 -39 -33 -48 -28 hhcurveto
return
                    </CharString>
                    <CharString index="32">
                        13 62 -322 -2 409 463 10 60 rlineto
-393 hlineto
-13 -62 315 2 -411 -463 -11 -60 rlineto
endchar
                    </CharString>
                    <CharString index="33">
                        rmoveto
119 -15 -51 66 -105 hhcurveto
-126 -97 -98 -103 hvcurveto
-162 266 -70 -120 vvcurveto
-73 -88 -61 -267 75 vhcurveto
-17 -73 rlineto
316 -74 129 105 112 148 -266 72 134 vvcurveto
66 54 60 75 72 40 -44 -94 13 vhcurveto
return
                    </CharString>
                    <CharString index="34">
                        rmoveto
-81 callgsubr
endchar
                    </CharString>
                    <CharString index="35">
                        rmoveto
44 144 -84 -1 -35 -144 rlineto
return
                    </CharString>
                    <CharString index="36">
                        -50 -52 -52 -92 -52 hvcurveto
37 -23 rlineto
66 39 33 43 28 return
                    </CharString>
                    <CharString index="37">
                        rmoveto
123 8 -41 52 -91 hhcurveto
-158 -144 -174 -190 -175 134 -97 254 136 hvcurveto
-10 38 rlineto
-214 -79 -94 48 142 vvcurveto
153 98 135 114 56 23 -32 -81 -1 vhcurveto
endchar
                    </CharString>
                    <CharString index="38">
                        369 -15 rmoveto
-11 37 -117 -44 -6 19 17 82 rlinecurve
77 394 rlineto
return
                    </CharString>
                    <CharString index="39">
                        rmoveto
54 32 -31 -47 -95 -117 -53 -180 -14 hvcurveto
124 18 81 116 112 hhcurveto
-472 -434 rmoveto
-41 -34 39 81 hvcurveto
hintmask 01010110
159 93 154 119 40 54 -14 -25 50 vhcurveto
-52 -62 -34 -85 -6 -93 rrcurveto
hintmask 10101110
-79 -56 -77 -75 -56 hhcurveto
hintmask 01101110
595 5 rmoveto
-10 37 rlineto
-246 -87 -82 45 141 2 0 3 2 vvcurveto
234 17 135 77 130 vvcurveto
76 -50 48 -85 -57 -51 -18 -30 -44 vhcurveto
hintmask 10010110
31 -55 -53 15 -52 hhcurveto
-188 -136 -190 -203 -113 52 -56 65 70 84 73 84 64 hvcurveto
hintmask 01101110
15 -146 129 -73 261 135 rrcurveto
endchar
                    </CharString>
                    <CharString index="40">
                        13 61 rlineto
-275 hlineto
102 522 rlineto
-73 hlineto
-113 -583 rlineto
return
                    </CharString>
                    <CharString index="41">
                        -21 24 -21 180 53 287 62 return
                    </CharString>
                    <CharString index="42">
                        662 rmoveto
51 41 -139 167 rlineto
-1 hlineto
hintmask 11011000
-211 -163 rlineto
hintmask 11101000
34 -40 164 125 rlineto
return
                    </CharString>
                    <CharString index="43">
                        hintmask 10011000
406 -5 rmoveto
hintmask 00111000
78 10 -190 287 288 291 rlineto
-80 hlineto
-290 -291 rlineto
-43 291 rmoveto
hintmask 01011000
63 callsubr
114 583 rlineto
return
                    </CharString>
                    <CharString index="44">
                        rmoveto
4 -82 -4 -76 -57 -99 31 -16 rcurveline
78 96 30 90 4 92 rrcurveto
return
                    </CharString>
                    <CharString index="45">
                        rmoveto
448 hlineto
10 51 rlineto
-448 hlineto
return
                    </CharString>
                    <CharString index="46">
                        rmoveto
198 113 168 156 53 45 -22 -42 32 vhcurveto
-382 -408 rlineto
-11 30 -6 36 40 vvcurveto
177 -224 rmoveto
-55 -46 24 43 -32 hvcurveto
383 409 rlineto
11 -31 7 -36 -42 vvcurveto
-198 -113 -169 -155 vhcurveto
-16 -64 rmoveto
196 161 199 244 62 -13 53 -22 42 hvcurveto
hintmask 11011100
90 95 -42 36 rlineto
hintmask 11101100
-80 -85 rlineto
47 -41 -58 25 -68 hhcurveto
-196 -161 -199 -243 -61 12 -52 22 -42 hvcurveto
-91 -97 41 -36 80 87 rlineto
-49 42 59 -26 69 hhcurveto
endchar
                    </CharString>
                    <CharString index="47">
                        -24 callgsubr
90 79 callsubr
56 579 hintmask 01110110
498 732 39 callgsubr
hintmask 01101110
-71 callsubr
hhcurveto
hintmask 01110110
-77 callsubr
hintmask 01101110
-82 -732 88 callsubr
hintmask 10101110
25 callgsubr
                    </CharString>
                    <CharString index="48">
                        -107 326 -74 -4 131 -379 -39 -202 rlineto
endchar
                    </CharString>
                    <CharString index="49">
                        82 42 callsubr
-68 hlineto
hintmask 10110000
-108 -571 rlineto
-7 hlineto
-216 573 -94 -4 -133 -686 rlineto
68 hlineto
113 594 rlineto
7 hlineto
return
                    </CharString>
                    <CharString index="50">
                        72 6 -25 229 -30 229 -34 230 rlinecurve
-104 hlineto
return
                    </CharString>
                    <CharString index="51">
                        50 callsubr
-40 31 -565 -697 rlineto
return
                    </CharString>
                    <CharString index="52">
                        74 callsubr
-43 90 114 73 hintmask 10110100
12 callsubr
hintmask 01110100
-16 -69 rlineto
hintmask 10110100
282 -61 112 90 94 127 -234 63 109 vvcurveto
54 45 47 64 60 35 -35 -78 12 vhcurveto
hintmask 10101100
-306 -717 -101 callgsubr
                    </CharString>
                    <CharString index="53">
                        -27 callgsubr
39 56 49 137 50 vhcurveto
return
                    </CharString>
                    <CharString index="54">
                        rmoveto
-10 39 -217 -84 -35 41 29 129 rlinecurve
67 298 rlineto
195 hlineto
10 56 rlineto
-193 hlineto
36 159 -53 -4 -85 -155 rlineto
-62 hlineto
-16 -56 rlineto
98 hlineto
-68 -302 -39 -174 90 -90 253 143 rlinecurve
return
                    </CharString>
                    <CharString index="55">
                        rmoveto
184 89 callgsubr
-440 hlineto
-11 -61 rlineto
184 hlineto
-101 -522 rlineto
72 hlineto
return
                    </CharString>
                    <CharString index="56">
                        -25 callgsubr
204 90 153 73 hintmask 10011100
416 -6 rmoveto
hintmask 00111100
78 12 -166 244 rlineto
118 54 74 62 86 vvcurveto
93 -97 67 -254 -31 vhcurveto
hintmask 01011100
-113 -581 rlineto
73 hlineto
101 527 rlineto
146 14 71 -36 -66 vvcurveto
-68 -59 -46 -147 -62 vhcurveto
-1 -2 rlineto
-83 -554 -101 callgsubr
                    </CharString>
                    <CharString index="57">
                        98 -6 64 -37 -21 320 58 256 63 hstemhm
570 72 hintmask 10111000
642 422 rmoveto
218 -166 89 -268 -42 vhcurveto
-59 -309 rlineto
-82 hlineto
-12 -58 rlineto
82 hlineto
hintmask 01111000
-61 -320 rlineto
hintmask 10111000
382 -46 184 214 254 vvcurveto
-260 -102 rmoveto
11 58 rlineto
-172 hlineto
49 253 rlineto
193 19 107 -73 -164 vvcurveto
-203 -126 -171 -284 19 vhcurveto
50 262 rlineto
endchar
                    </CharString>
                    <CharString index="58">
                        595 -43 callgsubr
return
                    </CharString>
                    <CharString index="59">
                        7 -62 7 -63 7 -61 rrcurveto
return
                    </CharString>
                    <CharString index="60">
                        rmoveto
-95 callsubr
endchar
                    </CharString>
                    <CharString index="61">
                        260 0 60 208 53 201 61 hstem
67 73 vstem
744 60 rmoveto
-276 hlineto
40 208 rlineto
234 hlineto
10 53 rlineto
-234 hlineto
39 201 rlineto
274 hlineto
12 61 rlineto
-326 hlineto
-325 -125 -155 -191 -167 119 -70 214 hvcurveto
327 hlineto
-587 245 rmoveto
154 87 123 259 1 vhcurveto
-90 -462 rlineto
-172 -84 53 131 hvcurveto
endchar
                    </CharString>
                    <CharString index="62">
                        236 -22 76 77 69 vvcurveto
return
                    </CharString>
                    <CharString index="63">
                        -105 -229 54 175 56 471 56 hstem
46 66 vstem
274 -182 rmoveto
-11 34 rlineto
-103 -45 -48 15 41 vvcurveto
40 40 51 82 46 vhcurveto
127 hlineto
14 56 rlineto
-135 hlineto
91 471 rlineto
131 hlineto
10 56 rlineto
-336 hlineto
-11 -17 callsubr
-92 -471 rlineto
-132 hlineto
-10 -17 callsubr
-77 -53 -36 -56 -47 vvcurveto
-70 83 -39 145 83 vhcurveto
endchar
                    </CharString>
                    <CharString index="64">
                        rmoveto
254 66 86 79 81 70 -66 59 46 vvcurveto
hintmask 11001000
36 38 36 132 8 vhcurveto
11 53 rlineto
hintmask 10101000
-95 12 -42 28 39 60 127 39 99 vvcurveto
69 -70 58 -182 90 vhcurveto
-34 -58 rlineto
148 -72 67 -48 -54 -74 -124 -40 -81 vvcurveto
-36 23 -36 68 -21 vhcurveto
hintmask 11001000
-94 -25 -39 -54 -44 vvcurveto
hintmask 10011000
-55 65 -67 -50 vvcurveto
-57 -84 -46 -200 -45 vhcurveto
endchar
                    </CharString>
                    <CharString index="65">
                        6 callsubr
140 59 callgsubr
106 487 hintmask 10110100
496 664 rmoveto
51 41 -139 167 rlineto
-1 hlineto
hintmask 10101100
-211 -163 rlineto
hintmask 11010100
34 -40 164 125 rlineto
-124 -794 rmoveto
38 191 -56 callgsubr
hintmask 10101100
-59 callsubr
                    </CharString>
                    <CharString index="66">
                        rmoveto
8 hlineto
-68 -350 rlineto
-214 hlineto
90 117 92 117 92 116 rrcurveto
-113 -623 rmoveto
383 hlineto
18 65 rlineto
-315 hlineto
49 255 rlineto
268 hlineto
11 57 rlineto
-267 hlineto
47 246 rlineto
313 hlineto
12 65 rlineto
-433 hlineto
-184 -228 -182 -233 -171 -227 rrcurveto
81 hlineto
54 72 55 72 56 73 rrcurveto
247 hlineto
endchar
                    </CharString>
                    <CharString index="67">
                        rmoveto
-11 39 rlineto
-96 -36 -17 7 31 66 78 196 109 vvcurveto
return
                    </CharString>
                    <CharString index="68">
                        140 21 -21 58.5 95.5 344 85 -85 87 hstemhm
56 633 hintmask 11011000
271 585 rmoveto
-102 -4 -113 -581 rlineto
68 hlineto
hintmask 11101000
91 498 rlineto
6 hlineto
74 -440 60 1 245 439 rlineto
6 hlineto
-101 -498 rlineto
71 hlineto
113 583 rlineto
-105 hlineto
-240 -429 rlineto
-2 hlineto
endchar
                    </CharString>
                    <CharString index="69">
                        19 63 -329 -2 393 418 11 60 rlineto
-389 hlineto
-19 -63 317 2 -392 -417 -12 -61 rlineto
endchar
                    </CharString>
                    <CharString index="70">
                        -24 callgsubr
hstemhm
216 90 -1 callsubr
-55 -779 -101 callgsubr
                    </CharString>
                    <CharString index="71">
                        -48 0 160 274 58 -58 147 hstemhm
434 71 hintmask 10110000
129 hmoveto
18 94 rlineto
226 21 132 86 129 vvcurveto
hintmask 11010000
100 -82 71 -199 -9 vhcurveto
hintmask 10110000
17 88 -72 1 -113 -581 rlineto
378 319 rmoveto
-95 -95 -66 -179 2 vhcurveto
52 271 rlineto
152 15 70 -49 -78 vvcurveto
endchar
                    </CharString>
                    <CharString index="72">
                        -15 -111 44 -46 163 94 rrcurveto
endchar
                    </CharString>
                    <CharString index="73">
                        -9 60 -40 40 483 59 hstemhm
114 72 return
                    </CharString>
                    <CharString index="74">
                        -17 18 -21 24 -21 24 -21 576 7 -3 -20 23 -20 hstemhm
5 585 hintmask 10000110
404 -3 rmoveto
hintmask 00101010
76 6 -139 289 249 291 rlineto
-82 hlineto
-196 -239 rlineto
hintmask 00100110
-116 242 rlineto
hintmask 01010010
-76 -7 138 -282 -253 -297 rlineto
81 hlineto
201 244 rlineto
endchar
                    </CharString>
                    <CharString index="75">
                        462 rmoveto
92 72 63 94 hvcurveto
hintmask 11011000
117 -132 43 -111 -90 vhcurveto
22 69 64 73 153 40 -13 53 rcurveline
-217 -62 -77 -130 -117 vvcurveto
hintmask 10111000
13 callgsubr
                    </CharString>
                    <CharString index="76">
                        45 -13 61 487 60 return
                    </CharString>
                    <CharString index="77">
                        -2 callsubr
76 callgsubr
hintmask 10010111
return
                    </CharString>
                    <CharString index="78">
                        -34 callsubr
161 73 return
                    </CharString>
                    <CharString index="79">
                        14 65 rlineto
-317 hlineto
120 623 rlineto
-73 hlineto
-133 -688 rlineto
return
                    </CharString>
                    <CharString index="80">
                        58 5 57 122 56 return
                    </CharString>
                    <CharString index="81">
                        -48 21 -21 530 58 hstem
452 71 vstem
129 hmoveto
37 190 rlineto
225 21 132 86 129 vvcurveto
111 -102 76 -252 -33 vhcurveto
-113 -580 rlineto
396 415 rmoveto
-95 -95 -65 -179 1 vhcurveto
53 271 rlineto
151 15 70 -49 -78 vvcurveto
endchar
                    </CharString>
                    <CharString index="82">
                        -21 24 -21 220 57 344 67 return
                    </CharString>
                    <CharString index="83">
                        -63 21 -21 522 61 hstem
96 457 vstem
342 658 -102 callsubr
11 -136 35 callsubr
                    </CharString>
                    <CharString index="84">
                        35 -12 44 callsubr
return
                    </CharString>
                    <CharString index="85">
                        -96 0 61 522 -20 154 -20 hstem
424 86 vstem
424 717 -63 callsubr
-108 -722 rmoveto
-10 callsubr
                    </CharString>
                    <CharString index="86">
                        112 rlineto
-101 hlineto
-21 -112 rlineto
endchar
                    </CharString>
                    <CharString index="87">
                        rmoveto
185 -148 76 -240 -36 vhcurveto
return
                    </CharString>
                    <CharString index="88">
                        -12 66 -63 64 484 -20 22 -20 return
                    </CharString>
                    <CharString index="89">
                        -15 -12 62 484 61 hstem
65 73 318 69 vstem
return
                    </CharString>
                    <CharString index="90">
                        -56 rlineto
134 hlineto
return
                    </CharString>
                    <CharString index="91">
                        vstem
505 564 -99 callgsubr
17 callsubr
18 92 rlineto
return
                    </CharString>
                    <CharString index="92">
                        493 -12 callgsubr
return
                    </CharString>
                    <CharString index="93">
                        rmoveto
-47 -36 43 86 156 93 152 117 30 43 -7 -13 45 hvcurveto
-60 -310 rlineto
-59 -55 -77 -48 -53 hhcurveto
return
                    </CharString>
                    <CharString index="94">
                        -96 0 61 199 108 215 -20 hstem
56 395 vstem
402 hmoveto
-67 callsubr
373 260 rmoveto
22 108 rlineto
-90 hlineto
-21 -108 rlineto
endchar
                    </CharString>
                    <CharString index="95">
                        -85 21 -21 256 54 212 61 hstem
56 462 vstem
413 256 rmoveto
11 54 rlineto
-235 hlineto
41 212 rlineto
277 89 callgsubr
-349 hlineto
-113 -583 rlineto
73 hlineto
50 256 rlineto
endchar
                    </CharString>
                    <CharString index="96">
                        83 callsubr
-22 -112 rlineto
19 -427 rmoveto
21 -21 callsubr
                    </CharString>
                    <CharString index="97">
                        -67 callsubr
endchar
                    </CharString>
                    <CharString index="98">
                        -27 693 -20 106 -20 23 -20 hstemhm
143 351 hintmask 10110000
283 615 rmoveto
hintmask 11010000
211 164 -34 40 -163 -126 rlineto
hintmask 10110000
-103 130 -51 -41 139 -167 rlineto
endchar
                    </CharString>
                    <CharString index="99">
                        rmoveto
279 201 110 171 189 vvcurveto
133 -62 145 -144 175 vhcurveto
-56 -42 rlineto
137 -159 57 -133 -121 vvcurveto
-168 -91 -155 -268 -184 vhcurveto
endchar
                    </CharString>
                    <CharString index="100">
                        rmoveto
56 48 -186 234 281 237 -45 55 -277 -245 -18 -83 rlineto
499 -246 rmoveto
57 47 -180 232 284 237 -44 57 -279 -247 -21 -83 rlineto
endchar
                    </CharString>
                    <CharString index="101">
                        hintmask 10011000
465 -6 rmoveto
hintmask 00111000
78 12 -213 339 327 343 rlineto
-82 hlineto
-329 -342 rlineto
-47 342 rmoveto
hintmask 01011000
-133 -688 rlineto
73 42 callsubr
return
                    </CharString>
                    <CharString index="102">
                        rmoveto
212 hlineto
12 64 rlineto
-497 hlineto
-12 -64 rlineto
212 hlineto
-121 -624 rlineto
73 hlineto
return
                    </CharString>
                    <CharString index="103">
                        145 -142.5 145.5 hstemhm
return
                    </CharString>
                    <CharString index="104">
                        rmoveto
-97 callsubr
return
                    </CharString>
                    <CharString index="105">
                        24 9 callgsubr
150 66 447 -20 29 -20 return
                    </CharString>
                    <CharString index="106">
                        hintmask 01110000
416 hmoveto
-80 callsubr
return
                    </CharString>
                    <CharString index="107">
                        196 140 6 53 rlineto
-270 hlineto
-11 -53 rlineto
206 hlineto
-200 -142 -34 callgsubr
return
                    </CharString>
                    <CharString index="108">
                        -54 -36 -44 -62 vhcurveto
endchar
                    </CharString>
                    <CharString index="109">
                        2 -122 24 -88 -28 -28 -22 -22 -92 -22 -216 18 rrcurveto
return
                    </CharString>
                    <CharString index="110">
                        -159 -62 callsubr
return
                    </CharString>
                    <CharString index="111">
                        97 78 98 -35 -83 vvcurveto
return
                    </CharString>
                    <CharString index="112">
                        122.5 -3 -20 23 -20 hstemhm
return
                    </CharString>
                    <CharString index="113">
                        -23 21 -21 583 -20 22 -20 return
                    </CharString>
                    <CharString index="114">
                        17 -5 61 -35 -21 529 60 hstemhm
485 72 hintmask 10110000
return
                    </CharString>
                    <CharString index="115">
                        33 callsubr
154 hlineto
return
                    </CharString>
                    <CharString index="116">
                        94 68 53 64 hvcurveto
return
                    </CharString>
                    <CharString index="117">
                        -27 632.5 144.5 hstem
238 119 vstem
313 633 -72 callsubr
endchar
                    </CharString>
                    <CharString index="118">
                        -244 50 216 -21 160 53 return
                    </CharString>
                    <CharString index="119">
                        467 20 callgsubr
return
                    </CharString>
                    <CharString index="120">
                        131 0 117 -96 -21 594 96 return
                    </CharString>
                    <CharString index="121">
                        64 -10 64 -33 -21 485 67 -10 -20 return
                    </CharString>
                    <CharString index="122">
                        hstemhm
109 72 254 72 return
                    </CharString>
                    <CharString index="123">
                        hstem
65 72 331 71 vstem
return
                    </CharString>
                    <CharString index="124">
                        -18 -92 rlineto
56 hlineto
return
                    </CharString>
                    <CharString index="125">
                        -11 callgsubr
endchar
                    </CharString>
                    <CharString index="126">
                        78 -44 150 85 vhcurveto
return
                    </CharString>
                    <CharString index="127">
                        -132 -687 rlineto
71 hlineto
123 630 rlineto
151 16 70 -43 -83 vvcurveto
-79 -62 -55 -164 -77 vhcurveto
-1 -2 rlineto
return
                    </CharString>
                    <CharString index="128">
                        16 callgsubr
endchar
                    </CharString>
                    <CharString index="129">
                        -150 -774 rlineto
70 hlineto
67 347 rlineto
91 85 83 47 57 hhcurveto
33 20 -18 -32 -45 -54 -75 -183 -94 hvcurveto
return
                    </CharString>
                    <CharString index="130">
                        -49 0 61 461 61 hstem
22 return
                    </CharString>
                    <CharString index="131">
                        99 vstem
118 447 rmoveto
29 -18 100 92 50 86 9 130 rlinecurve
-99 -2 10 -124 -18 -75 -81 -89 rlinecurve
return
                    </CharString>
                    <CharString index="132">
                        -77 -7 61 532 -20 hstemhm
231 144 6 70 hintmask 11010000
return
                    </CharString>
                    <CharString index="133">
                        -21 16 -21 26 -21 26 -21 578 -20 hstemhm
return
                    </CharString>
                    <CharString index="134">
                        -49 -11 64 437 62 return
                    </CharString>
                    <CharString index="135">
                        8 0 8 1 8 return
                    </CharString>
                    <CharString index="136">
                        -1 callgsubr
-71 callsubr
45 20 -118 68 hhcurveto
return
                    </CharString>
                    <CharString index="137">
                        rmoveto
-311 33 callsubr
243 hlineto
-164 -843 rlineto
-242 33 callsubr
311 hlineto
endchar
                    </CharString>
                    <CharString index="138">
                        rmoveto
311 hlineto
12 60 rlineto
-243 hlineto
164 844 rlineto
242 hlineto
12 60 rlineto
-311 hlineto
endchar
                    </CharString>
                    <CharString index="139">
                        -21 -9 64 584 62 hstem
141 73 193 73 vstem
return
                    </CharString>
                    <CharString index="140">
                        hlineto
-12 -60 rlineto
return
                    </CharString>
                    <CharString index="141">
                        -64 3 -41 -133 -38 -80 -58 -96 rlinecurve
-4 -42 rlineto
216 hlineto
17 callsubr
18 92 rlineto
return
                    </CharString>
                    <CharString index="142">
                        -52 callsubr
endchar
                    </CharString>
                    <CharString index="143">
                        hstemhm
-20 callgsubr
return
                    </CharString>
                    <CharString index="144">
                        106 0 85 498 -20 return
                    </CharString>
                    <CharString index="145">
                        -193 85 callsubr
return
                    </CharString>
                    <CharString index="146">
                        73 16 -166 284 rlineto
135 68 80 71 102 vvcurveto
111 -95 76 -261 -34 vhcurveto
return
                    </CharString>
                    <CharString index="147">
                        -29 18 -100 -92 -50 -86 -9 -131 rlinecurve
99 3 -10 124 18 75 81 89 rlinecurve
endchar
                    </CharString>
                    <CharString index="148">
                        -234 53 199 -21 155 53 return
                    </CharString>
                    <CharString index="149">
                        hlineto
133 688 rlineto
return
                    </CharString>
                    <CharString index="150">
                        280 -12 68 -66 64 150 46 239 61 -60 62 hstemhm
60 70 633 68 return
                    </CharString>
                    <CharString index="151">
                        60 535 -20 return
                    </CharString>
                    <CharString index="152">
                        612 39 -40 callsubr
return
                    </CharString>
                    <CharString index="153">
                        25 -12 67 -65 65 437 60 -8 -20 256 -20 hstemhm
62 70 258 69 return
                    </CharString>
                    <CharString index="154">
                        13 0 65 558 65 hstem
29 583 vstem
return
                    </CharString>
                    <CharString index="155">
                        0 11 -3 4 -5 -5 -3 -4 0 hflex1
return
                    </CharString>
                    <CharString index="156">
                        53 352 54 hstem
return
                    </CharString>
                    <CharString index="157">
                        566 697 return
                    </CharString>
                    <CharString index="158">
                        rlineto
70 hlineto
67 348 rlineto
93 85 78 44 58 hhcurveto
46 20 -23 -42 hvcurveto
return
                    </CharString>
                    <CharString index="159">
                        hstemhm
63 -27 callsubr
return
                    </CharString>
                    <CharString index="160">
                        359 0 65 152 56 47 57 246 65 hstem
-13 970 vstem
return
                    </CharString>
                    <CharString index="161">
                        778 rmoveto
-190 -978 rlineto
65 hlineto
191 978 rlineto
endchar
                    </CharString>
                    <CharString index="162">
                        -123 -12 65 428 56 159 -20 return
                    </CharString>
                    <CharString index="163">
                        -28 41 callsubr
return
                    </CharString>
                    <CharString index="164">
                        13 callsubr
hstemhm
66 626 hintmask 01110000
return
                    </CharString>
                    <CharString index="165">
                        54 81 53 199 49 -49 56 0 -20 33 -20 hstemhm
382 63 return
                    </CharString>
                    <CharString index="166">
                        -24 callgsubr
hstemhm
56 553 hintmask 01110000
return
                    </CharString>
                    <CharString index="167">
                        -8 -2 -5 -6 -11 hhcurveto
-13 -8 8 12 12 9 9 11 hvcurveto
return
                    </CharString>
                    <CharString index="168">
                        798 rmoveto
-39 27 -32 43 -31 vhcurveto
40 49 rlineto
-40 30 -20 return
                    </CharString>
                    <CharString index="169">
                        -119 -8 60 658 73 return
                    </CharString>
                    <CharString index="170">
                        -114 -583 rlineto
73 hlineto
return
                    </CharString>
                    <CharString index="171">
                        66 callgsubr
vstem
return
                    </CharString>
                    <CharString index="172">
                        44 182 49 hstem
return
                    </CharString>
                    <CharString index="173">
                        87 -6 64 -37 -21 634 63 hstemhm
560 73 hintmask 10110000
return
                    </CharString>
                    <CharString index="174">
                        51 103 3 callgsubr
return
                    </CharString>
                    <CharString index="175">
                        -5 rcurveline
-27 -182 -38 -189 -70 -361 rrcurveto
endchar
                    </CharString>
                    <CharString index="176">
                        hhcurveto
46 36 -41 -88 -156 -93 -153 -117 hvcurveto
return
                    </CharString>
                    <CharString index="177">
                        62 callsubr
hstem
86 72 270 71 return
                    </CharString>
                    <CharString index="178">
                        27 callgsubr
hstem
return
                    </CharString>
                    <CharString index="179">
                        -172 -21 134 44 24 -21 179 49 hstemhm
return
                    </CharString>
                    <CharString index="180">
                        678 -79 callsubr
return
                    </CharString>
                    <CharString index="181">
                        -82 -34 callsubr
return
                    </CharString>
                    <CharString index="182">
                        rmoveto
-436 hlineto
-12 -63 rlineto
435 hlineto
endchar
                    </CharString>
                    <CharString index="183">
                        hstemhm
413 75 2 76 return
                    </CharString>
                    <CharString index="184">
                        hstemhm
65 73 328 69 return
                    </CharString>
                    <CharString index="185">
                        -63 -12 64 437 63 return
                    </CharString>
                    <CharString index="186">
                        58 -26 -20 106 58 hstemhm
return
                    </CharString>
                    <CharString index="187">
                        0 8 -2 4 -5 -4 -3 -3 0 hflex1
return
                    </CharString>
                    <CharString index="188">
                        -14 -108 47 -44 160 93 rrcurveto
endchar
                    </CharString>
                    <CharString index="189">
                        hintmask 000000001000000000000000000000000000000000000000
return
                    </CharString>
                    <CharString index="190">
                        rmoveto
21 112 rlineto
-101 hlineto
return
                    </CharString>
                    <CharString index="191">
                        53 18 -20 hstemhm
363 59 return
                    </CharString>
                    <CharString index="192">
                        -11 65 487 -20 return
                    </CharString>
                    <CharString index="193">
                        vstem
402 hmoveto
13 61 rlineto
-275 hlineto
return
                    </CharString>
                    <CharString index="194">
                        -238 56 186 -21 169 53 hstem
return
                    </CharString>
                    <CharString index="195">
                        rmoveto
80 hlineto
113 583 rlineto
-68 hlineto
return
                    </CharString>
                    <CharString index="196">
                        hstem
88 71 vstem
return
                    </CharString>
                <CharString name=".notdef">
                    -98 -200 50 900 50 hstem
0 50 400 50 vstem
-200 vmoveto
500 1000 -500 hlineto
71 -50 rmoveto
358 hlineto
-179 -390 rlineto
200 316 rmoveto
-752 vlineto
-172 376 rlineto
-228 -376 rmoveto
752 vlineto
172 -376 rlineto
28 -60 rmoveto
179 -390 rlineto
-358 hlineto
endchar
                </CharString>
                <CharString name="A">
                    -51 callgsubr
hstemhm
5 551 hintmask 10011100
484 -3 -82 callsubr
                </CharString>
                <CharString name="A.sc">
                    -76 callgsubr
hstemhm
5 491 hintmask 10011100
424 -3 rmoveto
hintmask 00111100
-77 callgsubr
hintmask 01011100
-98 callgsubr
hintmask 10011100
-48 callsubr
hintmask 00111100
-96 callgsubr
                </CharString>
                <CharString name="AE">
                    53 callsubr
551 623 -41 callsubr
                </CharString>
                <CharString name="AE.sc">
                    -6 callgsubr
476 522 -80 callgsubr
                </CharString>
                <CharString name="AEacute">
                    53 callsubr
598 801 -107 callgsubr
-47 -178 -41 callsubr
                </CharString>
                <CharString name="AEacute.sc">
                    -6 callgsubr
483 695 -107 callgsubr
-7 -173 -80 callgsubr
                </CharString>
                <CharString name="Aacute">
                    -51 callgsubr
hstemhm
5 597 hintmask 00111100
329 803 -107 callgsubr
hintmask 10011100
155 -806 -82 callsubr
                </CharString>
                <CharString name="Aacute.sc">
                    -76 callgsubr
hstemhm
5 547 hintmask 00111100
279 698 -107 callgsubr
hintmask 10011100
145 -701 rmoveto
hintmask 00111100
-77 callgsubr
hintmask 01011100
-98 callgsubr
hintmask 10011100
-48 callsubr
hintmask 00111100
-96 callgsubr
                </CharString>
                <CharString name="Abreve">
                    -51 callgsubr
87 60 hstemhm
5 647 hintmask 00111110
610 964 -105 callsubr
hintmask 10011110
-168 -939 rmoveto
hintmask 00111110
-57 callsubr
hintmask 01011110
-78 callgsubr
hintmask 10011110
9 -76 8 -75 8 -75 rrcurveto
hintmask 00111110
-84 callsubr
                </CharString>
                <CharString name="Abreve.sc">
                    -76 callgsubr
88 60 hstemhm
5 597 hintmask 00111110
560 859 -105 callsubr
hintmask 10011110
-178 -834 rmoveto
hintmask 00111110
-77 callgsubr
hintmask 01011110
-98 callgsubr
hintmask 10011110
-48 callsubr
hintmask 00111110
-96 callgsubr
                </CharString>
                <CharString name="Acircumflex">
                    -51 callgsubr
hstemhm
5 608 hintmask 00111100
562 770 -91 callgsubr
hintmask 10011100
24 -903 -82 callsubr
                </CharString>
                <CharString name="Acircumflex.sc">
                    -76 callgsubr
121 59 callgsubr
5 558 hintmask 00111101
512 665 rmoveto
51 41 -139 167 rlineto
-1 hlineto
hintmask 00111011
-211 -163 rlineto
hintmask 10011101
34 -40 164 125 rlineto
14 -798 rmoveto
hintmask 00111011
-77 callgsubr
hintmask 01011011
-98 callgsubr
hintmask 10011101
-48 callsubr
hintmask 00111011
-96 callgsubr
                </CharString>
                <CharString name="Adieresis">
                    -51 callgsubr
92 -83 callgsubr
5 611 hintmask 00111011
572 786 -79 callsubr
hintmask 10011101
-90 callgsubr
204 -785 rmoveto
hintmask 00111011
-57 callsubr
hintmask 01011011
-78 callgsubr
hintmask 10011101
9 -76 8 -75 8 -75 rrcurveto
hintmask 00111011
-84 callsubr
                </CharString>
                <CharString name="Adieresis.sc">
                    -76 callgsubr
93 -83 callgsubr
5 561 hintmask 00111011
522 681 -79 callsubr
hintmask 10011101
-90 callgsubr
194 -680 rmoveto
hintmask 00111011
-77 callgsubr
hintmask 01011011
-98 callgsubr
hintmask 10011101
-48 callsubr
hintmask 00111011
-96 callgsubr
                </CharString>
                <CharString name="Agrave">
                    -51 callgsubr
hstemhm
5 551 hintmask 00111100
526 794 -98 callsubr
hintmask 10011100
-22 -765 -82 callsubr
                </CharString>
                <CharString name="Agrave.sc">
                    -76 callgsubr
104 -20 hstemhm
5 491 hintmask 00111110
476 689 -98 callsubr
hintmask 10011110
-32 -660 rmoveto
hintmask 00111110
-77 callgsubr
hintmask 01011110
-98 callgsubr
hintmask 10011110
-48 callsubr
hintmask 00111110
-96 callgsubr
                </CharString>
                <CharString name="Amacron">
                    -51 callgsubr
136 63 hstemhm
5 616 hintmask 00111110
621 890 -73 callgsubr
hintmask 10011110
-125 -830 rmoveto
hintmask 00111110
-57 callsubr
hintmask 01011110
-78 callgsubr
hintmask 10011110
9 -76 8 -75 8 -75 rrcurveto
hintmask 00111110
-84 callsubr
                </CharString>
                <CharString name="Amacron.sc">
                    -76 callgsubr
137 63 hstemhm
5 566 hintmask 00111110
571 785 -73 callgsubr
hintmask 10011110
-135 -725 rmoveto
hintmask 00111110
-77 callgsubr
hintmask 01011110
-98 callgsubr
hintmask 10011110
-48 callsubr
hintmask 00111110
-96 callgsubr
                </CharString>
                <CharString name="Aogonek">
                    63 -227 54 194 -25 callsubr
hstemhm
296 67 hintmask 10111100
524 -180 rmoveto
-54 callsubr
-25 229 -30 229 -34 230 rrcurveto
-104 hlineto
hintmask 11011100
-78 callgsubr
8 -70 8 -69 7 -69 rrcurveto
-131 -59 -55 -59 -53 vvcurveto
hintmask 10111100
-65 19 callsubr
-124 804 rmoveto
8 hlineto
15 -114 15 -115 14 -115 rrcurveto
-232 hlineto
59 115 60 115 61 114 rrcurveto
endchar
                </CharString>
                <CharString name="Aogonek.sc">
                    -64 callgsubr
                </CharString>
                <CharString name="Aring">
                    -51 callgsubr
65 48 134 47 hstemhm
318 55 155 55 hintmask 0011111110000000
459 985 -99 callsubr
hintmask 1001111110000000
30 -941 rmoveto
hintmask 0011111110000000
-57 callsubr
hintmask 0101111110000000
-78 callgsubr
hintmask 1001111110000000
9 -76 8 -75 8 -75 rrcurveto
hintmask 0011111110000000
-84 callsubr
                </CharString>
                <CharString name="Aring.sc">
                    -76 callgsubr
66 48 134 47 hstemhm
268 55 155 55 hintmask 0011111110000000
409 880 -99 callsubr
hintmask 1001111110000000
20 -836 rmoveto
hintmask 0011111110000000
-77 callgsubr
hintmask 0101111110000000
-98 callgsubr
hintmask 1001111110000000
-48 callsubr
hintmask 0011111110000000
-96 callgsubr
                </CharString>
                <CharString name="Aringacute">
                    -51 callgsubr
65 48 134 47 hstemhm
318 55 155 55 hintmask 0011111110000000
381 1069 -107 callgsubr
78 -84 -99 callsubr
hintmask 1001111110000000
30 -941 rmoveto
hintmask 0011111110000000
-57 callsubr
hintmask 0101111110000000
-78 callgsubr
hintmask 1001111110000000
9 -76 8 -75 8 -75 rrcurveto
hintmask 0011111110000000
-84 callsubr
                </CharString>
                <CharString name="Aringacute.sc">
                    -76 callgsubr
66 48 134 47 hstemhm
268 55 155 55 hintmask 0011111110000000
331 963 -107 callgsubr
78 -83 -99 callsubr
hintmask 1001111110000000
20 -836 rmoveto
hintmask 0011111110000000
-77 callgsubr
hintmask 0101111110000000
-98 callgsubr
hintmask 1001111110000000
-48 callsubr
hintmask 0011111110000000
-96 callgsubr
                </CharString>
                <CharString name="Atilde">
                    -51 callgsubr
90 58 60 58 hstemhm
5 657 hintmask 00111111
525 839 -76 callsubr
hintmask 10011111
-41 -842 rmoveto
hintmask 00111111
-57 callsubr
hintmask 01011111
-78 callgsubr
hintmask 10011111
9 -76 8 -75 8 -75 rrcurveto
hintmask 00111111
-84 callsubr
                </CharString>
                <CharString name="Atilde.sc">
                    -76 callgsubr
91 79 callsubr
5 607 hintmask 0011110110000000
475 734 39 callgsubr
hintmask 0011101110000000
-71 callsubr
hhcurveto
hintmask 0011110110000000
-77 callsubr
hintmask 1001101110000000
-51 -737 rmoveto
hintmask 0011101110000000
-77 callgsubr
hintmask 0101101110000000
-98 callgsubr
hintmask 1001101110000000
-48 callsubr
hintmask 0011101110000000
-96 callgsubr
                </CharString>
                <CharString name="B">
                    25 -8 63 -34 -21 320 48 267 61 hstemhm
470 72 -38 71 hintmask 10111000
542 208 rmoveto
74 -61 56 -89 17 vhcurveto
hintmask 01110100
113 33 70 72 86 vvcurveto
103 -112 75 -264 -38 vhcurveto
-133 -686 rlineto
hintmask 10111000
346 -41 130 126 123 vvcurveto
hintmask 10110100
-38 321 rmoveto
-79 -88 -74 -206 -8 vhcurveto
51 264 rlineto
163 17 80 -50 -70 vvcurveto
hintmask 10111000
-34 -330 rmoveto
-86 -99 -79 -220 26 vhcurveto
50 260 rlineto
189 12 80 -58 -75 vvcurveto
endchar
                </CharString>
                <CharString name="B.sc">
                    -58 callgsubr
                </CharString>
                <CharString name="C">
                    38 callgsubr
441 703 -72 callgsubr
                </CharString>
                <CharString name="C.sc">
                    -18 callsubr
381 595 -94 callgsubr
                </CharString>
                <CharString name="Cacute">
                    38 callgsubr
350 812 -107 callgsubr
91 -109 -72 callgsubr
                </CharString>
                <CharString name="Cacute.sc">
                    -18 callsubr
297 708 -107 callgsubr
84 -113 -94 callgsubr
                </CharString>
                <CharString name="Ccaron">
                    38 callgsubr
450 775 -102 callsubr
-8 -72 -72 callgsubr
                </CharString>
                <CharString name="Ccaron.sc">
                    -18 callsubr
397 671 -102 callsubr
-15 -76 -94 callgsubr
                </CharString>
                <CharString name="Ccedilla">
                    54 -169 -21 147 95 -66 66 -53 53 586 65 hstemhm
82 73 167 65 144 70 hintmask 10101111
387 -190 rmoveto
6 88 -16 58 -29 30 55 3 63 12 68 24 6 68 rcurveline
-247 -91 -138 60 200 vvcurveto
182 107 194 162 93 15 -65 -122 -1 vhcurveto
70 1 rlineto
163 5 -36 88 -129 hhcurveto
-198 -161 -220 -236 hvcurveto
hintmask 10011111
-133 57 -85 101 -30 vhcurveto
-34 -22 -32 -48 -29 -76 -50 callgsubr
                </CharString>
                <CharString name="Ccedilla.sc">
                    -61 callgsubr
                </CharString>
                <CharString name="Cdotaccent">
                    54 -14 66 586 65 89.5 144 hstem
82 73 376 70 vstem
484 793 -72 callsubr
32 -89 -72 callgsubr
                </CharString>
                <CharString name="Cdotaccent.sc">
                    -15 -12 62 484 61 71 callsubr
65 73 318 69 vstem
431 689 -72 callsubr
25 -93 -94 callgsubr
                </CharString>
                <CharString name="D">
                    66 callsubr
633 422 -18 callgsubr
                </CharString>
                <CharString name="D.sc">
                    7 callsubr
557 356 -71 callgsubr
                </CharString>
                <CharString name="Dcaron">
                    66 callsubr
422 773 -102 callsubr
212 -351 -18 callgsubr
                </CharString>
                <CharString name="Dcaron.sc">
                    7 callsubr
371 665 -102 callsubr
187 -309 -71 callgsubr
                </CharString>
                <CharString name="Dcroat">
                    -50 callsubr
                </CharString>
                <CharString name="Dcroat.sc">
                    17 -87 callgsubr
                </CharString>
                <CharString name="E">
                    -19 callgsubr
hstem
66 522 vstem
470 65 -89 callgsubr
                </CharString>
                <CharString name="E.sc">
                    -60 callgsubr
hstem
55 460 vstem
416 60 -104 callgsubr
                </CharString>
                <CharString name="Eacute">
                    -19 callgsubr
hstem
66 522 vstem
302 801 -107 callgsubr
168 -736 -89 callgsubr
                </CharString>
                <CharString name="Eacute.sc">
                    -60 callgsubr
hstem
55 473 vstem
255 695 -107 callgsubr
161 -635 -104 callgsubr
                </CharString>
                <CharString name="Ebreve">
                    -19 callgsubr
88 60 hstem
66 559 vstem
583 962 -105 callsubr
-155 -869 -89 callgsubr
                </CharString>
                <CharString name="Ebreve.sc">
                    -60 callgsubr
87 60 hstem
55 523 vstem
536 856 -105 callsubr
-162 -768 -104 callgsubr
                </CharString>
                <CharString name="Ecaron">
                    -19 callgsubr
hstem
66 547 vstem
402 764 -102 callsubr
69 -699 -89 callgsubr
                </CharString>
                <CharString name="Ecaron.sc">
                    -60 callgsubr
hstem
55 511 vstem
355 658 -102 callsubr
62 -598 -104 callgsubr
                </CharString>
                <CharString name="Ecircumflex">
                    -19 callgsubr
hstem
66 522 vstem
535 768 -91 callgsubr
37 -833 -89 callgsubr
                </CharString>
                <CharString name="Ecircumflex.sc">
                    -60 callgsubr
120 59 callgsubr
55 484 hintmask 11110100
488 662 rmoveto
51 41 -139 167 rlineto
-1 hlineto
hintmask 11101100
-211 -163 rlineto
hintmask 11110100
34 -40 164 125 rlineto
30 -732 -104 callgsubr
                </CharString>
                <CharString name="Edieresis">
                    -19 callgsubr
93 -83 callgsubr
66 523 hintmask 11101100
545 784 -79 callsubr
hintmask 11110100
-90 callgsubr
217 -715 -89 callgsubr
                </CharString>
                <CharString name="Edieresis.sc">
                    -60 callgsubr
92 -83 callgsubr
55 487 hintmask 11101100
498 73 callsubr
hintmask 11110100
-90 callgsubr
210 -614 -104 callgsubr
                </CharString>
                <CharString name="Edotaccent">
                    -19 callgsubr
71 callsubr
66 522 vstem
436 782 -72 callsubr
109 -716 -89 callgsubr
                </CharString>
                <CharString name="Edotaccent.sc">
                    -60 callgsubr
23 callgsubr
55 460 vstem
389 676 -72 callsubr
102 -615 -104 callgsubr
                </CharString>
                <CharString name="Egrave">
                    -19 callgsubr
hstem
66 522 vstem
499 792 -98 callsubr
-9 -695 -89 callgsubr
                </CharString>
                <CharString name="Egrave.sc">
                    -60 callgsubr
103 -20 hstem
55 460 vstem
452 686 -98 callsubr
-16 -594 -104 callgsubr
                </CharString>
                <CharString name="Emacron">
                    -19 callgsubr
137 63 hstem
66 528 vstem
594 888 -73 callgsubr
-112 -760 -89 callgsubr
                </CharString>
                <CharString name="Emacron.sc">
                    -60 callgsubr
136 63 hstem
55 492 vstem
547 782 -73 callgsubr
-119 -659 -104 callgsubr
                </CharString>
                <CharString name="Eogonek">
                    -11 -230 54 176 65 255 57 246 65 hstem
192 67 vstem
420 -183 rmoveto
-54 callsubr
18 65 rlineto
-318 hlineto
49 255 rlineto
270 hlineto
12 57 rlineto
-271 hlineto
47 246 rlineto
317 hlineto
12 65 rlineto
-389 hlineto
-133 -688 rlineto
287 hlineto
-113 -55 -48 -55 -49 vvcurveto
-65 19 callsubr
endchar
                </CharString>
                <CharString name="Eogonek.sc">
                    -47 callgsubr
                </CharString>
                <CharString name="Eth">
                    -50 callsubr
                </CharString>
                <CharString name="Eth.sc">
                    14 -87 callgsubr
                </CharString>
                <CharString name="Euro">
                    26 -13 63 163 63 -57 58 113 57 193 63 hstemhm
122 68 357 69 hintmask 10111110
530 38 rmoveto
-10 45 -209 -71 -107 43 -14 164 rlinecurve
245 hlineto
14 58 rlineto
-259 hlineto
1 38 7 38 10 37 rrcurveto
263 hlineto
15 57 rlineto
-258 hlineto
108 44 79 85 94 hhcurveto
77 20 -49 -86 5 hvcurveto
69 9 rlineto
125 -5 -43 64 -104 hhcurveto
-129 -114 -107 -144 -59 hvcurveto
-82 hlineto
-12 -62 rlineto
73 hlineto
hintmask 11011110
-10 -37 -6 -38 -3 -39 rrcurveto
-75 hlineto
-12 -63 rlineto
87 hlineto
hintmask 10111110
12 -198 140 -94 256 117 rrcurveto
endchar
                </CharString>
                <CharString name="F">
                    -27 21 -21 307 57 259 65 hstem
66 525 vstem
470 307 rmoveto
11 57 rlineto
-272 hlineto
50 259 rlineto
320 hlineto
12 65 rlineto
-392 hlineto
-133 -688 rlineto
72 hlineto
60 307 rlineto
endchar
                </CharString>
                <CharString name="F.sc">
                    -12 callsubr
                </CharString>
                <CharString name="G">
                    77 callgsubr
hstem
82 73 387 70 vstem
495 -123 -75 callgsubr
endchar
                </CharString>
                <CharString name="G.sc">
                    -40 callgsubr
                </CharString>
                <CharString name="Gbreve">
                    77 callgsubr
84 60 hstem
82 73 387 70 vstem
639 973 -105 callsubr
-186 -1068 -75 callgsubr
endchar
                </CharString>
                <CharString name="Gbreve.sc">
                    6 callgsubr
88 60 77 callsubr
hintmask 10111100
580 869 -105 callsubr
-187 -944 -92 callsubr
hintmask 01111100
62 callgsubr
                </CharString>
                <CharString name="Gcommaaccent">
                    77 callgsubr
hstem
82 73 79 90 218 70 vstem
495 -123 -75 callgsubr
-240 -241 -101 callgsubr
                </CharString>
                <CharString name="Gcommaaccent.sc">
                    6 callgsubr
hstemhm
65 73 56 90 182 69 hintmask 10111100
-14 callgsubr
hintmask 01111100
-37 callgsubr
-222 -268 -101 callgsubr
                </CharString>
                <CharString name="Gdotaccent">
                    77 callgsubr
89.5 144 hstem
82 73 387 70 vstem
492 793 -72 callsubr
78 -915 -75 callgsubr
endchar
                </CharString>
                <CharString name="Gdotaccent.sc">
                    6 callgsubr
27 callgsubr
77 callsubr
hintmask 10111100
433 689 -72 callsubr
77 -791 -92 callsubr
hintmask 01111100
62 callgsubr
                </CharString>
                <CharString name="H">
                    124 21 -21 320 57 311 -20 hstem
66 619 vstem
479 hmoveto
73 42 callsubr
-72 hlineto
-61 -311 rlineto
-340 hlineto
60 311 rlineto
-73 hlineto
-133 -688 rlineto
73 hlineto
62 320 rlineto
340 hlineto
endchar
                </CharString>
                <CharString name="H.sc">
                    -16 callgsubr
                </CharString>
                <CharString name="Hbar">
                    144 21 -21 306 57 131 58 -55 52 -52 191 hstemhm
77 675 hintmask 11010100
560 363 rmoveto
-340 hlineto
26 134 rlineto
340 hlineto
-96 -497 rmoveto
73 hlineto
hintmask 11100100
95 494 rlineto
83 hlineto
11 58 rlineto
-82 hlineto
hintmask 11001100
26 136 rlineto
-73 hlineto
hintmask 11010100
-27 -139 rlineto
-340 hlineto
hintmask 11001100
27 139 rlineto
-73 hlineto
hintmask 11100100
-26 -136 rlineto
-82 hlineto
-11 -58 rlineto
81 hlineto
-95 -494 rlineto
73 hlineto
59 306 rlineto
340 hlineto
endchar
                </CharString>
                <CharString name="Hbar.sc">
                    -52 callgsubr
                </CharString>
                <CharString name="I">
                    37 callgsubr
hstem
33 507 vstem
269 60 rmoveto
-84 callgsubr
                </CharString>
                <CharString name="I.sc">
                    -26 callgsubr
hstem
25 447 vstem
240 56 -103 callsubr
                </CharString>
                <CharString name="Iacute">
                    37 callgsubr
hstem
33 509 vstem
269 801 -107 callgsubr
-741 vmoveto
-84 callgsubr
                </CharString>
                <CharString name="Iacute.sc">
                    -26 callgsubr
hstem
25 469 vstem
221 695 -107 callgsubr
19 -639 -103 callsubr
                </CharString>
                <CharString name="Ibreve">
                    37 callgsubr
88 60 hstem
33 558 vstem
549 962 -105 callsubr
-322 -874 rmoveto
-84 callgsubr
                </CharString>
                <CharString name="Ibreve.sc">
                    -26 callgsubr
87 60 hstem
25 518 vstem
501 856 -105 callsubr
-303 -772 -103 callsubr
                </CharString>
                <CharString name="Icircumflex">
                    37 callgsubr
hstem
33 520 vstem
502 768 -91 callgsubr
-131 -838 rmoveto
-84 callgsubr
                </CharString>
                <CharString name="Icircumflex.sc">
                    -26 callgsubr
120 59 callgsubr
25 480 hintmask 11101000
454 -65 callsubr
-112 -736 -103 callsubr
                </CharString>
                <CharString name="Idieresis">
                    37 callgsubr
93 -83 callgsubr
33 523 hintmask 11011000
512 784 -79 callsubr
hintmask 11101000
-90 callgsubr
49 -720 rmoveto
-84 callgsubr
                </CharString>
                <CharString name="Idieresis.sc">
                    -26 callgsubr
92 -83 callgsubr
25 482 hintmask 11011000
463 73 callsubr
hintmask 11101000
-90 callgsubr
69 -618 -103 callsubr
                </CharString>
                <CharString name="Idotaccent">
                    37 callgsubr
71 callsubr
33 507 vstem
403 782 -72 callsubr
-59 -721 rmoveto
-84 callgsubr
                </CharString>
                <CharString name="Idotaccent.sc">
                    -26 callgsubr
23 callgsubr
25 447 vstem
355 676 -72 callsubr
-40 -619 -103 callsubr
                </CharString>
                <CharString name="Igrave">
                    37 callgsubr
hstem
33 507 vstem
466 792 -98 callsubr
-177 -700 rmoveto
-84 callgsubr
                </CharString>
                <CharString name="Igrave.sc">
                    -26 callgsubr
103 -20 hstem
25 447 vstem
418 686 -98 callsubr
-158 -598 -103 callsubr
                </CharString>
                <CharString name="Imacron">
                    37 callgsubr
137 63 hstem
33 528 vstem
561 888 -73 callgsubr
-280 -765 rmoveto
-84 callgsubr
                </CharString>
                <CharString name="Imacron.sc">
                    -26 callgsubr
136 63 hstem
25 487 vstem
512 782 -73 callgsubr
-260 -663 -103 callsubr
                </CharString>
                <CharString name="Iogonek">
                    -51 -229 54 175 60 568 60 hstem
74 67 vstem
302 -182 rmoveto
-10 34 rlineto
-104 -45 -47 15 41 vvcurveto
40 39 51 82 46 vhcurveto
147 hlineto
15 60 rlineto
-155 hlineto
110 568 rlineto
149 hlineto
12 60 rlineto
-376 8 callsubr
-110 -568 rlineto
-151 8 callsubr
-76 -53 -37 -56 -47 vvcurveto
-70 83 -39 145 83 vhcurveto
endchar
                </CharString>
                <CharString name="Iogonek.sc">
                    -44 callsubr
                </CharString>
                <CharString name="J">
                    -81 -13 70 571 60 hstem
20 467 vstem
20 -13 rmoveto
177 91 20 43 43 hvcurveto
30 30 14 31 39 200 73 377 rcurveline
-280 hlineto
-13 -60 rlineto
208 hlineto
-64 -330 -29 -153 -11 -34 -21 -21 rlinecurve
-29 -29 -62 -5 -155 1 rrcurveto
endchar
                </CharString>
                <CharString name="J.sc">
                    -29 callgsubr
                </CharString>
                <CharString name="K">
                    33 15 -21 27 -21 27 -21 682 -20 hstemhm
66 591 -6 callsubr
endchar
                </CharString>
                <CharString name="K.sc">
                    26 callsubr
55 527 -64 callsubr
endchar
                </CharString>
                <CharString name="Kcommaaccent">
                    33 15 -21 27 -21 27 -21 682 -20 hstemhm
232 90 -6 callsubr
-87 -981 -101 callgsubr
                </CharString>
                <CharString name="Kcommaaccent.sc">
                    26 callsubr
192 90 -64 callsubr
-97 -875 -101 callgsubr
                </CharString>
                <CharString name="L">
                    64 callgsubr
hstem
66 403 vstem
455 hmoveto
44 callgsubr
                </CharString>
                <CharString name="L.sc">
                    -96 0 61 522 -20 hstem
56 359 vstem
402 hmoveto
-10 callsubr
                </CharString>
                <CharString name="Lacute">
                    64 callgsubr
hstem
66 514 vstem
307 801 -107 callgsubr
148 -801 41 callgsubr
                </CharString>
                <CharString name="Lacute.sc">
                    -21 callgsubr
                </CharString>
                <CharString name="Lcaron">
                    64 callgsubr
110 -20 hstem
483 86 vstem
483 773 -63 callsubr
-114 -778 41 callgsubr
                </CharString>
                <CharString name="Lcaron.sc">
                    -22 callsubr
                </CharString>
                <CharString name="Lcommaaccent">
                    64 callgsubr
hstem
200 90 vstem
455 hmoveto
-28 callsubr
87 -287 -101 callgsubr
                </CharString>
                <CharString name="Lcommaaccent.sc">
                    -96 0 61 522 -20 hstem
163 90 vstem
402 hmoveto
-67 callsubr
60 -287 -101 callgsubr
                </CharString>
                <CharString name="Ldot">
                    -37 0 65 226 108 289 -20 hstem
66 437 vstem
455 hmoveto
-28 callsubr
416 291 rmoveto
21 108 rlineto
-90 hlineto
-21 -108 rlineto
endchar
                </CharString>
                <CharString name="Ldot.sc">
                    -13 callsubr
                </CharString>
                <CharString name="Lslash">
                    64 callgsubr
hstem
44 425 vstem
455 hmoveto
14 65 rlineto
-317 hlineto
57 296 176 85 -2 59 -161 -77 50 260 rlineto
-73 hlineto
-58 -299 -97 -47 2 -59 82 40 -62 -323 rlineto
endchar
                </CharString>
                <CharString name="Lslash.sc">
                    -13 callgsubr
                </CharString>
                <CharString name="M">
                    222 21 -21 66 102 434 86 -86 89 hstemhm
66 718 hintmask 11011000
305 691 rmoveto
-106 -5 -133 -686 rlineto
68 hlineto
hintmask 11101000
111 602 rlineto
6 hlineto
84 -536 rlineto
64 hlineto
294 536 rlineto
5 hlineto
-121 -602 rlineto
73 hlineto
134 688 rlineto
-111 hlineto
-285 -520 rlineto
-3 hlineto
endchar
                </CharString>
                <CharString name="M.sc">
                    -39 callsubr
                </CharString>
                <CharString name="N">
                    57 callsubr
477 hmoveto
-58 callsubr
endchar
                </CharString>
                <CharString name="N.sc">
                    59 0 109 -88 -21 492 92 hstemhm
56 553 -1 callsubr
endchar
                </CharString>
                <CharString name="NUL">
                    -598 endchar
                </CharString>
                <CharString name="Nacute">
                    57 callsubr
362 802 -107 callgsubr
115 -802 rmoveto
-58 callsubr
endchar
                </CharString>
                <CharString name="Nacute.sc">
                    59 callsubr
302 696 -107 callgsubr
114 -696 rmoveto
-80 callsubr
endchar
                </CharString>
                <CharString name="Ncaron">
                    57 callsubr
462 765 -102 callsubr
16 -765 rmoveto
-58 callsubr
endchar
                </CharString>
                <CharString name="Ncaron.sc">
                    -24 callgsubr
hstemhm
56 557 hintmask 01110000
402 659 -102 callsubr
15 -659 rmoveto
-80 callsubr
endchar
                </CharString>
                <CharString name="Ncommaaccent">
                    13 callsubr
hstemhm
255 90 hintmask 01110000
477 hmoveto
-58 callsubr
-46 -881 -101 callgsubr
                </CharString>
                <CharString name="Ncommaaccent.sc">
                    -37 callsubr
                </CharString>
                <CharString name="Ntilde">
                    13 callsubr
90 58 60 58 hstemhm
66 629 hintmask 01111100
558 838 -76 callsubr
-81 -838 rmoveto
82 42 callsubr
-68 hlineto
hintmask 10111100
-108 -571 rlineto
-7 hlineto
-216 573 -94 -4 -133 -686 rlineto
68 hlineto
113 594 rlineto
7 hlineto
endchar
                </CharString>
                <CharString name="Ntilde.sc">
                    -60 callsubr
                </CharString>
                <CharString name="O">
                    -7 callgsubr
439 703 -101 callsubr
                </CharString>
                <CharString name="O.sc">
                    -31 callsubr
hstem
-20 callgsubr
vstem
376 595 -107 callsubr
                </CharString>
                <CharString name="OE">
                    363 0 65 255 57 246 65 hstem
81 73 vstem
154 283 rmoveto
196 134 141 275 3 vhcurveto
-107 -558 rlineto
-180 2 -122 51 165 vvcurveto
689 -218 rmoveto
-315 hlineto
50 255 rlineto
267 hlineto
11 57 rlineto
-267 hlineto
47 246 rlineto
314 hlineto
12 65 rlineto
-339 hlineto
-371 -171 -179 -233 -211 165 -65 224 hvcurveto
356 hlineto
endchar
                </CharString>
                <CharString name="OE.sc">
                    -46 callsubr
                </CharString>
                <CharString name="Oacute">
                    -7 callgsubr
359 813 -107 callgsubr
80 -110 -101 callsubr
                </CharString>
                <CharString name="Oacute.sc">
                    -31 callsubr
hstem
-20 callgsubr
vstem
302 708 -107 callgsubr
74 -113 -107 callsubr
                </CharString>
                <CharString name="Obreve">
                    128 -15 64 590 64 85 60 hstem
82 73 445 73 vstem
640 974 -105 callsubr
-243 -243 -101 callsubr
                </CharString>
                <CharString name="Obreve.sc">
                    -31 callsubr
88 60 hstem
-20 callgsubr
vstem
582 869 -105 callsubr
-248 -246 -107 callsubr
                </CharString>
                <CharString name="Ocircumflex">
                    -7 callgsubr
592 780 -91 callgsubr
-51 -207 -101 callsubr
                </CharString>
                <CharString name="Ocircumflex.sc">
                    -31 callsubr
121 -20 hstem
-20 callgsubr
vstem
535 675 -91 callgsubr
-57 -210 -107 callsubr
                </CharString>
                <CharString name="Odieresis">
                    128 -15 64 590 64 90 -83 callgsubr
82 73 445 73 hintmask 11011100
602 796 -79 callsubr
hintmask 11101100
-90 callgsubr
129 -89 -101 callsubr
                </CharString>
                <CharString name="Odieresis.sc">
                    -31 callsubr
93 67 callgsubr
73 375 73 hintmask 11011100
545 691 -79 callsubr
hintmask 11101100
-90 callgsubr
123 -92 -107 callsubr
                </CharString>
                <CharString name="Ograve">
                    -7 callgsubr
557 804 -98 callsubr
-98 -69 -101 callsubr
                </CharString>
                <CharString name="Ograve.sc">
                    -31 callsubr
104 -20 hstem
-20 callgsubr
vstem
499 699 -98 callsubr
-103 -72 -107 callsubr
                </CharString>
                <CharString name="Ohungarumlaut">
                    -7 callgsubr
332 781 -83 callsubr
4 callgsubr
-72 -104 -101 callsubr
                </CharString>
                <CharString name="Ohungarumlaut.sc">
                    -31 callsubr
107 -20 21 -20 36 callsubr
hintmask 11011100
274 676 -83 callsubr
hintmask 11101100
4 callgsubr
-77 -107 -107 callsubr
                </CharString>
                <CharString name="Omacron">
                    128 -15 64 590 64 134 63 hstem
82 73 445 73 vstem
651 900 -73 callgsubr
-200 -134 -101 callsubr
                </CharString>
                <CharString name="Omacron.sc">
                    -31 callsubr
137 63 hstem
-20 callgsubr
vstem
593 795 -73 callgsubr
-205 -137 -107 callsubr
                </CharString>
                <CharString name="Omega">
                    116 0 65 -39 -21 629 68 hstemhm
139 64 370 69 hintmask 01111000
254 5 rmoveto
-35 123 -16 120 90 vvcurveto
204 96 92 114 95 65 -63 -109 -112 -75 -159 -140 -186 vhcurveto
3 -5 rlineto
hintmask 10111000
227 hlineto
12 65 rlineto
-145 hlineto
115 149 72 147 121 vvcurveto
137 -89 83 -130 -152 -132 -114 -225 -91 20 -107 31 -100 vhcurveto
-145 hlineto
-12 -65 rlineto
218 hlineto
endchar
                </CharString>
                <CharString name="Oslash">
                    45 callgsubr
154 273 -61 callsubr
                </CharString>
                <CharString name="Oslash.sc">
                    -17 callgsubr
138 232 -94 callsubr
                </CharString>
                <CharString name="Oslashacute">
                    45 callgsubr
360 818 -107 callgsubr
-206 -545 -61 callsubr
                </CharString>
                <CharString name="Oslashacute.sc">
                    -17 callgsubr
294 710 -107 callgsubr
-156 -478 -94 callsubr
                </CharString>
                <CharString name="Otilde">
                    128 -15 64 590 64 88 58 60 58 hstem
82 73 445 73 vstem
556 849 -76 callsubr
-117 -146 -101 callsubr
                </CharString>
                <CharString name="Otilde.sc">
                    -31 callsubr
91 58 -26 -20 106 58 36 callsubr
hintmask 11101110
498 744 39 callgsubr
hintmask 11011110
-71 callsubr
hhcurveto
hintmask 11101110
-77 callsubr
hintmask 11011110
-122 -149 -107 callsubr
                </CharString>
                <CharString name="P">
                    7 21 -21 632 62 hstem
519 72 vstem
139 hmoveto
44 229 rlineto
256 24 152 102 155 vvcurveto
126 -113 87 -279 -38 vhcurveto
-133 -685 rlineto
453 498 rmoveto
-119 -113 -79 -209 vhcurveto
63 328 rlineto
179 19 80 -58 -91 vvcurveto
endchar
                </CharString>
                <CharString name="P.sc">
                    -26 callsubr
                </CharString>
                <CharString name="Q">
                    93 15 -21 647 62 hstem
95 73 408 74 vstem
526 -150 rmoveto
29 65 -262 107 rlineto
208 96 149 168 183 vvcurveto
134 -82 100 -148 -244 -170 -276 -302 139 vhcurveto
61 26 rlineto
294 -103 120 196 177 hhcurveto
111 65 -70 -112 -171 -154 -163 -217 -80 hvcurveto
-19 -51 rlineto
endchar
                </CharString>
                <CharString name="Q.sc">
                    -39 callgsubr
                </CharString>
                <CharString name="R">
                    26 callgsubr
514 73 hintmask 10011000
478 -7 -59 callgsubr
                </CharString>
                <CharString name="R.sc">
                    -25 callgsubr
447 73 hintmask 10011000
416 -6 -86 callgsubr
                </CharString>
                <CharString name="R_p">
                    482 -174 -21 183 59 -38 -21 26 -21 28 -21 487 65 -10 -20 111 62 hstemhm
478 73 406 69 hintmask 1001010111000000
429 -7 rmoveto
hintmask 1010010111000000
39 callsubr
hintmask 1000110111000000
20 callsubr
hintmask 1100010111000000
508 -260 rmoveto
-29 -41 8 13 -43 hvcurveto
26 130 25 131 9 51 rrcurveto
57 52 70 50 49 hhcurveto
45 35 -41 -91 -154 -87 -154 -111 hvcurveto
-163 -236 rmoveto
hintmask 1000110111000000
10 49 13 68 14 72 rrcurveto
hintmask 1100010111000000
-7 34 32 -5 28 hhcurveto
175 124 185 199 122 -57 58 -65 -58 -73 -51 -61 -58 hvcurveto
hintmask 1100001111000000
6 38 7 46 3 18 -69 68 callsubr
                </CharString>
                <CharString name="Racute">
                    26 callgsubr
514 73 hintmask 00111000
310 808 -107 callgsubr
hintmask 10011000
168 -815 -59 callgsubr
                </CharString>
                <CharString name="Racute.sc">
                    -25 callgsubr
447 73 hintmask 00111000
261 701 -107 callgsubr
hintmask 10011000
155 -707 -86 callgsubr
                </CharString>
                <CharString name="Rcaron">
                    26 callgsubr
514 73 hintmask 00111000
410 771 -102 callsubr
hintmask 10011000
69 -778 -59 callgsubr
                </CharString>
                <CharString name="Rcaron.sc">
                    -25 callgsubr
447 73 hintmask 00111000
361 664 -102 callsubr
hintmask 10011000
56 -670 -86 callgsubr
                </CharString>
                <CharString name="Rcommaaccent">
                    26 callgsubr
234 90 190 73 hintmask 10011100
478 -7 rmoveto
hintmask 00111100
79 13 -194 290 rlineto
139 65 85 73 102 vvcurveto
109 -108 77 -280 -35 vhcurveto
hintmask 01011100
-133 -687 rlineto
73 hlineto
122 629 rlineto
170 17 83 -43 -80 vvcurveto
-82 -70 -57 -170 -75 vhcurveto
-1 -2 rlineto
-86 -601 -101 callgsubr
                </CharString>
                <CharString name="Rcommaaccent.sc">
                    -51 callsubr
                </CharString>
                <CharString name="S">
                    32 callsubr
535 516 -74 callsubr
endchar
                </CharString>
                <CharString name="S.sc">
                    -36 callgsubr
467 434 -88 callgsubr
                </CharString>
                <CharString name="Sacute">
                    32 callsubr
292 812 -107 callgsubr
243 -296 -74 callsubr
endchar
                </CharString>
                <CharString name="Sacute.sc">
                    -36 callgsubr
240 706 -107 callgsubr
227 -272 -88 callgsubr
                </CharString>
                <CharString name="Scaron">
                    32 callsubr
392 775 -102 callsubr
144 -259 -74 callsubr
endchar
                </CharString>
                <CharString name="Scaron.sc">
                    -36 callgsubr
340 669 -102 callsubr
128 -235 -88 callgsubr
                </CharString>
                <CharString name="Scedilla">
                    -21 -168 -21 147 97 -61 61 -40 -21 645 62 hstemhm
141 73 49 65 79 73 hintmask 11001111
263 -190 rmoveto
65 1 rlineto
hintmask 10101111
7 95 -20 60 -33 28 rrcurveto
138 16 60 73 76 148 -266 72 134 vvcurveto
66 54 60 75 72 40 -44 -94 13 vhcurveto
67 15 rlineto
119 -15 -51 66 -105 hhcurveto
-126 -97 -98 -103 hvcurveto
-162 266 -70 -120 vvcurveto
-73 -88 -61 -267 75 vhcurveto
hintmask 10011101
-17 -73 rlineto
hintmask 10101101
50 -12 46 -7 41 -3 -31 -24 -28 -46 -27 -70 -50 callgsubr
                </CharString>
                <CharString name="Scedilla.sc">
                    -65 callgsubr
                </CharString>
                <CharString name="Scommaaccent">
                    -21 -9 64 584 62 hstemhm
141 73 -45 90 148 73 hintmask 11101000
535 516 -74 callsubr
hintmask 11011000
-346 -795 -101 callgsubr
                </CharString>
                <CharString name="Scommaaccent.sc">
                    -55 callsubr
                </CharString>
                <CharString name="T">
                    85 callgsubr
118 509 vstem
403 624 -5 callsubr
endchar
                </CharString>
                <CharString name="T.sc">
                    -63 21 -21 522 61 hstem
96 451 vstem
352 522 35 callsubr
                </CharString>
                <CharString name="Tcaron">
                    85 callgsubr
118 509 vstem
392 764 -102 callsubr
12 -140 -5 callsubr
endchar
                </CharString>
                <CharString name="Tcaron.sc">
                    -24 callsubr
                </CharString>
                <CharString name="Tcommaaccent">
                    85 callgsubr
186 90 vstem
403 624 -5 callsubr
-143 -287 -101 callgsubr
                </CharString>
                <CharString name="Tcommaaccent.sc">
                    -63 21 -21 522 61 hstem
156 90 vstem
352 522 -52 callsubr
-142 -287 -101 callgsubr
                </CharString>
                <CharString name="Thorn">
                    6 0 186 334 59 -59 167 hstemhm
498 72 hintmask 11010000
140 hmoveto
22 116 rlineto
256 24 152 102 154 vvcurveto
115 -92 82 -226 -14 vhcurveto
hintmask 10110000
21 108 rlineto
-73 hlineto
-133 -687 rlineto
hintmask 11010000
431 384 rmoveto
-118 -113 -80 -209 vhcurveto
64 331 rlineto
178 18 80 -59 -92 vvcurveto
endchar
                </CharString>
                <CharString name="Thorn.sc">
                    -36 callsubr
                </CharString>
                <CharString name="U">
                    14 callgsubr
186 288 -95 callgsubr
                </CharString>
                <CharString name="U.sc">
                    -23 callsubr
89 callsubr
167 244 -106 callsubr
                </CharString>
                <CharString name="Uacute">
                    14 callgsubr
349 801 -107 callgsubr
-163 -513 -95 callgsubr
                </CharString>
                <CharString name="Uacute.sc">
                    -23 callsubr
89 callsubr
296 695 -107 callgsubr
-129 -451 -106 callsubr
                </CharString>
                <CharString name="Ubreve">
                    105 -14 64 638 -20 108 60 hstem
105 72 vstem
629 962 -105 callsubr
-485 -646 -95 callgsubr
                </CharString>
                <CharString name="Ubreve.sc">
                    -23 callsubr
107 60 89 callsubr
576 856 -105 callsubr
-451 -584 -106 callsubr
                </CharString>
                <CharString name="Ucircumflex">
                    14 callgsubr
582 768 -91 callgsubr
-294 -610 -95 callgsubr
                </CharString>
                <CharString name="Ucircumflex.sc">
                    -23 callsubr
140 59 callgsubr
88 71 hintmask 11101000
529 -65 callsubr
-260 -548 -106 callsubr
                </CharString>
                <CharString name="Udieresis">
                    105 -14 64 638 -20 113 -83 callgsubr
105 72 hintmask 11011000
592 784 -79 callsubr
hintmask 11101000
-90 callgsubr
-114 -492 -95 callgsubr
                </CharString>
                <CharString name="Udieresis.sc">
                    -23 callsubr
112 -83 callgsubr
88 71 hintmask 11011000
539 73 callsubr
hintmask 11101000
-90 callgsubr
-80 -430 -106 callsubr
                </CharString>
                <CharString name="Ugrave">
                    14 callgsubr
546 792 -98 callsubr
-340 -472 -95 callgsubr
                </CharString>
                <CharString name="Ugrave.sc">
                    -23 callsubr
123 -20 89 callsubr
493 686 -98 callsubr
-306 -410 -106 callsubr
                </CharString>
                <CharString name="Uhungarumlaut">
                    14 callgsubr
321 769 -83 callsubr
4 callgsubr
-314 -507 -95 callgsubr
                </CharString>
                <CharString name="Uhungarumlaut.sc">
                    -23 callsubr
126 -20 21 -20 hstemhm
88 71 hintmask 11011000
268 663 -83 callsubr
hintmask 11101000
4 callgsubr
-280 -445 -106 callsubr
                </CharString>
                <CharString name="Umacron">
                    105 -14 64 638 -20 157 63 hstem
105 72 vstem
640 888 -73 callgsubr
-442 -537 -95 callgsubr
                </CharString>
                <CharString name="Umacron.sc">
                    -23 callsubr
156 63 89 callsubr
587 782 -73 callgsubr
-408 -475 -106 callsubr
                </CharString>
                <CharString name="Uogonek">
                    105 -229 54 162 63 638 -20 hstemhm
105 72 -6 67 hintmask 11101000
399 11 callgsubr
-42 19 37 vvcurveto
44 60 41 99 47 vhcurveto
36 18 35 17 28 29 44 44 31 59 17 86 86 441 rcurveline
-73 hlineto
-85 -441 rlineto
-141 -28 -68 -56 -100 hhcurveto
hintmask 11110000
-99 -71 54 184 36 hvcurveto
78 400 rlineto
-73 hlineto
-76 -392 -45 -231 107 -77 131 -1 rlinecurve
hintmask 11101000
-98 -54 -39 -46 -45 vvcurveto
-65 79 -44 149 85 vhcurveto
endchar
                </CharString>
                <CharString name="Uogonek.sc">
                    -53 callgsubr
                </CharString>
                <CharString name="Uring">
                    105 -14 64 638 -20 86 48 134 47 hstem
105 72 161 55 155 55 vstem
479 983 -99 callsubr
-288 -648 -95 callgsubr
                </CharString>
                <CharString name="Uring.sc">
                    -23 callsubr
85 48 134 47 hstem
88 71 126 55 155 55 vstem
426 877 -99 callsubr
-254 -586 -106 callsubr
                </CharString>
                <CharString name="V">
                    31 0 67 621 -20 23 -20 hstemhm
128 535 hintmask 10110000
313 hmoveto
hintmask 11010000
122 229 119 231 109 228 rrcurveto
-73 hlineto
-98 -207 -105 -206 -110 -208 rrcurveto
-10 hlineto
hintmask 10110000
-26 208 -23 210 -17 206 -73 -6 rcurveline
20 -229 26 -227 32 -229 rrcurveto
endchar
                </CharString>
                <CharString name="V.sc">
                    -31 callgsubr
                </CharString>
                <CharString name="W">
                    19 callgsubr
479 hmoveto
-86 callsubr
                </CharString>
                <CharString name="W.sc">
                    37 callsubr
hstem
95 68 vstem
420 hmoveto
-104 callsubr
                </CharString>
                <CharString name="Wacute">
                    19 callgsubr
388 801 -107 callgsubr
91 -801 rmoveto
-86 callsubr
                </CharString>
                <CharString name="Wacute.sc">
                    37 callsubr
hstem
95 68 vstem
328 695 -107 callgsubr
92 -695 rmoveto
-104 callsubr
                </CharString>
                <CharString name="Wcircumflex">
                    19 callgsubr
621 768 -91 callgsubr
-40 -898 rmoveto
-86 callsubr
                </CharString>
                <CharString name="Wcircumflex.sc">
                    37 callsubr
140 59 callgsubr
95 68 hintmask 11101000
561 -65 callsubr
-39 -792 rmoveto
-104 callsubr
                </CharString>
                <CharString name="Wdieresis">
                    178 0 90 598 -20 113 -83 callgsubr
108 69 hintmask 11011000
631 784 -79 callsubr
hintmask 11101000
-90 callgsubr
140 -780 rmoveto
-86 callsubr
                </CharString>
                <CharString name="Wdieresis.sc">
                    37 callsubr
112 -83 callgsubr
95 68 hintmask 11011000
571 73 callsubr
hintmask 11101000
-90 callgsubr
141 -674 rmoveto
-104 callsubr
                </CharString>
                <CharString name="Wgrave">
                    19 callgsubr
585 792 -98 callsubr
-86 -760 rmoveto
-86 callsubr
                </CharString>
                <CharString name="Wgrave.sc">
                    37 callsubr
123 -20 hstem
95 68 vstem
525 686 -98 callsubr
-85 -654 rmoveto
-104 callsubr
                </CharString>
                <CharString name="X">
                    50 18 -21 24 -21 24 -21 682 7 -4 59 callgsubr
8 668 hintmask 10000110
465 -3 rmoveto
hintmask 00101010
77 6 -159 338 293 347 rlineto
-83 hlineto
-239 -291 rlineto
hintmask 00100110
-137 295 rlineto
hintmask 01010010
-77 -7 160 -339 -292 -346 rlineto
82 hlineto
239 290 rlineto
endchar
                </CharString>
                <CharString name="X.sc">
                    -33 callsubr
                </CharString>
                <CharString name="Y">
                    2 callgsubr
299 hmoveto
-54 callgsubr
                </CharString>
                <CharString name="Y.sc">
                    6 callsubr
hstemhm
106 487 hintmask 10110000
270 hmoveto
38 191 rlineto
hintmask 11010000
-56 callgsubr
hintmask 10110000
-59 callsubr
                </CharString>
                <CharString name="Yacute">
                    2 callgsubr
313 803 -107 callgsubr
-14 -803 rmoveto
-54 callgsubr
                </CharString>
                <CharString name="Yacute.sc">
                    6 callsubr
hstemhm
106 487 hintmask 10110000
263 697 -107 callgsubr
7 -697 rmoveto
38 191 rlineto
hintmask 11010000
-56 callgsubr
hintmask 10110000
-59 callsubr
                </CharString>
                <CharString name="Ycircumflex">
                    2 callgsubr
546 770 -91 callgsubr
-145 -900 rmoveto
-54 callgsubr
                </CharString>
                <CharString name="Ycircumflex.sc">
                    -42 callsubr
                </CharString>
                <CharString name="Ydieresis">
                    32 21 -21 688 -20 22 -20 113 -83 callgsubr
124 546 hintmask 10101100
556 786 -79 callsubr
hintmask 11010100
-90 callgsubr
35 -782 rmoveto
44 227 327 461 rlineto
-79 hlineto
-267 -388 rlineto
-2 hlineto
hintmask 10101100
-123 390 -75 -4 148 -450 -46 -236 rlineto
endchar
                </CharString>
                <CharString name="Ydieresis.sc">
                    6 callsubr
112 -83 callgsubr
106 487 hintmask 10101100
506 680 -79 callsubr
hintmask 11010100
-90 callgsubr
56 -676 rmoveto
38 191 -56 callgsubr
hintmask 10101100
-59 callsubr
                </CharString>
                <CharString name="Ygrave">
                    2 callgsubr
510 794 -98 callsubr
-191 -762 rmoveto
-54 callgsubr
                </CharString>
                <CharString name="Ygrave.sc">
                    6 callsubr
123 -20 hstemhm
106 487 hintmask 10111000
460 688 -98 callsubr
-170 -656 rmoveto
38 191 rlineto
hintmask 11011000
-56 callgsubr
hintmask 10111000
-59 callsubr
                </CharString>
                <CharString name="Z">
                    47 callsubr
483 hmoveto
-38 callgsubr
                </CharString>
                <CharString name="Z.sc">
                    23 callsubr
513 vstem
425 hmoveto
-75 callsubr
                </CharString>
                <CharString name="Zacute">
                    47 callsubr
299 801 -107 callgsubr
184 -801 rmoveto
-38 callgsubr
                </CharString>
                <CharString name="Zacute.sc">
                    23 callsubr
513 vstem
245 695 -107 callgsubr
180 -695 rmoveto
-75 callsubr
                </CharString>
                <CharString name="Zcaron">
                    47 callsubr
399 764 -102 callsubr
85 -764 rmoveto
-38 callgsubr
                </CharString>
                <CharString name="Zcaron.sc">
                    23 callsubr
534 vstem
345 658 -102 callsubr
81 -658 rmoveto
-75 callsubr
                </CharString>
                <CharString name="Zdotaccent">
                    13 0 65 558 65 71 callsubr
29 583 vstem
433 782 -72 callsubr
125 -781 rmoveto
-38 callgsubr
                </CharString>
                <CharString name="Zdotaccent.sc">
                    -49 0 61 461 61 23 callgsubr
22 513 vstem
379 676 -72 callsubr
121 -675 rmoveto
-75 callsubr
                </CharString>
                <CharString name="a">
                    -33 callgsubr
42 callgsubr
hintmask 10101100
206 56 -85 callsubr
                </CharString>
                <CharString name="a.sc">
                    -76 callgsubr
hstemhm
5 491 hintmask 10011100
424 -3 rmoveto
hintmask 00111100
-77 callgsubr
hintmask 01011100
-98 callgsubr
hintmask 10011100
-48 callsubr
hintmask 00111100
-96 callgsubr
                </CharString>
                <CharString name="aacute">
                    -33 callgsubr
42 callgsubr
hintmask 01101100
284 659 -107 callgsubr
hintmask 10101100
-78 -603 -85 callsubr
                </CharString>
                <CharString name="aacute.sc">
                    -76 callgsubr
hstemhm
5 547 hintmask 00111100
279 698 -107 callgsubr
hintmask 10011100
145 -701 rmoveto
hintmask 00111100
-77 callgsubr
hintmask 01011100
-98 callgsubr
hintmask 10011100
-48 callsubr
hintmask 00111100
-96 callgsubr
                </CharString>
                <CharString name="abreve">
                    -33 callgsubr
104 60 42 callgsubr
hintmask 01101110
565 820 -105 callsubr
hintmask 10101110
-401 -736 -85 callgsubr
hintmask 01011110
-69 callsubr
hintmask 10101110
-78 callsubr
hintmask 01011110
-35 callsubr
                </CharString>
                <CharString name="abreve.sc">
                    -76 callgsubr
88 60 hstemhm
5 597 hintmask 00111110
560 859 -105 callsubr
hintmask 10011110
-178 -834 rmoveto
hintmask 00111110
-77 callgsubr
hintmask 01011110
-98 callgsubr
hintmask 10011110
-48 callsubr
hintmask 00111110
-96 callgsubr
                </CharString>
                <CharString name="acircumflex">
                    -33 callgsubr
42 callgsubr
hintmask 01101100
517 626 -91 callgsubr
hintmask 10101100
-209 -700 -85 callsubr
                </CharString>
                <CharString name="acircumflex.sc">
                    -76 callgsubr
121 59 callgsubr
5 558 hintmask 00111101
512 665 rmoveto
51 41 -139 167 rlineto
-1 hlineto
hintmask 00111011
-211 -163 rlineto
hintmask 10011101
34 -40 164 125 rlineto
14 -798 rmoveto
hintmask 00111011
-77 callgsubr
hintmask 01011011
-98 callgsubr
hintmask 10011101
-48 callsubr
hintmask 00111011
-96 callgsubr
                </CharString>
                <CharString name="acute">
                    -27 779 -20 hstem
179 273 vstem
179 652 -107 callgsubr
endchar
                </CharString>
                <CharString name="acute.cap">
                    -27 779 -20 hstem
179 273 vstem
179 652 -107 callgsubr
endchar
                </CharString>
                <CharString name="adieresis">
                    -33 callgsubr
109 143 -140.5 144.5 42 callgsubr
hintmask 01100111
527 642 -79 callsubr
hintmask 10101011
-90 callgsubr
-29 -582 -85 callgsubr
hintmask 01011011
-69 callsubr
hintmask 10101011
-78 callsubr
hintmask 01011011
-35 callsubr
                </CharString>
                <CharString name="adieresis.sc">
                    -76 callgsubr
93 -83 callgsubr
5 561 hintmask 00111011
522 681 -79 callsubr
hintmask 10011101
-90 callgsubr
194 -680 rmoveto
hintmask 00111011
-77 callgsubr
hintmask 01011011
-98 callgsubr
hintmask 10011101
-48 callsubr
hintmask 00111011
-96 callgsubr
                </CharString>
                <CharString name="ae">
                    43 callsubr
hintmask 10101110
677 490 -68 callsubr
                </CharString>
                <CharString name="ae.sc">
                    -6 callgsubr
476 522 -80 callgsubr
                </CharString>
                <CharString name="aeacute">
                    43 callsubr
hintmask 01010110
455 665 -107 callgsubr
hintmask 10101110
222 -175 -68 callsubr
                </CharString>
                <CharString name="aeacute.sc">
                    -6 callgsubr
483 695 -107 callgsubr
-7 -173 -80 callgsubr
                </CharString>
                <CharString name="agrave">
                    -33 callgsubr
42 callgsubr
hintmask 01101100
481 650 -98 callsubr
hintmask 10101100
-255 -562 -85 callsubr
                </CharString>
                <CharString name="agrave.sc">
                    -76 callgsubr
104 -20 hstemhm
5 491 hintmask 00111110
476 689 -98 callsubr
hintmask 10011110
-32 -660 rmoveto
hintmask 00111110
-77 callgsubr
hintmask 01011110
-98 callgsubr
hintmask 10011110
-48 callsubr
hintmask 00111110
-96 callgsubr
                </CharString>
                <CharString name="amacron">
                    -33 callgsubr
153 63 42 callgsubr
hintmask 01101110
576 746 -73 callgsubr
hintmask 10101110
-358 -627 -85 callgsubr
hintmask 01011110
-69 callsubr
hintmask 10101110
-78 callsubr
hintmask 01011110
-35 callsubr
                </CharString>
                <CharString name="amacron.sc">
                    -76 callgsubr
137 63 hstemhm
5 566 hintmask 00111110
571 785 -73 callgsubr
hintmask 10011110
-135 -725 rmoveto
hintmask 00111110
-77 callgsubr
hintmask 01011110
-98 callgsubr
hintmask 10011110
-48 callsubr
hintmask 00111110
-96 callgsubr
                </CharString>
                <CharString name="ampersand">
                    73 -10 66 -56 -21 732 -20 hstemhm
30 70 185 63 hintmask 01111000
581 -21 rmoveto
52 52 -61 53 -52 52 -42 52 rlinecurve
48 55 47 67 46 78 -66 22 rcurveline
-36 -68 -38 -58 -37 -48 -52 75 -32 76 -10 79 rrcurveto
68 66 39 71 52 vvcurveto
37 -21 19 -29 -51 -69 -100 -119 vhcurveto
-2 0 -2 -2 vvcurveto
-151 -124 -104 -123 -116 vvcurveto
hintmask 10110000
-83 50 -50 86 79 91 50 96 95 vhcurveto
hintmask 01111000
42 -53 50 -53 58 -51 rrcurveto
hintmask 10110000
-396 77 rmoveto
-51 -34 29 52 85 83 101 108 98 hvcurveto
14 -80 36 -81 55 -78 rrcurveto
-86 -79 -75 -40 -57 hhcurveto
endchar
                </CharString>
                <CharString name="ampersand.sc">
                    3 -10 61 -49 -21 hstemhm
26 69 150 159 hintmask 01110000
507 -19 rmoveto
53 46 -53 45 -45 43 -37 44 rlinecurve
41 47 41 57 41 66 -64 21 rcurveline
-31 -57 -31 -49 -32 -40 -44 61 -28 61 -10 64 rrcurveto
61 57 35 60 46 vvcurveto
33 -20 17 -29 -48 -62 -81 -101 vhcurveto
-4 0 -4 -5 vvcurveto
-132 -103 -87 -104 -96 vvcurveto
hintmask 10100000
-72 47 -43 75 71 79 41 79 82 vhcurveto
hintmask 01110000
36 -43 43 -43 48 -43 rrcurveto
hintmask 10100000
-339 70 rmoveto
-43 -30 23 46 67 67 82 91 80 hvcurveto
14 -65 32 -66 47 -65 rrcurveto
-69 -66 -63 -33 -49 hhcurveto
endchar
                </CharString>
                <CharString name="aogonek">
                    16 -229 54 163 68 -55 54 -33 -21 488 61 0 -20 hstemhm
60 70 168 67 18 68 hintmask 1010101110000000
526 -182 rmoveto
-27 callgsubr
45 57 61 153 72 vhcurveto
-11 37 rlineto
hintmask 1010011010000000
-117 -44 -6 19 17 82 77 394 rcurveline
hintmask 1100101010000000
-78 callsubr
hintmask 1001101010000000
-8 -60 11 -36 40 -7 rrcurveto
hintmask 1100101110000000
-91 -59 -37 -53 -48 vvcurveto
hintmask 1010101110000000
-64 19 callsubr
hintmask 1100101010000000
-320 238 -85 callgsubr
endchar
                </CharString>
                <CharString name="aogonek.sc">
                    -64 callgsubr
                </CharString>
                <CharString name="approxequal">
                    26 126 62 52 62 44 62 53 62 hstem
63 518 vstem
443 346 rmoveto
60 36 52 111 42 hvcurveto
-48 19 rlineto
-68 -28 -27 -52 -33 -56 -48 115 -87 hhcurveto
-62 -41 -51 -100 -41 hvcurveto
48 -19 rlineto
61 29 26 47 35 56 51 -115 88 hhcurveto
-46 -220 rmoveto
60 35 47 99 41 hvcurveto
-48 19 rlineto
-58 -27 -25 -45 -34 -54 -49 114 -88 hhcurveto
-61 -43 -56 -111 -41 hvcurveto
47 -19 rlineto
71 31 27 53 34 58 51 -114 86 hhcurveto
endchar
                </CharString>
                <CharString name="aring">
                    22 callgsubr
414 841 -99 callsubr
hintmask 1010111111000000
-203 -738 -85 callgsubr
hintmask 0101111111000000
-69 callsubr
hintmask 1010111111000000
-78 callsubr
hintmask 0101111111000000
-35 callsubr
                </CharString>
                <CharString name="aring.sc">
                    -76 callgsubr
66 48 134 47 hstemhm
268 55 155 55 hintmask 0011111110000000
409 880 -99 callsubr
hintmask 1001111110000000
20 -836 rmoveto
hintmask 0011111110000000
-77 callgsubr
hintmask 0101111110000000
-98 callgsubr
hintmask 1001111110000000
-48 callsubr
hintmask 0011111110000000
-96 callgsubr
                </CharString>
                <CharString name="aringacute">
                    22 callgsubr
335 925 -107 callgsubr
79 -84 -99 callsubr
hintmask 1010111111000000
-203 -738 -85 callgsubr
hintmask 0101111111000000
-69 callsubr
hintmask 1010111111000000
-78 callsubr
hintmask 0101111111000000
-35 callsubr
                </CharString>
                <CharString name="aringacute.sc">
                    -76 callgsubr
66 48 134 47 hstemhm
268 55 155 55 hintmask 0011111110000000
331 963 -107 callgsubr
78 -83 -99 callsubr
hintmask 1001111110000000
20 -836 rmoveto
hintmask 0011111110000000
-77 callgsubr
hintmask 0101111110000000
-98 callgsubr
hintmask 1001111110000000
-48 callsubr
hintmask 0011111110000000
-96 callgsubr
                </CharString>
                <CharString name="arrow.1_E">
                    106 302 61 hstem
64 610 vstem
309 46 rmoveto
365 288 -365 287 -41 -54 280 -206 -149 2 rlineto
-335 -61 335 hlineto
148 2 -279 -204 rlineto
endchar
                </CharString>
                <CharString name="arrow.1_N">
                    106 21 -21 691 -20 hstem
331 65 vstem
396 402 rmoveto
-3 159 195 -279 53 41 -276 368 -279 -368 53 -40 195 279 -3 -161 rlineto
-401 65 vlineto
endchar
                </CharString>
                <CharString name="arrow.1_S">
                    106 18 -21 691 -20 hstem
331 64 vstem
362 -3 rmoveto
279 369 -53 40 -196 -279 3 160 rlineto
401 -64 -402 vlineto
3 -159 -196 279 -52 -40 rlineto
endchar
                </CharString>
                <CharString name="arrow.1_W">
                    106 302 61 hstem
53 610 vstem
458 98 rmoveto
-279 206 149 -2 rlineto
335 61 -336 hlineto
-149 -2 281 204 -42 54 -364 -287 364 -289 rlineto
endchar
                </CharString>
                <CharString name="asciicircum">
                    26 545 -20 hstem
63 494 vstem
495 178 rmoveto
62 40 -196 327 -18 -2 -280 -326 48 -42 229 269 rlineto
endchar
                </CharString>
                <CharString name="asciitilde">
                    26 222 69 95 69 hstem
51 551 vstem
424 222 rmoveto
64 56 70 134 58 hvcurveto
-51 20 rlineto
-88 -39 -43 -67 -37 -60 -46 164 -94 hhcurveto
-65 -59 -73 -131 -57 hvcurveto
51 -20 rlineto
89 38 42 66 38 61 49 -164 94 hhcurveto
endchar
                </CharString>
                <CharString name="asterisk">
                    -12 300 461 hstem
129 444 vstem
397 300 rmoveto
41 17 -39 170 174 27 -2 44 -175 17 28 174 -44 12 -71 -163 -155 81 -25 -37 133 -117 -124 -123 28 -34 150 88 rlineto
endchar
                </CharString>
                <CharString name="asterisk.alt">
                    1 295 471 hstem
109 470 vstem
384 607 rmoveto
53 142 -71 17 -21 -151 rlineto
-47 -11 rmoveto
-96 116 -50 -53 119 -93 rlineto
159 -41 rmoveto
149 26 -22 70 -140 -57 rlineto
-159 -44 rmoveto
-149 -26 21 -70 141 57 rlineto
119 -32 rmoveto
97 -116 50 54 -120 93 rlineto
-113 -34 rmoveto
-53 -142 72 -17 20 151 rlineto
endchar
                </CharString>
                <CharString name="at">
                    223 -172 61 171 66 343 60 169 59 hstem
83 66 189 69 298 65 vstem
603 -148 rmoveto
8 62 rlineto
-343 -80 -119 118 224 vvcurveto
276 179 246 225 121 44 -60 -118 -16 vhcurveto
6 -32 -27 3 -28 hhcurveto
-164 -113 -152 -165 -99 46 -53 61 57 74 48 56 57 hvcurveto
-12 -92 65 -2 7 60 9 69 12 56 rlinecurve
46 227 rlineto
177 35 -57 98 -165 hhcurveto
-275 -215 -284 -305 -251 146 -151 374 86 hvcurveto
-130 274 rmoveto
-38 -28 33 69 124 76 117 98 28 39 -6 -11 41 hvcurveto
-46 -228 rlineto
-52 -50 -72 -46 -48 hhcurveto
endchar
                </CharString>
                <CharString name="atilde">
                    -33 callgsubr
107 58 60 58 42 callgsubr
hintmask 01101111
480 695 -76 callsubr
hintmask 10101111
-274 -639 -85 callgsubr
hintmask 01011111
-69 callsubr
hintmask 10101111
-78 callsubr
hintmask 01011111
-35 callsubr
                </CharString>
                <CharString name="atilde.sc">
                    -76 callgsubr
91 79 callsubr
5 607 hintmask 0011110110000000
475 734 39 callgsubr
hintmask 0011101110000000
-71 callsubr
hhcurveto
hintmask 0011110110000000
-77 callsubr
hintmask 1001101110000000
-51 -737 rmoveto
hintmask 0011101110000000
-77 callgsubr
hintmask 0101101110000000
-98 callgsubr
hintmask 1001101110000000
-48 callsubr
hintmask 0011101110000000
-96 callgsubr
                </CharString>
                <CharString name="b">
                    10 -11 59 438 66 228 -20 hstem
477 69 vstem
219 -11 rmoveto
193 134 185 198 120 -53 60 -69 -62 -78 -51 -63 -63 hvcurveto
66 342 -71 -6 -147 -760 rlineto
-15 51 56 -10 43 hhcurveto
48 59 rmoveto
-30 -42 7 13 -46 hvcurveto
59 305 rlineto
60 56 77 53 54 69 callsubr
endchar
                </CharString>
                <CharString name="b.sc">
                    -58 callgsubr
                </CharString>
                <CharString name="backslash">
                    -107 -202 993 hstem
88 330 vstem
147 791 rmoveto
-59 -18 271 -975 59 17 rlineto
endchar
                </CharString>
                <CharString name="backslash.tab">
                    26 -177 -21 hstem
149 375 vstem
149 774 rmoveto
313 -972 62 15 -314 973 rlineto
endchar
                </CharString>
                <CharString name="bar">
                    -233 778 -20 hstem
60 256 vstem
250 54 callsubr
                </CharString>
                <CharString name="bar.tab">
                    -152 778 -20 hstem
99 256 vstem
289 54 callsubr
                </CharString>
                <CharString name="braceleft">
                    -105 -230 1028 hstemhm
80 71 34 66 -45 69 -25 67 hintmask 11100000
332 -230 -48 callgsubr
                </CharString>
                <CharString name="braceleft.cap">
                    -102 -174 1028 hstemhm
85 71 34 66 -45 69 -25 67 hintmask 11100000
337 -174 -48 callgsubr
                </CharString>
                <CharString name="braceright">
                    -105 -229 1028 hstemhm
182 66 -24 68 -45 67 34 71 hintmask 10011000
-26 -229 -43 callsubr
                </CharString>
                <CharString name="braceright.cap">
                    -107 -174 1028 hstemhm
184 66 -24 68 -45 67 34 71 hintmask 10011000
-24 -174 -43 callsubr
                </CharString>
                <CharString name="bracketleft">
                    -117 -198 60 844 60 hstem
23 498 vstem
23 -198 31 callsubr
                </CharString>
                <CharString name="bracketleft.cap">
                    -117 -144 60 844 60 hstem
34 498 vstem
34 -144 31 callsubr
                </CharString>
                <CharString name="bracketright">
                    -117 -196 60 843 60 hstem
-34 498 vstem
464 767 30 callsubr
                </CharString>
                <CharString name="bracketright.cap">
                    -117 -143 60 843 60 hstem
-24 498 vstem
474 820 30 callsubr
                </CharString>
                <CharString name="breve">
                    -27 627 60 hstem
120 375 vstem
453 813 -105 callsubr
endchar
                </CharString>
                <CharString name="breve.cap">
                    -27 627 60 hstem
120 375 vstem
453 813 -105 callsubr
endchar
                </CharString>
                <CharString name="bullet">
                    -67 194 267 hstem
153 250 vstem
403 343 rmoveto
69 -47 49 -67 -71 -65 -60 -87 -69 49 -51 64 71 66 61 88 vhcurveto
endchar
                </CharString>
                <CharString name="bullet.alt">
                    -54 217 226 hstem
148 267 vstem
370 217 rmoveto
45 226 rlineto
-222 hlineto
-45 -226 rlineto
endchar
                </CharString>
                <CharString name="c">
                    78 callsubr
63 callgsubr
491 377 -70 callsubr
                </CharString>
                <CharString name="c.sc">
                    -18 callsubr
381 595 -94 callgsubr
                </CharString>
                <CharString name="cacute">
                    78 callsubr
63 callgsubr
275 661 -107 callgsubr
216 -284 -70 callsubr
                </CharString>
                <CharString name="cacute.sc">
                    -18 callsubr
297 708 -107 callgsubr
84 -113 -94 callgsubr
                </CharString>
                <CharString name="caron">
                    -9 callsubr
                </CharString>
                <CharString name="caron.alt">
                    -27 612 278 hstem
308 86 vstem
308 885 -63 callsubr
endchar
                </CharString>
                <CharString name="caron.alt.cap">
                    -27 612 278 hstem
308 86 vstem
308 885 -63 callsubr
endchar
                </CharString>
                <CharString name="caron.cap">
                    -9 callsubr
                </CharString>
                <CharString name="ccaron">
                    78 callsubr
150 -20 63 callgsubr
375 624 -102 callsubr
117 -247 -70 callsubr
                </CharString>
                <CharString name="ccaron.sc">
                    -18 callsubr
397 671 -102 callsubr
-15 -76 -94 callgsubr
                </CharString>
                <CharString name="ccedilla">
                    -63 -169 -21 147 95 -61 61 -54 54 437 63 hstemhm
65 70 124 65 101 66 hintmask 10101111
324 -190 rmoveto
7 93 -19 58 -31 30 49 6 58 20 65 35 -10 38 rcurveline
-214 -79 -94 48 142 vvcurveto
153 98 135 114 56 23 -32 -81 -1 vhcurveto
66 1 rlineto
123 8 -41 52 -91 hhcurveto
-158 -144 -174 -190 hvcurveto
hintmask 10011111
-93 38 -71 74 -26 vhcurveto
-35 -22 -31 -47 -29 -76 -50 callgsubr
                </CharString>
                <CharString name="ccedilla.sc">
                    -61 callgsubr
                </CharString>
                <CharString name="cdotaccent">
                    78 callsubr
89.5 144 63 callgsubr
409 642 -72 callsubr
157 -264 -70 callsubr
                </CharString>
                <CharString name="cdotaccent.sc">
                    -15 -12 62 484 61 71 callsubr
65 73 318 69 vstem
431 689 -72 callsubr
25 -93 -94 callgsubr
                </CharString>
                <CharString name="cedilla">
                    -9 callgsubr
                </CharString>
                <CharString name="cedilla.cap">
                    -9 callgsubr
                </CharString>
                <CharString name="cent">
                    26 36 65 360 71 156 -20 hstem
95 68 vstem
163 284 rmoveto
80 45 71 151 22 vhcurveto
-74 -322 rlineto
-90 34 -32 53 62 vvcurveto
312 -248 rmoveto
13 65 -59 3 -48 6 -41 9 rlinecurve
78 343 38 3 44 -1 49 -3 rlinecurve
13 71 -45 3 -42 0 -37 -3 rlinecurve
36 156 rlineto
-69 hlineto
-35 -163 rlineto
-200 -34 -75 -114 -109 vvcurveto
-88 54 -71 116 -39 vhcurveto
-39 -165 rlineto
69 hlineto
33 148 42 -9 49 -6 56 -2 rlinecurve
endchar
                </CharString>
                <CharString name="check.1">
                    29 -21 99 -78 -21 728 -20 hstemhm
97 550 hintmask 01110000
647 707 rmoveto
-69 36 rlineto
hintmask 10110000
-132 -199 -115 -226 -93 -240 rrcurveto
-4 hlineto
-69 320 -68 -23 96 -396 61 -2 rlineto
hintmask 01110000
109 270 133 242 151 218 rrcurveto
endchar
                </CharString>
                <CharString name="check.2">
                    29 15 -21 25 -21 29 -21 702 -20 hstemhm
44 583 hintmask 10011000
345 -6 rmoveto
hintmask 00111000
71 12 -94 293 305 409 -67 38 -262 -380 -60 195 -70 -21 78 -235 rlineto
hintmask 01011000
-202 -282 45 -25 180 242 rlineto
endchar
                </CharString>
                <CharString name="circumflex">
                    -27 619 208 hstem
115 351 vstem
415 619 -91 callgsubr
endchar
                </CharString>
                <CharString name="circumflex.cap">
                    -27 619 208 hstem
115 351 vstem
415 619 -91 callgsubr
endchar
                </CharString>
                <CharString name="colon">
                    -265 0 84 callgsubr
66 205 vstem
250 427 -11 callsubr
                </CharString>
                <CharString name="colon.alt">
                    -265 68 84 callgsubr
77 205 vstem
261 495 -11 callsubr
                </CharString>
                <CharString name="colon.tab">
                    -152 0 84 callgsubr
106 205 vstem
290 427 -11 callsubr
                </CharString>
                <CharString name="colonmonetary">
                    26 26 61 511 65 hstem
86 65 vstem
354 113 rmoveto
-31 8 -28 9 -23 11 118 425 rcurveline
28 8 32 6 35 5 rrcurveto
-334 -272 rmoveto
97 47 85 133 52 vhcurveto
-105 -381 rlineto
-52 36 -23 48 63 vvcurveto
146 -395 rmoveto
60 hlineto
33 120 27 -5 30 -4 31 -3 rlinecurve
27 61 -37 4 -33 5 -31 6 rlinecurve
136 490 30 3 32 2 34 1 rlinecurve
6 65 -28 -1 -26 -2 -26 -2 rlinecurve
31 111 rlineto
-60 hlineto
-32 -118 -33 -5 -31 -6 -29 -8 rlinecurve
38 137 rlineto
-60 hlineto
-42 -156 rlineto
-189 -65 -69 -121 -126 vvcurveto
-87 37 -67 79 -47 vhcurveto
-52 -182 rlineto
60 hlineto
44 157 24 -10 27 -9 30 -7 rlinecurve
endchar
                </CharString>
                <CharString name="comma">
                    -255 -174 -21 hstem
98 99 vstem
9 32 callgsubr
                </CharString>
                <CharString name="comma.tab">
                    -152 -174 -21 hstem
145 99 vstem
56 32 callgsubr
                </CharString>
                <CharString name="commaaccent">
                    -27 -301 223 hstem
242 90 vstem
195 -287 -101 callgsubr
                </CharString>
                <CharString name="commaaccent.cap">
                    -27 -301 223 hstem
242 90 vstem
195 -287 -101 callgsubr
                </CharString>
                <CharString name="commaaccent.rot">
                    -27 621 224 hstem
234 91 vstem
371 830 46 callgsubr
endchar
                </CharString>
                <CharString name="copyright">
                    326 -34 51 130 53 287 51 134 51 hstem
84 56 173 60 183 55 183 55 vstem
508 723 rmoveto
-226 -198 -167 -252 -218 149 -120 197 226 193 162 252 219 -147 124 -194 hvcurveto
-2 -51 rmoveto
163 125 -105 -193 -217 -168 -140 -194 -166 -126 100 193 218 171 144 195 hvcurveto
4 -134 rmoveto
-110 -87 -120 -123 -130 101 -51 159 55 hvcurveto
5 54 rlineto
-138 -49 -67 29 101 vvcurveto
87 52 96 78 50 4 -43 -63 -1 vhcurveto
55 hlineto
95 8 -23 62 -86 hhcurveto
endchar
                </CharString>
                <CharString name="d">
                    46 callsubr
hintmask 01101110
215 55 -14 callsubr
368 -14 rmoveto
-12 37 -116 -44 -6 18 16 86 rlinecurve
125 642 -71 -6 rlineto
hintmask 01011110
-44 -230 rlineto
hintmask 10101110
7 callgsubr
79 50 62 64 hvcurveto
hintmask 01101110
81 callsubr
                </CharString>
                <CharString name="d.sc">
                    7 callsubr
557 356 -71 callgsubr
                </CharString>
                <CharString name="dagger">
                    -73 551 -20 64 -20 hstem
115 410 vstem
255 139 rmoveto
92 388 162 -17 16 60 -165 17 37 179 -69 7 -36 -178 -162 17 -15 -61 165 -17 -82 -407 10 -9 rlineto
endchar
                </CharString>
                <CharString name="daggerdbl">
                    -72 552 -20 63 -20 hstem
66 459 vstem
244 84 rmoveto
52 223 162 -17 15 60 -163 18 37 159 162 -17 16 60 -165 18 37 178 -69 7 -36 -178 -162 17 -16 -60 166 -18 -32 -160 -167 18 -15 -60 170 -18 -49 -242 10 -9 rlineto
endchar
                </CharString>
                <CharString name="dcaron">
                    46 callsubr
231 86 hintmask 01101111
690 885 -63 callsubr
-561 -835 -14 callsubr
368 -14 rmoveto
-12 37 -116 -44 -6 18 16 86 rlinecurve
125 642 -71 -6 rlineto
hintmask 01011111
-44 -230 rlineto
hintmask 10101111
7 callgsubr
79 50 62 64 hvcurveto
hintmask 01101111
81 callsubr
                </CharString>
                <CharString name="dcaron.sc">
                    7 callsubr
371 665 -102 callsubr
187 -309 -71 callgsubr
                </CharString>
                <CharString name="dcroat">
                    25 -12 67 -65 65 437 60 -8 -20 121 52 -52 135 hstemhm
62 70 258 69 hintmask 01101011
215 55 -14 callsubr
370 -14 rmoveto
-11 37 -119 -44 -6 18 16 86 rlinecurve
99 507 rlineto
80 hlineto
11 52 rlineto
-81 hlineto
hintmask 01100111
16 83 -71 -6 rlineto
hintmask 01011011
-15 -77 rlineto
-152 hlineto
-10 -52 rlineto
152 hlineto
-19 -101 rlineto
hintmask 10101011
7 callgsubr
80 50 62 63 hvcurveto
hintmask 01101011
-13 -108 49 -44 159 93 rrcurveto
endchar
                </CharString>
                <CharString name="dcroat.sc">
                    17 -87 callgsubr
                </CharString>
                <CharString name="degree">
                    26 356 57 277 56 hstem
173 61 259 60 vstem
383 746 rmoveto
-109 -101 -86 -128 -107 72 -69 99 108 101 85 129 106 -71 70 -99 hvcurveto
-31 -333 rmoveto
-73 -45 53 72 90 62 62 78 73 46 -54 -72 -90 -63 -61 -78 hvcurveto
endchar
                </CharString>
                <CharString name="dieresis">
                    -15 callgsubr
                </CharString>
                <CharString name="dieresis.cap">
                    -15 callgsubr
                </CharString>
                <CharString name="divide">
                    26 79 95 117 63 117 96 hstem
79 486 vstem
393 471 rmoveto
19 96 rlineto
-87 hlineto
-20 -96 rlineto
260 -117 rmoveto
-474 hlineto
-12 -63 rlineto
473 hlineto
-233 -212 rmoveto
18 95 rlineto
-87 hlineto
-19 -95 rlineto
endchar
                </CharString>
                <CharString name="dollar">
                    29 27 60 -57 62 686 -20 hstemhm
156 68 215 68 hintmask 10111000
224 532 rmoveto
40 43 33 112 -7 vhcurveto
-59 -198 rlineto
-53 48 -43 44 40 vvcurveto
215 -374 rmoveto
-41 -48 -34 -112 4 vhcurveto
61 205 rlineto
54 -49 45 -45 -40 vvcurveto
68 3 rmoveto
68 -72 68 -71 64 vhcurveto
71 230 39 -6 46 -9 52 -15 rlinecurve
13 69 -46 11 -42 8 -38 4 rlinecurve
41 125 rlineto
-68 hlineto
-36 -120 rlineto
-175 7 -65 -69 -70 vvcurveto
-67 70 -66 70 -62 vhcurveto
hintmask 01111000
-73 -239 -45 5 -52 10 -60 16 rlinecurve
-17 -70 57 -12 50 -8 45 -3 rlinecurve
-36 -120 67 -1 rlineto
hintmask 10111000
31 118 rlineto
177 -1 67 68 67 vvcurveto
endchar
                </CharString>
                <CharString name="dotaccent">
                    10 callsubr
                </CharString>
                <CharString name="dotaccent.cap">
                    10 callsubr
                </CharString>
                <CharString name="dotlessi">
                    38 callsubr
57 callgsubr
380 45 -90 callsubr
                </CharString>
                <CharString name="dotlessi.sc">
                    -26 callgsubr
hstem
25 447 vstem
240 56 -103 callsubr
                </CharString>
                <CharString name="e">
                    27 callsubr
15 callgsubr
470 61 -103 callgsubr
                </CharString>
                <CharString name="e.sc">
                    -60 callgsubr
hstem
55 460 vstem
416 60 -104 callgsubr
                </CharString>
                <CharString name="eacute">
                    27 callsubr
15 callgsubr
277 662 -107 callgsubr
193 -601 -103 callgsubr
                </CharString>
                <CharString name="eacute.sc">
                    -60 callgsubr
hstem
55 473 vstem
255 695 -107 callgsubr
161 -635 -104 callgsubr
                </CharString>
                <CharString name="ebreve">
                    27 callsubr
85 60 15 callgsubr
558 823 -105 callsubr
-130 -734 -103 callgsubr
                </CharString>
                <CharString name="ebreve.sc">
                    -60 callgsubr
87 60 hstem
55 523 vstem
536 856 -105 callsubr
-162 -768 -104 callgsubr
                </CharString>
                <CharString name="ecaron">
                    27 callsubr
151 -20 15 callgsubr
377 625 -102 callsubr
94 -564 -103 callgsubr
                </CharString>
                <CharString name="ecaron.sc">
                    -60 callgsubr
hstem
55 511 vstem
355 658 -102 callsubr
62 -598 -104 callgsubr
                </CharString>
                <CharString name="ecircumflex">
                    27 callsubr
15 callgsubr
510 629 -91 callgsubr
62 -698 -103 callgsubr
                </CharString>
                <CharString name="ecircumflex.sc">
                    -60 callgsubr
120 59 callgsubr
55 484 hintmask 11110100
488 662 rmoveto
51 41 -139 167 rlineto
-1 hlineto
hintmask 11101100
-211 -163 rlineto
hintmask 11110100
34 -40 164 125 rlineto
30 -732 -104 callgsubr
                </CharString>
                <CharString name="edieresis">
                    27 callsubr
90 -83 callgsubr
64 69 300 69 hintmask 11011100
520 645 -79 callsubr
hintmask 11101100
-90 callgsubr
242 -580 -103 callgsubr
                </CharString>
                <CharString name="edieresis.sc">
                    -60 callgsubr
92 -83 callgsubr
55 487 hintmask 11101100
498 73 callsubr
hintmask 11110100
-90 callgsubr
210 -614 -104 callgsubr
                </CharString>
                <CharString name="edotaccent">
                    27 callsubr
90.5 144 15 callgsubr
411 643 -72 callsubr
134 -581 -103 callgsubr
                </CharString>
                <CharString name="edotaccent.sc">
                    -60 callgsubr
23 callgsubr
55 460 vstem
389 676 -72 callsubr
102 -615 -104 callgsubr
                </CharString>
                <CharString name="egrave">
                    27 callsubr
15 callgsubr
474 653 -98 callsubr
16 -560 -103 callgsubr
                </CharString>
                <CharString name="egrave.sc">
                    -60 callgsubr
103 -20 hstem
55 460 vstem
452 686 -98 callsubr
-16 -594 -104 callgsubr
                </CharString>
                <CharString name="eight">
                    26 -13 61 499 -20 110 63 -7 7 hstemhm
65 72 25 70 204 67 hintmask 11100110
503 164 rmoveto
72 -69 68 -68 64 vhcurveto
60 37 77 43 96 51 -29 48 rcurveline
-99 -54 -80 -47 -65 -40 rrcurveto
-52 49 -42 47 45 vvcurveto
62 66 56 205 -43 vhcurveto
hintmask 11010110
16 71 rlineto
hintmask 11100110
-229 34 -128 -90 -103 vvcurveto
-59 47 -55 56 -53 vhcurveto
hintmask 11101110
-165 -109 -35 -60 -65 vvcurveto
-87 82 -59 117 vhcurveto
hintmask 11100110
137 102 81 96 hvcurveto
-220 -116 rmoveto
hintmask 11101110
-82 -64 37 65 42 22 44 145 94 hvcurveto
67 -60 65 -58 -57 vvcurveto
hintmask 11100110
-59 -63 -48 -90 vhcurveto
endchar
                </CharString>
                <CharString name="eight.den">
                    -11 50 355 53 hstemhm
-2 -27 callsubr
hintmask 11011000
296 106 -105 callgsubr
hintmask 11101000
-68 callgsubr
hintmask 11011000
9 callsubr
hintmask 11101000
-150 -67 -92 callgsubr
                </CharString>
                <CharString name="eight.den_afrc">
                    -28 11 callsubr
52 callsubr
hintmask 11101100
361 -127 -105 callgsubr
hintmask 11110100
-68 callgsubr
hintmask 11101100
9 callsubr
hintmask 11110100
-150 -67 -92 callgsubr
                </CharString>
                <CharString name="eight.den_afrc2">
                    392 11 callsubr
hstemhm
273 -27 callsubr
hintmask 11101100
571 -127 -105 callgsubr
hintmask 11110100
-68 callgsubr
hintmask 11101100
9 callsubr
hintmask 11110100
-150 -67 -92 callgsubr
                </CharString>
                <CharString name="eight.inf">
                    -96 -178 50 355 53 hstemhm
43 -27 callsubr
hintmask 11011000
341 -61 -105 callgsubr
hintmask 11101000
-68 callgsubr
hintmask 11011000
9 callsubr
hintmask 11101000
-150 -67 -92 callgsubr
                </CharString>
                <CharString name="eight.num">
                    239 50 355 53 -6 -20 hstemhm
115 -27 callsubr
hintmask 11001100
413 356 rmoveto
46 -43 43 -44 39 vhcurveto
38 22 48 25 60 29 -21 36 rcurveline
-64 -31 -52 -28 -42 -24 rrcurveto
-32 30 -26 27 26 vvcurveto
36 42 30 131 -30 vhcurveto
hintmask 10101100
18 59 rlineto
hintmask 11001100
-161 26 -87 -60 -68 vvcurveto
-38 30 -34 35 -33 vhcurveto
hintmask 11010100
-68 callgsubr
hintmask 11001100
9 callsubr
hintmask 11010100
-150 -67 -92 callgsubr
                </CharString>
                <CharString name="eight.num_afrc">
                    -28 80 callgsubr
183 -27 callsubr
hintmask 11110110
481 578 -105 callgsubr
hintmask 11111010
-68 callgsubr
hintmask 11110110
9 callsubr
hintmask 11111010
-150 -67 -92 callgsubr
                </CharString>
                <CharString name="eight.num_afrc2">
                    392 80 callgsubr
392 -27 callsubr
hintmask 11110110
690 578 -105 callgsubr
hintmask 11111010
-68 callgsubr
hintmask 11110110
9 callsubr
hintmask 11111010
-150 -67 -92 callgsubr
                </CharString>
                <CharString name="eight.small">
                    -11 50 355 53 hstemhm
32 -27 callsubr
hintmask 11011000
330 106 -105 callgsubr
hintmask 11101000
-68 callgsubr
hintmask 11011000
9 callsubr
hintmask 11101000
-150 -67 -92 callgsubr
                </CharString>
                <CharString name="eight.sup">
                    -96 350 50 195 -20 132 -20 68 53 hstemhm
127 -27 callsubr
hintmask 11110110
425 467 -105 callgsubr
hintmask 11111010
-68 callgsubr
hintmask 11110110
9 callsubr
hintmask 11111010
-150 -67 -92 callgsubr
                </CharString>
                <CharString name="ellipsis">
                    370 0 112 hstem
72 757 vstem
808 hmoveto
21 112 rlineto
-101 hlineto
-21 -112 rlineto
-216 hmoveto
21 112 rlineto
-102 hlineto
-20 -112 rlineto
-216 hmoveto
20 -21 callsubr
                </CharString>
                <CharString name="emacron">
                    27 callsubr
134 63 15 callgsubr
569 749 -73 callgsubr
-87 -625 -103 callgsubr
                </CharString>
                <CharString name="emacron.sc">
                    -60 callgsubr
136 63 hstem
55 492 vstem
547 782 -73 callgsubr
-119 -659 -104 callgsubr
                </CharString>
                <CharString name="emdash">
                    239 295 56 hstem
83 687 vstem
770 351 rmoveto
-677 hlineto
-10 -56 rlineto
677 hlineto
endchar
                </CharString>
                <CharString name="emspace">
                    402 endchar
                </CharString>
                <CharString name="endash">
                    -18 295 56 hstem
83 430 vstem
513 351 rmoveto
-420 hlineto
-10 -56 rlineto
420 hlineto
endchar
                </CharString>
                <CharString name="endash.tab">
                    26 295 56 hstem
86 472 vstem
558 351 rmoveto
-462 hlineto
-10 -56 rlineto
462 hlineto
endchar
                </CharString>
                <CharString name="enspace">
                    -98 endchar
                </CharString>
                <CharString name="eogonek">
                    -49 -229 54 164 64 437 62 hstem
64 69 44 67 189 69 vstem
405 -182 rmoveto
-27 callgsubr
50 62 60 164 88 vhcurveto
-9 37 rlineto
-231 -87 -97 42 141 3 0 4 3 vvcurveto
230 18 139 77 129 vvcurveto
76 -50 48 -86 -169 -133 -192 -177 -113 60 -81 114 19 20 3 5 22 vhcurveto
-85 -56 -37 -52 -48 vvcurveto
-64 79 -44 149 85 vhcurveto
-57 672 rmoveto
54 31 -31 -47 -94 -119 -53 -177 -15 hvcurveto
123 20 80 117 111 hhcurveto
endchar
                </CharString>
                <CharString name="eogonek.sc">
                    -47 callgsubr
                </CharString>
                <CharString name="equal">
                    73 callgsubr
571 480 55 callgsubr
-34 -182 55 callgsubr
endchar
                </CharString>
                <CharString name="eth">
                    -3 -12 60 400 59 207 -20 hstem
65 71 326 69 vstem
257 -12 rmoveto
157 117 147 206 105 -30 96 -65 92 hvcurveto
107 31 -12 49 -128 -37 -32 38 -38 37 -45 37 rlinecurve
-50 -46 37 -29 31 -29 27 -29 rlinecurve
-141 -41 14 -49 162 48 30 -39 22 -39 15 -41 rlinecurve
9 -31 -30 3 -27 hhcurveto
-154 -128 -142 -167 -126 75 -84 117 hvcurveto
18 60 rmoveto
-84 -55 65 102 122 76 111 109 32 50 -8 -23 52 hvcurveto
5 -26 2 -28 -28 vvcurveto
-165 -73 -122 -114 vhcurveto
endchar
                </CharString>
                <CharString name="eth.sc">
                    14 -87 callgsubr
                </CharString>
                <CharString name="exclam">
                    -231 0 107 hstem
75 251 vstem
203 254 rmoveto
24 109 72 271 27 115 rrcurveto
-94 hlineto
-20 -115 -34 -271 -22 -109 rrcurveto
21 -254 rmoveto
21 107 rlineto
-101 hlineto
-22 -107 rlineto
endchar
                </CharString>
                <CharString name="exclamdown">
                    -231 581 107 hstem
68 250 vstem
217 81 callgsubr
-128 -253 rmoveto
-24 -110 -71 -271 -27 -115 rrcurveto
93 hlineto
21 115 34 271 21 110 rrcurveto
endchar
                </CharString>
                <CharString name="f">
                    -37 24 callgsubr
1 rmoveto
82 -41 98 -127 111 vhcurveto
263 -3 11 58 -306 -22 callgsubr
118 vhcurveto
-149 -139 rmoveto
-58 -45 53 132 70 11 76 18 74 hvcurveto
125 -104 45 -92 -86 vvcurveto
-75 -41 -48 -55 vhcurveto
endchar
                </CharString>
                <CharString name="f.lig">
                    -62 24 callgsubr
-1 rmoveto
83 -43 100 -123 110 vhcurveto
237 -3 11 58 -282 -22 callgsubr
116 vhcurveto
-149 -137 rmoveto
-58 -45 53 132 70 11 75 17 73 hvcurveto
122 -103 49 -92 -85 vvcurveto
-75 -41 -48 -55 vhcurveto
endchar
                </CharString>
                <CharString name="f.sc">
                    -12 callsubr
                </CharString>
                <CharString name="figurespace">
                    -48 endchar
                </CharString>
                <CharString name="five">
                    26 -4 69 -44 -21 624 64 hstemhm
458 68 hintmask 10110000
526 214 rmoveto
83 -69 81 -225 45 vhcurveto
48 201 rlineto
293 hlineto
19 64 rlineto
-363 hlineto
-76 -314 rlineto
231 -40 74 -63 -69 vvcurveto
-79 -85 -82 -299 30 vhcurveto
hintmask 01110000
-10 -71 rlineto
hintmask 10110000
336 -29 126 129 114 vvcurveto
endchar
                </CharString>
                <CharString name="five.den">
                    -1 53 333 53 hstem
249 59 vstem
308 138 -106 callgsubr
endchar
                </CharString>
                <CharString name="five.den_afrc">
                    56 callsubr
hstem
314 59 vstem
373 -95 -106 callgsubr
endchar
                </CharString>
                <CharString name="five.den_afrc2">
                    392 41 callsubr
hstem
524 59 vstem
583 -95 -106 callgsubr
endchar
                </CharString>
                <CharString name="five.inf">
                    -96 -168 53 333 53 hstem
294 59 vstem
353 -29 -106 callgsubr
endchar
                </CharString>
                <CharString name="five.num">
                    249 53 333 53 hstem
366 59 vstem
425 388 -106 callgsubr
endchar
                </CharString>
                <CharString name="five.num_afrc">
                    -28 471 49 callgsubr
hstem
434 59 vstem
-15 callsubr
endchar
                </CharString>
                <CharString name="five.num_afrc2">
                    392 471 49 callgsubr
hstem
643 59 vstem
702 -12 callgsubr
endchar
                </CharString>
                <CharString name="five.small">
                    -1 53 333 53 hstem
283 59 vstem
342 138 -106 callgsubr
endchar
                </CharString>
                <CharString name="five.sup">
                    -96 360 49 callgsubr
hstem
378 59 vstem
437 499 -106 callgsubr
endchar
                </CharString>
                <CharString name="fiveeighths">
                    78 callgsubr
260 53 92 53 188 53 18 -20 hstemhm
366 59 265 -27 callsubr
hintmask 1001101011000000
313 -22 rmoveto
hintmask 0101011011000000
-56 callsubr
hintmask 1001101011000000
714 97 -105 callgsubr
hintmask 1001101101000000
-68 callgsubr
hintmask 1001101011000000
9 callsubr
hintmask 1011101101000000
-563 282 -106 callgsubr
413 -349 -92 callgsubr
                </CharString>
                <CharString name="fiveeighths.afrc">
                    -28 11 callsubr
99 51 107 49 callgsubr
52 callsubr
73 59 hintmask 1111111011100000
-15 callsubr
-424 -297 -62 callsubr
282 -491 -105 callgsubr
hintmask 1111111101100000
-68 callgsubr
hintmask 1111111011100000
9 callsubr
hintmask 1111111101100000
-150 -67 -92 callgsubr
                </CharString>
                <CharString name="fivesixths">
                    528 -10 49 -28 -21 231 44 -16 53 333 53 18 -20 hstemhm
366 59 276 66 callgsubr
hintmask 1010101110000000
316 -22 rmoveto
hintmask 0110011110000000
-56 callsubr
hintmask 1010101110000000
571 -19 rmoveto
92 72 63 94 117 -132 43 -111 -90 hvcurveto
22 69 64 73 153 40 -13 53 rcurveline
-217 -62 -77 -130 -117 vvcurveto
-104 64 -49 83 vhcurveto
hintmask 1001101110000000
-423 398 -106 callgsubr
432 -349 29 callgsubr
hvcurveto
hintmask 1010101110000000
28 callsubr
vhcurveto
4 callsubr
hintmask 1001101110000000
1 callsubr
                </CharString>
                <CharString name="fivesixths.afrc">
                    -28 -243 86 callgsubr
281 51 107 49 callgsubr
hstem
74 66 callgsubr
49 59 vstem
-15 callsubr
-424 -297 -62 callsubr
142 -607 -102 callgsubr
                </CharString>
                <CharString name="four">
                    26 0 213.5 -63.5 63.5 477.5 -20 25 -20 hstemhm
63 500 hintmask 01011000
542 150 rmoveto
21 63 rlineto
-88 hlineto
49 251 -69 -6 -47 -245 -273 1 rlineto
hintmask 01101000
90 135 67 122 70 220 rrcurveto
hintmask 01011000
-77 5 -65 -214 -62 -130 -93 -154 rlinecurve
-2 -48 rlineto
333 hlineto
hintmask 10011000
-29 -150 rlineto
66 hlineto
hintmask 01011000
29 150 rlineto
endchar
                </CharString>
                <CharString name="four.den">
                    -2 callgsubr
hstemhm
-4 339 hintmask 01100000
320 92 -99 callgsubr
hintmask 10100000
17 callsubr
hintmask 01100000
18 92 rlineto
endchar
                </CharString>
                <CharString name="four.den_afrc">
                    71 callgsubr
hstem
61 339 vstem
385 -141 -88 callsubr
                </CharString>
                <CharString name="four.den_afrc2">
                    392 -141 53 callgsubr
271 339 vstem
595 -141 -88 callsubr
                </CharString>
                <CharString name="four.inf">
                    -96 -75 53 callgsubr
41 339 vstem
365 -75 -88 callsubr
                </CharString>
                <CharString name="four.num">
                    342 17 callgsubr
152.5 -20 163 -20 23 -20 hstemhm
113 339 hintmask 11011000
437 342 rmoveto
15 52 rlineto
-57 hlineto
29 153 -56 -6 -29 -147 -161 1 rlineto
hintmask 11101000
54 83 41 77 45 135 rrcurveto
hintmask 11011000
34 callsubr
endchar
                </CharString>
                <CharString name="four.num_afrc">
                    -28 564 53 callgsubr
181 339 -16 callsubr
endchar
                </CharString>
                <CharString name="four.num_afrc2">
                    392 564 53 callgsubr
390 339 vstem
714 564 -88 callsubr
                </CharString>
                <CharString name="four.small">
                    -2 callgsubr
hstemhm
30 339 hintmask 01100000
354 92 -99 callgsubr
hintmask 10100000
17 callsubr
hintmask 01100000
18 92 rlineto
endchar
                </CharString>
                <CharString name="four.sup">
                    -96 453 53 callgsubr
125 339 vstem
449 453 -88 callsubr
                </CharString>
                <CharString name="fourfifths">
                    528 -1 53 290 17 callgsubr
-9.5 53 109 -20 163 -20 23 -20 33 -20 hstemhm
941 59 hintmask 10110011
317 -22 rmoveto
hintmask 10110101
50 callsubr
rlineto
hintmask 11010011
-40 31 -565 -697 rlineto
159 333 rmoveto
15 52 rlineto
-57 hlineto
29 153 -56 -6 -29 -147 -161 1 rlineto
hintmask 10111001
54 83 41 77 45 135 rrcurveto
hintmask 11010101
34 callsubr
615 -204 rmoveto
54 -46 50 -148 28 vhcurveto
hintmask 10110011
28 115 rlineto
192 hlineto
16 53 rlineto
-251 hlineto
-50 -208 rlineto
150 -23 50 -36 -40 vvcurveto
-45 -56 -47 -192 17 vhcurveto
-8 -57 rlineto
hintmask 11010101
230 -18 85 81 76 vvcurveto
endchar
                </CharString>
                <CharString name="fourfifths.afrc">
                    56 callsubr
108 51 200 53 callgsubr
314 59 -16 callsubr
-384 -251 -62 callsubr
294 -459 -106 callgsubr
endchar
                </CharString>
                <CharString name="fourperemspace">
                    -348 endchar
                </CharString>
                <CharString name="fraction">
                    -309 706 -20 hstem
-144 605 vstem
-105 -22 rmoveto
-56 callsubr
endchar
                </CharString>
                <CharString name="fraction.afrc">
                    -28 313 51 hstem
69 458 vstem
69 313 -62 callsubr
endchar
                </CharString>
                <CharString name="fraction.afrc2">
                    392 313 51 hstem
70 877 vstem
70 313 rmoveto
867 hlineto
10 51 rlineto
-867 hlineto
endchar
                </CharString>
                <CharString name="fraction.tab">
                    -309 707 -20 hstem
-144 605 vstem
-105 -22 rmoveto
50 callsubr
-40 32 -565 -697 rlineto
endchar
                </CharString>
                <CharString name="g">
                    9 9 callgsubr
145 68 400 60 hstemhm
68 71 267 53 hintmask 10011110
228 91 -74 callgsubr
hintmask 01011110
2 callsubr
hintmask 00111110
-9 -74 rlineto
hintmask 10011110
33 callgsubr
                </CharString>
                <CharString name="g.sc">
                    -40 callgsubr
                </CharString>
                <CharString name="gbreve">
                    9 9 callgsubr
145 68 400 60 87 60 hstemhm
68 71 267 53 hintmask 10011111
570 824 -105 callsubr
-384 -705 -74 callgsubr
hintmask 01011111
2 callsubr
hintmask 00111111
-9 -74 rlineto
hintmask 10011111
33 callgsubr
                </CharString>
                <CharString name="gbreve.sc">
                    6 callgsubr
88 60 77 callsubr
hintmask 10111100
580 869 -105 callsubr
-187 -944 -92 callsubr
hintmask 01111100
62 callgsubr
                </CharString>
                <CharString name="gcommaaccent">
                    9 9 callgsubr
145 68 400 60 hstemhm
68 71 205 91 -29 53 hintmask 10011110
481 841 46 callgsubr
-253 -750 rmoveto
-51 -38 40 81 136 86 143 117 31 43 -11 -24 45 hvcurveto
-27 -65 -26 -89 -10 -81 rrcurveto
-83 -53 -60 -47 -57 hhcurveto
hintmask 01011101
231 -187 rmoveto
28 56 -29 78 1 147 rrcurveto
15 1 17 1 19 vhcurveto
58 112 51 139 36 vvcurveto
15 -26 14 -22 -7 -10 -10 -18 -11 vhcurveto
18 -37 -37 9 -38 hhcurveto
-183 -131 -174 -185 -111 56 -58 75 73 70 55 71 53 hvcurveto
2 callsubr
hintmask 00111101
-9 -74 rlineto
hintmask 01011101
33 callgsubr
                </CharString>
                <CharString name="gcommaaccent.sc">
                    6 callgsubr
hstemhm
65 73 56 90 182 69 hintmask 10111100
-14 callgsubr
hintmask 01111100
-37 callgsubr
-222 -268 -101 callgsubr
                </CharString>
                <CharString name="gdotaccent">
                    9 9 callgsubr
145 68 400 60 92.5 144 hstemhm
68 71 267 53 hintmask 10011111
423 644 -72 callsubr
-120 -552 -74 callgsubr
hintmask 01011111
2 callsubr
hintmask 00111111
-9 -74 rlineto
hintmask 10011111
33 callgsubr
                </CharString>
                <CharString name="gdotaccent.sc">
                    6 callgsubr
27 callgsubr
77 callsubr
hintmask 10111100
433 689 -72 callsubr
77 -791 -92 callsubr
hintmask 01111100
62 callgsubr
                </CharString>
                <CharString name="germandbls">
                    24 -7 65 -58 58 658 61 hstemhm
480 68 -60 71 hintmask 10110000
225 -7 rmoveto
238 -14 85 83 86 vvcurveto
69 -61 78 -105 81 vhcurveto
hintmask 01101000
119 103 58 87 82 vvcurveto
72 -48 57 -91 -120 -101 -98 -294 -57 vhcurveto
-76 -385 rlineto
70 hlineto
75 390 rlineto
259 51 62 67 77 hhcurveto
56 31 -36 -49 -72 -52 -71 -143 -128 hvcurveto
hintmask 10110000
135 -100 52 -71 -54 vvcurveto
-59 -63 -32 -182 19 vhcurveto
endchar
                </CharString>
                <CharString name="germandbls.sc">
                    409 -29 callsubr
186 72 161 73 hintmask 10111110
959 20 callgsubr
hintmask 01111110
-16 -69 rlineto
hintmask 10111110
282 -61 112 90 94 127 -234 63 109 vvcurveto
54 45 47 64 60 35 -35 -78 12 vhcurveto
-427 13 rmoveto
103 -13 -48 56 -93 hhcurveto
-113 -86 -83 -88 hvcurveto
-137 233 -62 -96 vvcurveto
-60 -75 -49 -230 62 vhcurveto
hintmask 01111110
-16 -69 rlineto
hintmask 10111110
282 -61 112 90 94 127 -234 63 109 vvcurveto
54 45 47 64 60 35 -35 -78 12 vhcurveto
endchar
                </CharString>
                <CharString name="grave">
                    -27 611 235 hstem
166 234 vstem
400 643 -98 callsubr
endchar
                </CharString>
                <CharString name="grave.cap">
                    -27 611 235 hstem
166 234 vstem
400 643 -98 callsubr
endchar
                </CharString>
                <CharString name="greater">
                    26 75 501 hstem
81 460 vstem
103 75 rmoveto
422 208 16 78 -345 215 -34 -62 304 -184 -2 -10 -383 -184 rlineto
endchar
                </CharString>
                <CharString name="greaterequal">
                    26 27 63 451 -20 hstem
47 493 vstem
199 600 rmoveto
-35 -59 299 -168 -1 -7 -364 -145 18 -58 410 166 14 72 rlineto
-45 -311 75 callsubr
                </CharString>
                <CharString name="guillemotleft">
                    157 5 -21 573 -20 hstem
70 660 vstem
259 -16 -7 callsubr
                </CharString>
                <CharString name="guillemotleft.cap">
                    157 55 574 hstem
82 660 vstem
271 55 -7 callsubr
                </CharString>
                <CharString name="guillemotright">
                    161 6 -21 23 -21 hstemhm
30 661 hintmask 10100000
395 -15 rmoveto
277 245 19 83 61 callgsubr
hintmask 01100000
88 callgsubr
54 callgsubr
                </CharString>
                <CharString name="guillemotright.cap">
                    161 581 -20 21 -20 hstemhm
41 661 hintmask 01100000
406 55 rmoveto
277 245 19 83 rlineto
hintmask 10100000
61 callgsubr
88 callgsubr
rlineto
hintmask 01100000
54 callgsubr
                </CharString>
                <CharString name="guilsinglleft">
                    -157 5 -21 573 -20 hstem
70 347 vstem
256 -16 40 callgsubr
                </CharString>
                <CharString name="guilsinglleft.cap">
                    -157 57 573 hstem
69 347 vstem
255 57 40 callgsubr
                </CharString>
                <CharString name="guilsinglright">
                    -155 6 -21 572 -20 hstem
27 348 vstem
71 -15 35 callgsubr
                </CharString>
                <CharString name="guilsinglright.cap">
                    -155 582 -20 hstem
38 348 vstem
82 57 35 callgsubr
                </CharString>
                <CharString name="h">
                    62 -10 64 -33 -21 485 67 228 -20 76 callsubr
hintmask 10111000
45 callsubr
hintmask 01110100
87 callgsubr
70 363 -71 -6 -150 -774 51 callsubr
hintmask 10110100
-91 -77 -188 -87 vvcurveto
hintmask 10111000
21 callsubr
                </CharString>
                <CharString name="h.sc">
                    -16 callgsubr
                </CharString>
                <CharString name="hairspace">
                    -523 endchar
                </CharString>
                <CharString name="hbar">
                    62 -10 64 -33 -21 485 67 93 52 -52 135 76 callsubr
hintmask 10110100
45 callsubr
hintmask 10110010
87 callgsubr
44 228 rlineto
152 hlineto
10 52 rlineto
-152 hlineto
hintmask 10101010
16 83 -71 -6 rlineto
hintmask 01110010
-15 -77 rlineto
-81 hlineto
-10 -52 rlineto
81 hlineto
-125 -645 51 callsubr
hintmask 10110010
-91 -77 -188 -87 vvcurveto
hintmask 10110100
21 callsubr
                </CharString>
                <CharString name="hbar.sc">
                    -52 callgsubr
                </CharString>
                <CharString name="hcoslug">
                    96 -100 100 6 12 -11 11 -11 18 -18 25 -25 41 -36 14 -13 10 -3 14 -11 9 0 16 -9 15 -15 20 -19 34 -19 19 -15 15 7 8 -1 13 -7 12 6 10 -9 43 -42 11 hstemhm
50 82 13 10 -10 22 -5 12 6 9 -2 16 -1 16 -2 9 12 13 -3 14 -14 56 -41 12 -1 9 4 16 -8 14 5 13 -6 7 8 17 -12 14 8 7 -5 15 -13 8 hintmask 001000000000001000001010001000100000100000010000
644 700 rmoveto
-594 hlineto
hintmask 100000000000000000001010000000001000000001000000
-800 594 vlineto
-397 528 rmoveto
-23 15 -14 23 -22 vhcurveto
11 17 7 16 17 vvcurveto
23 -12 15 -17 -16 -11 -12 -17 vhcurveto
65 -86 rmoveto
16 -16 12 -15 13 -15 19 33 5 24 -23 23 -9 -10 -14 -11 -19 -13 rrcurveto
-51 -123 rmoveto
15 12 3 9 11 hvcurveto
-28 35 -28 30 -18 17 rrcurveto
-11 -11 -5 -14 -15 vvcurveto
-31 22 -23 30 vhcurveto
121 45 rmoveto
-29 25 17 -12 20 hhcurveto
21 12 12 17 10 hvcurveto
7 -2 rlineto
-58 -2 -35 -36 -43 hhcurveto
-30 -22 11 34 -33 hvcurveto
-31 -28 -34 -14 -42 hhcurveto
-60 -49 40 53 42 29 31 53 18 hvcurveto
-21 22 -10 18 29 vvcurveto
43 42 42 67 62 33 -39 -35 -13 -3 -11 -6 -10 vhcurveto
27 1 20 -11 2 -27 rrcurveto
24 16 19 14 25 hhcurveto
28 22 -21 -31 -31 -22 -23 -28 -18 -16 10 15 -9 hvcurveto
-15 -9 -16 -13 -15 -20 rrcurveto
hintmask 000000000000000000001000000000000001000000000000
-96 -140 rmoveto
-11 13 -7 vlineto
hintmask 000000000000000000100000000000000001000000000000
-13 -20 hlineto
-3 1 -2 3 2 2 2 5 1 vhcurveto
5 -2 rlineto
hintmask 100000000000000000100000000000000100000000000000
-2 -9 -4 -4 -8 -8 -4 5 0 hflex1
20 -7 7 7 9 vlineto
hintmask 000000000000001000000000010000000000000000000000
-100 -28 rmoveto
hintmask 000000000000000000100000010001000000000000000000
48 callgsubr
hintmask 000000000000001000000000000001000000000000000000
-12 -9 -9 -12 vhcurveto
hintmask 000000000000001000000000010000000000000000000000
-12 -9 8 13 hvcurveto
hintmask 000000000000000000100010000100000000000000100000
29 hmoveto
48 callsubr
47 callgsubr
176 -1 rmoveto
0 8 -2 5 -5 -6 -2 -6 0 hflex1
0 -8 2 -5 6 5 2 5 0 hflex1
-160 -12 rmoveto
6 hlineto
hintmask 000000000000000000100000000001000000000000000000
25 -6 7 vlineto
hintmask 000000000000000000001000000000100000000000000000
17 -10 hlineto
hintmask 000000000000000000001000000000000100000000000000
7 3 4 4 7 hhcurveto
9 3 -6 -8 hvcurveto
hintmask 000000000000000000100000000000000100000000000000
-19 6 -7 vlineto
hintmask 100000000000000000100000000000100000000000000000
-22 7 4 18 hlineto
4 -2 3 -4 -4 -3 -4 -6 vhcurveto
-15 4 -7 vlineto
hintmask 000000000000001000000010000000000000000000000000
-22 hlineto
hintmask 000000000000000010000010000000000000000000000000
-94 7 rmoveto
7 hlineto
hintmask 000000000000000000010010000000000000000000000000
41 -7 7 vlineto
hintmask 000000000000000000001000000100000000000000000000
51 hlineto
hintmask 000000000000000000100000000100000000000000000000
-20 -8 vlineto
hintmask 000000000000000000010001000000000000000000000000
11 -2 -2 2 -7 hhcurveto
-12 -18 4 hlineto
5 0 1 7 1 hvcurveto
7 hlineto
hintmask 000000000000000010000000010000000000000000000000
-23 -7 vlineto
7 -1 0 1 -5 hhcurveto
-4 hlineto
hintmask 000000000000000010000001000000000000000000000000
-16 10 -7 vlineto
hintmask 000000000000001000000010000000000000000000000000
-30 hlineto
hintmask 000000000000000000100000000000000001000000000000
177 14 rmoveto
7 hlineto
hintmask 000000000000000000000100000000000000010000000000
-6 4 3 -3 5 hhcurveto
3 2 2 2 hvcurveto
hintmask 000000000000000000000100000000000001000000000000
8 -24 -5 16 vvcurveto
6 5 6 9 5 4 -2 -3 2 vhcurveto
2 5 rlineto
6 hlineto
hintmask 100000000000000001000000000000000000000100000000
-13 -7 vlineto
4 -3 -3 3 -4 hhcurveto
-3 -2 -2 -2 hvcurveto
-8 24 6 -16 vvcurveto
-7 -5 -6 -9 vhcurveto
hintmask 100000000000000000000000000000000000010000000000
-7 -3 3 2 -3 hvcurveto
-1 -4 rlineto
-7 hlineto
hintmask 000000000000000000000100000000000000000100000000
50 51 rmoveto
-6 7 hlineto
hintmask 000000000000000000001000000000000000000000100000
18 hlineto
hintmask 100000000000000000000100000000000000000000100000
-27 vlineto
6 2 5 3 6 hhcurveto
9 6 -8 -12 -9 -4 -12 -12 -7 -4 3 5 -3 hvcurveto
-4 -8 rlineto
-6 hlineto
53 -8 rmoveto
4 3 3 5 1 hvcurveto
-4 10 -12 23 0 vvcurveto
-5 7 hlineto
hintmask 000000000000000000001000000000000000000000000000
25 -7 -6 hlineto
hintmask 100000000000100000001000000000000000000000100000
9 -20 8 20 rlineto
-5 7 17 -7 -5 hlineto
-13 -31 rlineto
-10 -4 -5 -6 -9 hhcurveto
-7 -4 4 5 4 3 3 4 hvcurveto
hintmask 100000000000000000000100000000000000000000100000
7 1 -7 -3 -3 hvcurveto
hintmask 000000000010000000000000000000000000000000000000
59 -32 rmoveto
-7 -5 vlineto
hintmask 000000100000000000000000000000000000000000000000
-3 -6 -3 -4 -3 -4 rrcurveto
2 -3 2 -2 2 2 1 1 1 hflex1
5 -1 rlineto
83 callgsubr
-7 -2 -3 -5 -8 hhcurveto
-5 0 -3 1 -4 5 -4 -4 -5 -2 -6 flex1
-12 -6 6 8 hvcurveto
hintmask 000000100000000000000000000000000000000000000000
8 6 5 7 2 vhcurveto
-4 4 -2 3 5 vvcurveto
7 7 7 10 9 5 -6 -6 vhcurveto
-6 -4 -3 -7 -3 vhcurveto
5 -5 3 -4 4 -4 2 2 3 4 1 3 rrcurveto
-6 7 hlineto
hintmask 100000000001000000000000000000000000100000000000
-152 6 rmoveto
14 5 hlineto
-3 -3 2 4 2 1 1 0 hvcurveto
0 -1 1 -2 -3 -3 -2 -10 vhcurveto
175 -15 rmoveto
82 callsubr
18 13 12 14 vhcurveto
7 5 -3 -4 4 hvcurveto
1 6 rlineto
8 hlineto
-22 -8 vlineto
hintmask 000000000010000000000000000000000000000000000000
12 -4 -3 4 -8 hhcurveto
-8 -6 -6 -16 hvcurveto
hintmask 010000000000000000000000000000000000000000000000
-15 6 -7 10 8 5 7 9 1 vhcurveto
8 hlineto
83 callgsubr
-14 -1 -8 -9 -15 hhcurveto
hintmask 100000000001000000000000000000000000100000000000
-18 -11 11 17 hvcurveto
hintmask 000001000000000000000000000000000000000000000000
-38 6 rmoveto
3 2 2 3 4 vvcurveto
3 -2 3 -4 -3 -2 -2 -3 -3 2 -3 4 -4 vhcurveto
hintmask 001000000000000000000000000000010000000000000000
-184 -15 rmoveto
hintmask 010000000000000000000000000000010000000000000000
72 callgsubr
hintmask 100000000000010000000000000010000010000000000000
60 callsubr
hintmask 001000000000000000000000000000000010000000000000
14 6 -9 -13 -1 hvcurveto
hintmask 100000000010000000000000001000010000000000000000
-84 2 rmoveto
48 callgsubr
-12 -9 -9 -12 -12 -9 8 13 vhcurveto
336 hmoveto
82 callsubr
48 callgsubr
83 callgsubr
-12 -9 -9 -12 vhcurveto
hintmask 100000000010000000000000001000010000000000000000
-12 -9 8 13 hvcurveto
hintmask 001000000000000000000000000000000000000010000000
-185 -2 rmoveto
hintmask 010000000000000000000000000000000000000010000000
72 callgsubr
hintmask 100000000000010000000000000000000000001000010000
60 callsubr
hintmask 001000000000000000000000000000000000000000010000
14 6 -9 -13 -1 hvcurveto
hintmask 000000010000000000000000000000010000000000000000
-119 5 rmoveto
hintmask 000000000100000000000000000000010000000000000000
14 hlineto
hintmask 000000010000000000000000000000010000000000000000
80 callsubr
hintmask 001000000000000000000000000010000000000000000000
-29 -3 rmoveto
hintmask 000000000010000000000000000010000000000000000000
48 callsubr
hintmask 001000000000000000000000000010000000000000000000
47 callgsubr
82 callgsubr
336 hmoveto
82 callsubr
48 callsubr
82 callgsubr
47 callgsubr
hintmask 000000010000000000000000000000000000000010000000
-214 3 rmoveto
hintmask 000000000100000000000000000000000000000010000000
14 hlineto
hintmask 000000010000000000000000000000000000000010000000
80 callsubr
hintmask 001000000000000000000000000000000010000000000000
-64 -16 rmoveto
6 hlineto
hintmask 000000000100000000000000000000000010000000000000
25 -7 7 7 1 vlineto
hintmask 001000000000000100000000000000000010001000000000
13 9 6 10 3 4 -1 -1 2 vhcurveto
10 2 rlineto
-52 6 -7 vlineto
hintmask 100000000000000000000000000000000000100000000000
-23 7 5 hlineto
hintmask 000010000000000000000000000000000000100000000000
25 -14 vlineto
hintmask 001000000000000000000000000000000000100000000000
-25 5 -7 vlineto
hintmask 100000000000000000000000000000000010000000000000
-23 hlineto
hintmask 001000000000000000000000000000000000001000000000
92 7 rmoveto
6 hlineto
hintmask 000000000100000000000000000000000000000000010000
25 -6 7 vlineto
hintmask 000000000000010000000000000000000000000000000000
18 -10 hlineto
8 3 4 3 5 hhcurveto
5 3 -3 -5 -4 -3 -3 -4 -3 -3 2 4 hvcurveto
1 vlineto
-2 -3 -4 -5 -2 hvcurveto
82 callgsubr
-16 8 -7 vlineto
hintmask 100000000000000000000000000000000000001000000000
-26 hlineto
hintmask 000100000000000000000000000000000000000000000000
69 9 rmoveto
-5 6 -4 5 -5 5 rrcurveto
-2 -2 -2 -3 -4 vvcurveto
-6 4 -4 6 2 3 1 2 3 vhcurveto
hintmask 001000000000000000000010000000000000000000000000
-313 -2 rmoveto
8 hlineto
hintmask 000000000010000000000010000000000000000000000000
41 -8 7 vlineto
hintmask 000000000000001000000000100000000000000000000000
29 -7 -8 hlineto
hintmask 000000000010000000000000100000000000000000000000
-16 22 16 -8 7 vlineto
hintmask 001000000000001000000000001000000000000000000000
29 -7 -8 -41 8 -7 hlineto
hintmask 100000000000000000000000100000000000000000000000
-29 7 8 hlineto
hintmask 000100000000000000000000100000000000000000000000
18 -22 vlineto
hintmask 001000000000000000000000100000000000000000000000
-18 8 -7 vlineto
hintmask 100000000000000000000010000000000000000000000000
-29 hlineto
459 6 rmoveto
0 -4 -3 -3 -4 -4 -3 3 0 hflex1
0 4 3 3 4 4 3 -3 0 hflex1
endchar
                </CharString>
                <CharString name="hungarumlaut">
                    -27 620 239 hstem
147 425 vstem
179 620 -83 callsubr
4 callgsubr
endchar
                </CharString>
                <CharString name="hungarumlaut.cap">
                    -27 620 239 hstem
147 425 vstem
179 620 -83 callsubr
4 callgsubr
endchar
                </CharString>
                <CharString name="hyphen">
                    -149 292 62 hstem
73 311 vstem
384 354 rmoveto
-299 hlineto
-12 -62 rlineto
300 hlineto
endchar
                </CharString>
                <CharString name="hyphen.tab">
                    26 292 62 hstem
136 372 vstem
508 354 rmoveto
-361 hlineto
-11 -62 rlineto
361 hlineto
endchar
                </CharString>
                <CharString name="i">
                    38 callsubr
113 146 57 callgsubr
315 636 rmoveto
43 144 -83 -4 -35 -144 rlineto
140 -587 -90 callsubr
                </CharString>
                <CharString name="i.dot">
                    -219 85 callsubr
113 146 57 callgsubr
315 636 rmoveto
43 144 -83 -4 -35 -144 rlineto
140 -587 -90 callsubr
                </CharString>
                <CharString name="i.sc">
                    -26 callgsubr
hstem
25 447 vstem
240 56 -103 callsubr
                </CharString>
                <CharString name="iacute">
                    38 callsubr
260 -20 57 callgsubr
165 654 -107 callgsubr
215 -609 -90 callsubr
                </CharString>
                <CharString name="iacute.sc">
                    -26 callgsubr
hstem
25 469 vstem
221 695 -107 callgsubr
19 -639 -103 callsubr
                </CharString>
                <CharString name="ibreve">
                    38 callsubr
108 60 57 callgsubr
446 815 -105 callsubr
-108 -742 -90 callsubr
                </CharString>
                <CharString name="ibreve.sc">
                    -26 callgsubr
87 60 hstem
25 518 vstem
501 856 -105 callsubr
-303 -772 -103 callsubr
                </CharString>
                <CharString name="icircumflex">
                    38 callsubr
57 callgsubr
398 621 -91 callgsubr
84 -706 -90 callsubr
                </CharString>
                <CharString name="icircumflex.sc">
                    -26 callgsubr
120 59 callgsubr
25 480 hintmask 11101000
454 -65 callsubr
-112 -736 -103 callsubr
                </CharString>
                <CharString name="idieresis">
                    38 callsubr
113 -4 callsubr
122 71 hintmask 11011000
408 637 -79 callsubr
hintmask 11101000
-90 callgsubr
264 -588 -90 callsubr
                </CharString>
                <CharString name="idieresis.sc">
                    -26 callgsubr
92 -83 callgsubr
25 482 hintmask 11011000
463 73 callsubr
hintmask 11101000
-90 callgsubr
69 -618 -103 callsubr
                </CharString>
                <CharString name="idotaccent.sc">
                    -26 callgsubr
23 callgsubr
25 447 vstem
355 676 -72 callsubr
-40 -619 -103 callsubr
                </CharString>
                <CharString name="igrave">
                    38 callsubr
57 callgsubr
362 645 -98 callsubr
38 -568 -90 callsubr
                </CharString>
                <CharString name="igrave.sc">
                    -26 callgsubr
103 -20 hstem
25 447 vstem
418 686 -98 callsubr
-158 -598 -103 callsubr
                </CharString>
                <CharString name="imacron">
                    38 callsubr
157 63 57 callgsubr
457 741 -73 callgsubr
-65 -633 -90 callsubr
                </CharString>
                <CharString name="imacron.sc">
                    -26 callgsubr
136 63 hstem
25 487 vstem
512 782 -73 callgsubr
-260 -663 -103 callsubr
                </CharString>
                <CharString name="iogonek">
                    -193 -229 54 164 65 487 -20 113 146 hstemhm
96 67 -42 72 hintmask 11110100
315 636 rmoveto
43 144 -83 -4 -35 -144 rlineto
hintmask 11111000
84 -814 rmoveto
-27 callgsubr
47 65 59 152 76 vhcurveto
-10 38 rlineto
hintmask 11110100
-161 -55 -35 19 28 118 90 374 rcurveline
-59 2 -170 -50 7 -39 139 21 -79 -321 -25 -102 28 -60 77 -1 rlinecurve
hintmask 11111000
-77 -50 -37 -52 -46 vvcurveto
-64 19 callsubr
endchar
                </CharString>
                <CharString name="iogonek.sc">
                    -44 callsubr
                </CharString>
                <CharString name="j">
                    -219 -192 73 660 -20 113.5 148.5 hstem
228 26.15 vstem
339 637 rmoveto
45 146 -84 -5 -36 -146 rlineto
-319 -824 rmoveto
135 2 67 12 39 39 73 73 -68 182 124 423 -64 2 rcurveline
-175 -49 8 -39 144 21 -95 -364 49 -164 -43 -43 rlinecurve
-22 -22 -32 -4 -134 4 rrcurveto
endchar
                </CharString>
                <CharString name="j.sc">
                    -29 callgsubr
                </CharString>
                <CharString name="k">
                    68 callgsubr
481 76 hintmask 10011100
448 -6 rmoveto
hintmask 00111100
18 callgsubr
hintmask 01011100
22 callsubr
endchar
                </CharString>
                <CharString name="k.sc">
                    26 callsubr
55 527 -64 callsubr
endchar
                </CharString>
                <CharString name="kcommaaccent">
                    68 callgsubr
221 90 170 76 hintmask 10011110
448 -6 rmoveto
hintmask 00111110
18 callgsubr
hintmask 01011110
22 callsubr
-70 -514 -101 callgsubr
                </CharString>
                <CharString name="kcommaaccent.sc">
                    26 callsubr
192 90 -64 callsubr
-97 -875 -101 callgsubr
                </CharString>
                <CharString name="l">
                    70 callgsubr
vstem
-44 callgsubr
endchar
                </CharString>
                <CharString name="l.sc">
                    -96 0 61 522 -20 hstem
56 359 vstem
402 hmoveto
-10 callsubr
                </CharString>
                <CharString name="l.ultra">
                    70 callsubr
vstem
-32 callgsubr
endchar
                </CharString>
                <CharString name="lacute">
                    70 callgsubr
vstem
345 886 -107 callgsubr
94 -812 -97 callgsubr
endchar
                </CharString>
                <CharString name="lacute.sc">
                    -21 callgsubr
                </CharString>
                <CharString name="lacute.ultra">
                    70 callsubr
vstem
323 886 -107 callgsubr
94 -812 -93 callsubr
endchar
                </CharString>
                <CharString name="lcaron">
                    70 callgsubr
108 86 vstem
629 885 -63 callsubr
-276 -816 -97 callgsubr
endchar
                </CharString>
                <CharString name="lcaron.sc">
                    -22 callsubr
                </CharString>
                <CharString name="lcaron.ultra">
                    70 callsubr
108 86 vstem
607 885 -63 callsubr
-276 -816 -93 callsubr
endchar
                </CharString>
                <CharString name="lcommaaccent">
                    -94 -9 61 658 73 hstemhm
110 68 -23 90 205 71 hintmask 11101000
-44 callgsubr
hintmask 11011000
-295 -1006 -101 callgsubr
                </CharString>
                <CharString name="lcommaaccent.sc">
                    -96 0 61 522 -20 hstem
163 90 vstem
402 hmoveto
-67 callsubr
60 -287 -101 callgsubr
                </CharString>
                <CharString name="lcommaaccent.ultra">
                    62 callsubr
hstemhm
86 72 -25 90 205 71 hintmask 11101000
-32 callgsubr
hintmask 11011000
-295 -1006 -101 callgsubr
                </CharString>
                <CharString name="ldot">
                    -50 -9 61 239 105 314 52 callgsubr
vstem
-44 callgsubr
148 -419 rmoveto
20 105 rlineto
-87 hlineto
-21 -105 rlineto
endchar
                </CharString>
                <CharString name="ldot.sc">
                    -13 callsubr
                </CharString>
                <CharString name="ldot.ultra">
                    -67 -8 60 239 105 314 73 hstem
86 72 270 71 vstem
-32 callgsubr
151 -419 rmoveto
21 105 rlineto
-88 hlineto
-20 -105 rlineto
endchar
                </CharString>
                <CharString name="less">
                    26 70 501 hstem
103 459 vstem
447 70 rmoveto
34 61 -303 185 2 10 382 184 -22 61 -422 -209 -15 -78 rlineto
endchar
                </CharString>
                <CharString name="lessequal">
                    26 27 62 hstem
47 518 vstem
542 599 rmoveto
-408 -197 -14 -73 355 -165 25 60 -302 141 1 6 366 172 rlineto
-70 -454 55 callgsubr
endchar
                </CharString>
                <CharString name="lslash">
                    -94 -9 61 658 73 92 55 hstemhm
110 68 -53 50 275 71 hintmask 11101100
125 61 callsubr
19 18 vvcurveto
56 201 43 272 -81 vhcurveto
24 59 rlineto
-305 87 -242 -63 -115 vvcurveto
hintmask 11110100
314 -724 -97 callgsubr
endchar
                </CharString>
                <CharString name="lslash.sc">
                    -13 callgsubr
                </CharString>
                <CharString name="lslash.ultra">
                    62 callsubr
91 56 hstemhm
86 72 -55 50 275 71 hintmask 11101100
103 61 callsubr
17 19 vvcurveto
56 201 44 273 -81 vhcurveto
23 59 rlineto
-304 87 -243 -63 -115 vvcurveto
hintmask 11110100
314 -724 -93 callsubr
endchar
                </CharString>
                <CharString name="m">
                    338 -10 64 -33 -21 486 66 -10 -20 hstemhm
452 67 168 75 2 76 hintmask 10101100
886 39 rmoveto
-11 39 rlineto
-96 -36 -17 7 31 vvcurveto
hintmask 10101010
66 78 196 110 vvcurveto
56 -26 44 -69 -67 -79 -44 -90 -80 vhcurveto
90 9 -28 44 -68 hhcurveto
-65 -75 -44 -89 -77 hvcurveto
hintmask 01011010
6 42 9 59 4 22 -70 -5 rcurveline
-23 -160 -24 -120 -51 -257 rrcurveto
70 hlineto
16 82 39 195 15 78 rrcurveto
hintmask 01101010
88 71 67 43 54 hhcurveto
52 12 -36 -89 -18 hvcurveto
-72 -361 rlineto
69 hlineto
72 357 rlineto
87 76 66 41 51 hhcurveto
42 16 -23 -42 hvcurveto
hintmask 10101010
-92 -77 -188 -86 vvcurveto
hintmask 10101100
21 callsubr
                </CharString>
                <CharString name="m.sc">
                    -39 callsubr
                </CharString>
                <CharString name="macron">
                    31 callgsubr
                </CharString>
                <CharString name="macron.cap">
                    31 callgsubr
                </CharString>
                <CharString name="minus">
                    26 291 63 hstem
98 448 vstem
546 354 75 callsubr
                </CharString>
                <CharString name="mu">
                    62 -174 -21 183 66 -63 63 485 59 callgsubr
425 70 hintmask 10101100
99 -189 rmoveto
hintmask 11001100
39 218 rlineto
-28 16 26 -13 37 hhcurveto
66 67 49 90 82 hvcurveto
hintmask 10110100
-27 -130 43 -53 174 97 -11 36 rcurveline
-120 -44 -6 19 16 83 81 404 rcurveline
-68 hlineto
-69 -348 rlineto
-92 -84 -61 -45 -58 hhcurveto
-58 -28 37 107 21 hvcurveto
hintmask 10101100
71 345 -71 -5 -148 -733 rlineto
endchar
                </CharString>
                <CharString name="multiply">
                    26 539 -20 hstem
83 478 vstem
452 106 rmoveto
53 44 -136 168 192 160 -41 52 -192 -160 -136 169 -52 -44 135 -169 -192 -160 41 -52 193 161 rlineto
endchar
                </CharString>
                <CharString name="n">
                    14 callsubr
76 callsubr
hintmask 10101000
612 39 -42 callgsubr
                </CharString>
                <CharString name="n.sc">
                    59 0 109 -88 -21 492 92 hstemhm
56 553 -1 callsubr
endchar
                </CharString>
                <CharString name="nacute">
                    14 callsubr
76 callsubr
hintmask 10100100
296 664 -107 callgsubr
hintmask 10101000
316 -625 -42 callgsubr
                </CharString>
                <CharString name="nacute.sc">
                    59 callsubr
302 696 -107 callgsubr
114 -696 rmoveto
-80 callsubr
endchar
                </CharString>
                <CharString name="naira">
                    26 0 113 -92 -21 197.5 60 -57.5 55 -54.5 61 159 61 -58 61 -56.5 55 87 120 -2 -20 22 -20 hstemhm
13 622 hintmask 1001000110010000
225 570 rmoveto
7 hlineto
85 -314 -152 -2 rlineto
254 -141 rmoveto
-84 314 151 2 -60 -316 rlineto
-39 -113 rmoveto
74 hlineto
hintmask 0100101001010000
39 200 81 1 12 61 -82 -1 32 162 80 1 12 61 -80 -1 39 204 rlineto
-59 hlineto
hintmask 0101000100110000
-39 -204 -176 -2 -55 208 -76 -4 rlineto
hintmask 0110010000110000
-40 -204 -81 -1 -12 -61 82 1 -32 -163 -81 -1 -12 -60 81 1 -38 -198 rlineto
60 hlineto
hintmask 0101000100110000
38 199 178 2 rlineto
endchar
                </CharString>
                <CharString name="ncaron">
                    14 callsubr
183 -20 76 callsubr
hintmask 10101010
396 627 -102 callsubr
hintmask 10101100
217 -588 -41 callgsubr
endchar
                </CharString>
                <CharString name="ncaron.sc">
                    -24 callgsubr
hstemhm
56 557 hintmask 01110000
402 659 -102 callsubr
15 -659 rmoveto
-80 callsubr
endchar
                </CharString>
                <CharString name="ncommaaccent">
                    14 callsubr
hstemhm
230 90 93 75 2 76 hintmask 10101100
612 39 -41 callgsubr
hintmask 10101010
-429 -336 -101 callgsubr
                </CharString>
                <CharString name="ncommaaccent.sc">
                    -37 callsubr
                </CharString>
                <CharString name="nine">
                    26 0 -21 292 58 311 62 hstem
114 67 317 69 vstem
128 -21 rmoveto
327 106 112 208 179 vvcurveto
155 -90 75 -117 -135 -111 -100 -147 -184 201 -67 169 149 vhcurveto
-34 -113 -100 -124 -240 -70 rrcurveto
71 421 rmoveto
96 62 77 102 82 71 -50 -138 -14 -1 -15 -2 -16 vhcurveto
-154 -136 -160 55 141 vvcurveto
endchar
                </CharString>
                <CharString name="nine.den">
                    8 -21 187 65 callsubr
30 65 callgsubr
47 -13 -93 callgsubr
                </CharString>
                <CharString name="nine.den_afrc">
                    -28 72 callsubr
95 56 196 58 hintmask 11011100
112 -30 callgsubr
                </CharString>
                <CharString name="nine.den_afrc2">
                    392 72 callsubr
305 56 196 58 hintmask 11011100
322 -30 callgsubr
                </CharString>
                <CharString name="nine.inf">
                    -96 7 65 callsubr
75 65 callgsubr
92 -180 -93 callgsubr
                </CharString>
                <CharString name="nine.num">
                    424 65 callsubr
147 65 callgsubr
164 237 -93 callgsubr
                </CharString>
                <CharString name="nine.num_afrc">
                    -28 646 65 callsubr
215 65 callgsubr
232 459 -93 callgsubr
                </CharString>
                <CharString name="nine.num_afrc2">
                    392 646 65 callsubr
424 65 callgsubr
441 459 -93 callgsubr
                </CharString>
                <CharString name="nine.small">
                    8 -21 187 65 callsubr
64 65 callgsubr
81 -13 -93 callgsubr
                </CharString>
                <CharString name="nine.sup">
                    -96 535 65 callsubr
159 65 callgsubr
176 348 -93 callgsubr
                </CharString>
                <CharString name="notequal">
                    73 callgsubr
511 174 rmoveto
13 62 rlineto
-220 hlineto
104 182 rlineto
150 hlineto
13 62 rlineto
-127 hlineto
80 140 -53 25 -94 -165 rlineto
-242 hlineto
-12 -62 rlineto
218 hlineto
-104 -182 rlineto
-149 hlineto
-12 -62 rlineto
126 hlineto
-81 -141 53 -25 95 166 rlineto
endchar
                </CharString>
                <CharString name="ntilde">
                    14 callsubr
120 58 60 58 76 callsubr
hintmask 10101101
493 700 -76 callsubr
hintmask 10101110
119 -661 -40 callsubr
hintmask 10101101
57 -29 44 -72 -74 -90 -45 -93 -87 vhcurveto
hintmask 01011101
-57 callgsubr
hintmask 10101101
92 84 77 43 59 hhcurveto
45 20 -23 -43 hvcurveto
-91 -77 -188 -86 vvcurveto
hintmask 10101110
21 callsubr
                </CharString>
                <CharString name="ntilde.sc">
                    -60 callsubr
                </CharString>
                <CharString name="numbersign">
                    26 1 -21 561 -20 169 -20 47 -20 hstemhm
44 561 hintmask 11011000
231 255 rmoveto
41 166 145 24 -40 -166 rlineto
-211 -292 rmoveto
49 200 145 24 -49 -203 56 6 51 207 116 19 15 67 -115 -19 41 167 116 19 14 67 -114 -19 48 195 -57 -6 -48 -198 -146 -24 rlineto
hintmask 11101000
49 201 -57 -7 -50 -204 -115 -19 -14 -67 113 19 -41 -167 -115 -19 -14 -67 113 19 -48 -198 rlineto
endchar
                </CharString>
                <CharString name="numero">
                    574 0 125 -106 61 -59 -21 196 61 329 104 -56 61 hstemhm
696 70 290 70 hintmask 01010111
1126 501 rmoveto
124 -67 70 -100 -142 -121 -140 -165 -124 66 -70 101 142 121 140 165 vhcurveto
-70 -11 rmoveto
-126 -70 -107 -103 -73 -44 50 94 125 70 108 103 74 43 -50 -94 vhcurveto
hintmask 00111011
-627 -490 rmoveto
83 42 callsubr
-66 hlineto
hintmask 10011011
-108 -563 rlineto
-7 hlineto
-169 565 -95 -4 -133 -686 rlineto
66 hlineto
112 586 rlineto
8 hlineto
hintmask 01010111
382 -567 rmoveto
392 hlineto
12 61 rlineto
-392 hlineto
endchar
                </CharString>
                <CharString name="o">
                    -4 callgsubr
65 205 -100 callgsubr
                </CharString>
                <CharString name="o.sc">
                    -31 callsubr
hstem
-20 callgsubr
vstem
376 595 -107 callsubr
                </CharString>
                <CharString name="oacute">
                    -4 callgsubr
270 662 -107 callgsubr
-205 -457 -100 callgsubr
                </CharString>
                <CharString name="oacute.sc">
                    -31 callsubr
hstem
-20 callgsubr
vstem
302 708 -107 callgsubr
74 -113 -107 callsubr
                </CharString>
                <CharString name="obreve">
                    6 -12 60 444 60 85 60 16 callsubr
551 823 -105 callsubr
-528 -590 -100 callgsubr
                </CharString>
                <CharString name="obreve.sc">
                    -31 callsubr
88 60 hstem
-20 callgsubr
vstem
582 869 -105 callsubr
-248 -246 -107 callsubr
                </CharString>
                <CharString name="ocircumflex">
                    -4 callgsubr
503 629 -91 callgsubr
-336 -554 -100 callgsubr
                </CharString>
                <CharString name="ocircumflex.sc">
                    -31 callsubr
121 -20 hstem
-20 callgsubr
vstem
535 675 -91 callgsubr
-57 -210 -107 callsubr
                </CharString>
                <CharString name="odieresis">
                    6 -12 60 444 60 90 67 callgsubr
72 331 71 hintmask 11011100
513 645 -79 callsubr
hintmask 11101100
-90 callgsubr
-156 -436 -100 callgsubr
                </CharString>
                <CharString name="odieresis.sc">
                    -31 callsubr
93 67 callgsubr
73 375 73 hintmask 11011100
545 691 -79 callsubr
hintmask 11101100
-90 callgsubr
123 -92 -107 callsubr
                </CharString>
                <CharString name="oe">
                    339 -12 65 -64 59 442 62 -60 59 hstemhm
64 71 334 53 300 69 hintmask 10011110
859 61 rmoveto
-10 37 rlineto
-231 -87 -96 42 141 3 0 4 3 vvcurveto
230 18 139 77 129 vvcurveto
hintmask 10101110
76 -50 48 -86 -94 -81 -60 -84 -54 vhcurveto
hintmask 01011110
91 -20 -62 52 -91 hhcurveto
-153 -136 -157 -191 -135 73 -79 115 85 78 49 76 52 hvcurveto
hintmask 10011110
32 -127 129 -53 231 127 rrcurveto
-390 259 rmoveto
hintmask 01011110
-145 -84 -127 -116 -82 -52 63 107 145 84 129 117 vhcurveto
hintmask 10011110
82 51 -65 -107 hvcurveto
hintmask 10101110
267 170 rmoveto
55 31 -31 -47 -94 -120 -53 -176 -15 hvcurveto
123 20 79 117 111 hhcurveto
endchar
                </CharString>
                <CharString name="oe.sc">
                    -46 callsubr
                </CharString>
                <CharString name="ogonek">
                    -10 callgsubr
                </CharString>
                <CharString name="ogonek.cap">
                    -10 callgsubr
                </CharString>
                <CharString name="ograve">
                    -4 callgsubr
467 653 -98 callsubr
-382 -416 -100 callgsubr
                </CharString>
                <CharString name="ograve.sc">
                    -31 callsubr
104 -20 hstem
-20 callgsubr
vstem
499 699 -98 callsubr
-103 -72 -107 callsubr
                </CharString>
                <CharString name="ohungarumlaut">
                    -4 callgsubr
242 630 -83 callsubr
4 callgsubr
-356 -451 -100 callgsubr
                </CharString>
                <CharString name="ohungarumlaut.sc">
                    -31 callsubr
107 -20 21 -20 36 callsubr
hintmask 11011100
274 676 -83 callsubr
hintmask 11101100
4 callgsubr
-77 -107 -107 callsubr
                </CharString>
                <CharString name="omacron">
                    6 -12 60 444 60 134 63 16 callsubr
562 749 -73 callgsubr
-485 -481 -100 callgsubr
                </CharString>
                <CharString name="omacron.sc">
                    -31 callsubr
137 63 hstem
-20 callgsubr
vstem
593 795 -73 callgsubr
-205 -137 -107 callsubr
                </CharString>
                <CharString name="one">
                    26 0 62 656 -20 hstem
65 449 vstem
496 hmoveto
18 62 rlineto
-175 hlineto
127 656 -71 -6 -17 -85 -185 -23 -9 -54 181 9 -96 -497 rlineto
-192 hlineto
-12 -62 rlineto
endchar
                </CharString>
                <CharString name="one.den">
                    0 -62 callgsubr
-12 320 vstem
295 10 callgsubr
                </CharString>
                <CharString name="one.den_afrc">
                    -28 -233 -62 callgsubr
53 320 vstem
360 -233 -47 callsubr
                </CharString>
                <CharString name="one.den_afrc2">
                    392 -233 -62 callgsubr
263 320 vstem
570 -233 -47 callsubr
                </CharString>
                <CharString name="one.inf">
                    -96 -167 -62 callgsubr
33 320 vstem
340 -167 -47 callsubr
                </CharString>
                <CharString name="one.num">
                    250 53 283.5 122.5 0 -20 hstemhm
105 320 hintmask 10110000
-45 callgsubr
hintmask 11010000
-12 -62 -128 -16 -6 -44 123 7 -56 -287 rlineto
-130 hlineto
-10 -53 rlineto
endchar
                </CharString>
                <CharString name="one.num_afrc">
                    -28 472 -62 callgsubr
173 320 vstem
480 472 -47 callsubr
                </CharString>
                <CharString name="one.num_afrc2">
                    392 472 -62 callgsubr
382 320 vstem
689 472 -47 callsubr
                </CharString>
                <CharString name="one.small">
                    0 -62 callgsubr
22 320 vstem
329 10 callgsubr
                </CharString>
                <CharString name="one.sup">
                    -96 361 -62 callgsubr
117 320 vstem
424 361 -47 callsubr
                </CharString>
                <CharString name="oneeighth">
                    78 callgsubr
261 53 91 53 139.5 5 callsubr
690 -27 callsubr
hintmask 1011001011000000
-45 callgsubr
hintmask 1011100011000000
-12 -62 -128 -16 -6 -44 123 7 -56 -287 rlineto
-130 hlineto
-10 -53 rlineto
211 -272 rmoveto
hintmask 0111010011000000
-56 callsubr
hintmask 1011001011000000
711 97 -105 callgsubr
hintmask 1011001101000000
-68 callgsubr
hintmask 1011001011000000
9 callsubr
hintmask 1011001101000000
-150 -67 -92 callgsubr
                </CharString>
                <CharString name="oneeighth.afrc">
                    -28 11 callsubr
99 51 108 53 283.5 120.5 52 callsubr
hintmask 1111110110000000
-67 callgsubr
282 -491 -105 callgsubr
hintmask 1111111010000000
-68 callgsubr
hintmask 1111110110000000
9 callsubr
hintmask 1111111010000000
-150 -67 -92 callgsubr
                </CharString>
                <CharString name="onefifth">
                    528 -1 53 198 53 82 53 148.5 5 callsubr
941 59 hintmask 11100110
-45 callgsubr
hintmask 11110010
-12 -62 -128 -16 -6 -44 123 7 -56 -287 rlineto
-130 hlineto
-10 -53 rlineto
211 -272 rmoveto
hintmask 11101010
-56 callsubr
723 129 -106 callgsubr
endchar
                </CharString>
                <CharString name="onefifth.afrc">
                    56 callsubr
108 51 108 -62 callgsubr
314 59 -49 callgsubr
294 -459 -106 callgsubr
endchar
                </CharString>
                <CharString name="onehalf">
                    528 0 54 196 53 84 56 143.5 5 callsubr
957 63 hintmask 11100110
-45 callgsubr
hintmask 11110010
-12 -62 -128 -16 -6 -44 123 7 -56 -287 rlineto
-130 hlineto
-10 -53 rlineto
213 -272 rmoveto
hintmask 11101010
-56 callsubr
695 -9 -81 callsubr
                </CharString>
                <CharString name="onehalf.afrc">
                    -28 -233 54 333 56 103 51 108 -62 callgsubr
330 63 -49 callgsubr
268 -597 -81 callsubr
                </CharString>
                <CharString name="onequarter">
                    528 -2 callgsubr
105.5 53 283.5 5 callsubr
105 922 hintmask 01100110
-45 callgsubr
hintmask 01110010
-12 -62 -128 -16 -6 -44 123 7 -56 -287 rlineto
-130 hlineto
-10 -53 rlineto
222 -272 rmoveto
hintmask 01101010
-56 callsubr
724 83 -99 callgsubr
hintmask 10100110
17 callsubr
hintmask 01100110
18 92 rlineto
endchar
                </CharString>
                <CharString name="onequarter.afrc">
                    71 callgsubr
401.5 51 108 -62 callgsubr
61 466 -49 callgsubr
306 -505 -88 callsubr
                </CharString>
                <CharString name="onesixth">
                    528 -10 49 -28 -21 231 44 -15 53 283.5 5 callsubr
701 66 callgsubr
hintmask 1001001110000000
-45 callgsubr
hintmask 1001100110000000
-12 -62 -128 -16 -6 -44 123 7 -56 -287 rlineto
-130 hlineto
-10 -53 rlineto
220 -272 rmoveto
hintmask 0101010110000000
-56 callsubr
hintmask 1010001110000000
562 -19 -102 callgsubr
                </CharString>
                <CharString name="onesixth.afrc">
                    -28 -243 86 callgsubr
281 51 108 -62 callgsubr
74 58 196 57 -49 callgsubr
142 -607 -102 callgsubr
                </CharString>
                <CharString name="onethird">
                    528 -5 56 -31 -21 251 53 82 53 148.5 5 callsubr
938 59 hintmask 10110011
-45 callgsubr
hintmask 10111001
-12 -62 -128 -16 -6 -44 123 7 -56 -287 rlineto
-130 hlineto
-10 -53 rlineto
213 -272 rmoveto
hintmask 10110101
-56 callsubr
718 114 -100 callsubr
hintmask 01110011
-7 -57 rlineto
hintmask 10110101
21 callgsubr
                </CharString>
                <CharString name="onethird.afrc">
                    -28 -238 56 186 -21 169 53 108 51 108 -62 callgsubr
311 59 -49 callgsubr
291 -474 -100 callsubr
-7 -57 rlineto
21 callgsubr
                </CharString>
                <CharString name="ordfeminine">
                    -39 135 53 86 50 -50 56 313 52 hstemhm
122 61 183 60 hintmask 10111100
239 330 rmoveto
-31 -25 28 59 115 70 111 87 21 29 -4 -8 30 hvcurveto
-44 -220 rlineto
-43 -41 -57 -38 -39 hhcurveto
hintmask 11011100
266 -22 rmoveto
-8 28 -74 -28 -4 18 13 63 rlinecurve
58 290 rlineto
11 -45 -38 5 -34 hhcurveto
-146 -105 -145 -151 hvcurveto
hintmask 10111100
-83 38 -42 50 47 60 37 45 49 vhcurveto
hintmask 11011100
-9 -79 36 -33 112 64 rrcurveto
-413 -120 rmoveto
-11 -53 rlineto
373 hlineto
10 53 rlineto
endchar
                </CharString>
                <CharString name="ordmasculine">
                    -24 135 53 86 52 318 52 hstem
145 61 250 61 vstem
517 533 rmoveto
102 -58 61 -87 -122 -105 -121 -139 -102 57 -60 88 122 105 120 139 vhcurveto
-61 -11 rmoveto
-107 -60 -89 -89 -63 -38 45 76 107 59 90 90 63 38 -45 -77 vhcurveto
-359 -334 rmoveto
-11 -53 rlineto
352 hlineto
10 53 rlineto
endchar
                </CharString>
                <CharString name="oslash">
                    51 callgsubr
137 221 -63 callgsubr
                </CharString>
                <CharString name="oslash.sc">
                    -17 callgsubr
138 232 -94 callsubr
                </CharString>
                <CharString name="oslashacute">
                    51 callgsubr
272 672 -107 callgsubr
-135 -451 -63 callgsubr
                </CharString>
                <CharString name="oslashacute.sc">
                    -17 callgsubr
294 710 -107 callgsubr
-156 -478 -94 callsubr
                </CharString>
                <CharString name="otilde">
                    6 -12 60 444 60 88 58 60 58 16 callsubr
466 698 -76 callsubr
-401 -493 -100 callgsubr
                </CharString>
                <CharString name="otilde.sc">
                    -31 callsubr
91 58 -26 -20 106 58 36 callsubr
hintmask 11101110
498 744 39 callgsubr
hintmask 11011110
-71 callsubr
hhcurveto
hintmask 11101110
-77 callsubr
hintmask 11011110
-122 -149 -107 callsubr
                </CharString>
                <CharString name="p">
                    9 -174 -21 183 59 -31 -21 491 66 -10 -20 hstemhm
476 70 hintmask 11010100
266 47 rmoveto
-30 -42 7 13 -45 hvcurveto
25 127 25 128 10 54 rrcurveto
59 56 77 51 52 hhcurveto
46 36 -42 -87 -157 -93 -153 -117 hvcurveto
-167 -236 rmoveto
hintmask 10110100
9 48 13 66 14 70 rrcurveto
hintmask 11010100
-5 30 28 -2 25 hhcurveto
193 135 184 200 120 -54 60 -68 -63 -80 -53 -64 -64 hvcurveto
hintmask 11001100
6 39 8 49 3 19 -70 68 callsubr
                </CharString>
                <CharString name="p.sc">
                    -26 callsubr
                </CharString>
                <CharString name="paragraph">
                    139 112 63 445 73 -3 -20 hstemhm
97 73 hintmask 11010000
526 175 rmoveto
-46 3 -41 6 -37 9 84 428 rcurveline
38 2 43 0 46 -3 rrcurveto
-443 -222 rmoveto
101 81 87 168 28 vhcurveto
-78 -404 rlineto
-111 40 -60 67 81 vvcurveto
171 -518 rmoveto
48 248 39 -8 41 -5 45 -3 rlinecurve
-42 -212 68 9 rlineto
hintmask 10110000
153 781 rlineto
hintmask 11010000
-366 26 -230 -142 -189 vvcurveto
-111 84 -86 144 -44 vhcurveto
-52 -273 rlineto
endchar
                </CharString>
                <CharString name="parenleft">
                    -119 -225 1014 hstem
86 68 vstem
474 789 -8 callgsubr
                </CharString>
                <CharString name="parenleft.cap">
                    -120 -166 1014 hstem
91 68 vstem
479 848 -8 callgsubr
                </CharString>
                <CharString name="parenright">
                    -119 779 -20 hstem
326 68 vstem
5 -235 -8 callsubr
                </CharString>
                <CharString name="parenright.cap">
                    -119 -176 1014 hstem
331 68 vstem
10 -176 -8 callsubr
                </CharString>
                <CharString name="percent">
                    296 -15 51 -22 -21 230 51 139 51 187 51 -7 -20 hstemhm
158 53 157 53 80 54 156 53 hintmask 1011101111000000
308 702 rmoveto
-77 -73 -74 -95 -76 50 -44 62 78 73 74 95 76 -51 44 -62 hvcurveto
hintmask 0111011111000000
-161 -709 rmoveto
666 662 -37 40 -666 -662 rlineto
hintmask 1011101111000000
192 618 rmoveto
37 29 -29 -48 -62 -43 -48 -48 -37 -29 29 49 61 43 48 48 hvcurveto
311 -666 rmoveto
78 73 74 95 76 -51 44 -61 -78 -73 -74 -95 -76 51 -44 61 hvcurveto
32 238 rmoveto
37 29 -29 -48 -62 -43 -48 -47 -37 -29 29 49 61 42 48 48 hvcurveto
endchar
                </CharString>
                <CharString name="period">
                    -265 0 112 hstem
72 122 vstem
174 hmoveto
20 -21 callsubr
                </CharString>
                <CharString name="period.tab">
                    -152 0 112 hstem
117 122 vstem
219 hmoveto
20 -21 callsubr
                </CharString>
                <CharString name="periodcentered">
                    -265 252 112 hstem
121 122 vstem
222 252 rmoveto
21 -21 callsubr
                </CharString>
                <CharString name="periodcentered.tab">
                    -149 252 112 hstem
167 122 vstem
268 252 rmoveto
21 -21 callsubr
                </CharString>
                <CharString name="peso">
                    26 21 -21 420 61 -56 55 150 62 hstemhm
504 69 hintmask 10111000
504 480 rmoveto
-280 hlineto
29 150 171 15 78 -72 2 -93 rlinecurve
-319 -199 rmoveto
28 144 rlineto
283 hlineto
-28 -92 -108 -56 -175 4 rrcurveto
hintmask 11011000
450 139 rmoveto
12 61 rlineto
-74 hlineto
1 0 2 1 vvcurveto
131 -110 106 -271 -37 vhcurveto
-40 -204 rlineto
-88 hlineto
-11 -61 rlineto
88 hlineto
-82 -420 rlineto
71 hlineto
41 209 214 19 141 75 37 117 rlinecurve
endchar
                </CharString>
                <CharString name="plus">
                    26 291 63 hstem
79 486 vstem
552 291 rmoveto
13 63 rlineto
-204 hlineto
41 211 rlineto
-67 hlineto
-41 -211 rlineto
-203 hlineto
-12 -63 rlineto
203 hlineto
-41 -211 rlineto
67 hlineto
41 211 rlineto
endchar
                </CharString>
                <CharString name="plusminus">
                    26 75 62 194 61 203 -20 hstem
48 517 vstem
500 75 rmoveto
13 62 rlineto
-195 hlineto
38 194 rlineto
196 hlineto
13 61 rlineto
-197 hlineto
40 203 rlineto
-67 hlineto
-39 -203 rlineto
-195 hlineto
-13 -61 rlineto
196 hlineto
-38 -194 rlineto
-192 hlineto
-12 -62 rlineto
endchar
                </CharString>
                <CharString name="published">
                    324 -34 51 243 53 171 50 138 51 hstem
84 56 441 60 153 -35 callgsubr
-128 -519 rmoveto
20 107 rlineto
139 11 104 55 95 vvcurveto
79 -76 51 -172 -22 vhcurveto
-74 -376 rlineto
262 261 rmoveto
-63 -60 -37 -113 -1 vhcurveto
31 168 rlineto
98 12 44 -31 -48 vvcurveto
endchar
                </CharString>
                <CharString name="q">
                    9 -199 67 120 67 438 59 hstem
62 70 215 73 vstem
549 -147 rmoveto
-11 37 -120 -38 -7 9 14 71 rlinecurve
116 593 rlineto
16 -48 -58 11 -45 hhcurveto
-193 -135 -184 -200 -120 54 -60 70 61 78 48 60 63 hvcurveto
-36 -183 -22 -120 53 -29 166 89 rlinecurve
-334 202 rmoveto
-47 -36 41 88 156 93 153 117 31 44 -7 -13 44 hvcurveto
-61 -315 rlineto
-57 -57 -75 -46 -53 hhcurveto
endchar
                </CharString>
                <CharString name="q.sc">
                    -39 callgsubr
                </CharString>
                <CharString name="question">
                    -33 0 107 hstem
455 80 vstem
161 681 rmoveto
195 -28 99 -34 -86 vvcurveto
-67 -63 -63 -187 -106 vhcurveto
24 -41 rlineto
220 121 86 89 93 vvcurveto
106 -118 59 -242 28 vhcurveto
53 -752 rmoveto
22 107 rlineto
-102 hlineto
-21 -107 rlineto
endchar
                </CharString>
                <CharString name="questiondown">
                    -33 28 -21 574 107 hstem
66 80 vstem
373 81 callgsubr
-34 -681 rmoveto
-195 28 -99 35 85 vvcurveto
67 63 64 187 105 vhcurveto
-24 41 rlineto
-220 -121 -86 -89 -93 vvcurveto
-105 118 -59 242 -29 vhcurveto
endchar
                </CharString>
                <CharString name="quotedbl">
                    36 431 310 hstem
193 380 vstem
475 60 callgsubr
-183 hmoveto
95 277 3 33 rlineto
-93 hlineto
-54 -310 rlineto
endchar
                </CharString>
                <CharString name="quotedblbase">
                    -36 -174 -21 hstem
104 100 119 30 callgsubr
219 hmoveto
30 -18 100 91 50 18 callsubr
                </CharString>
                <CharString name="quotedblleft">
                    -54 443 309 hstem
141 99 120 100 vstem
549 734 rmoveto
-30 18 -100 -92 -50 -86 -9 -131 rlinecurve
100 3 -10 124 18 75 81 89 rlinecurve
-220 hmoveto
40 callsubr
                </CharString>
                <CharString name="quotedblright">
                    -64 429 308 hstem
207 99 120 24 callsubr
219 hmoveto
29 -18 100 92 51 86 8 130 rlinecurve
-99 -2 10 -124 -18 -75 -81 -89 rlinecurve
endchar
                </CharString>
                <CharString name="quoteleft">
                    -274 443 309 hstem
141 99 vstem
329 734 rmoveto
40 callsubr
                </CharString>
                <CharString name="quoteright">
                    -283 429 308 hstem
207 24 callsubr
endchar
                </CharString>
                <CharString name="quotesinglbase">
                    -255 -174 -21 hstem
104 30 callgsubr
endchar
                </CharString>
                <CharString name="quotesingle">
                    -236 431 310 hstem
181 148 vstem
231 60 callgsubr
endchar
                </CharString>
                <CharString name="r">
                    36 callgsubr
hstem
149 133 38 73 vstem
542 30 -69 callgsubr
                </CharString>
                <CharString name="r.sc">
                    -25 callgsubr
447 73 hintmask 10011000
416 -6 -86 callgsubr
                </CharString>
                <CharString name="racute">
                    36 callgsubr
hstem
149 133 38 73 vstem
291 672 -107 callgsubr
251 -642 -69 callgsubr
                </CharString>
                <CharString name="racute.sc">
                    -25 callgsubr
447 73 hintmask 00111000
261 701 -107 callgsubr
hintmask 10011000
155 -707 -86 callgsubr
                </CharString>
                <CharString name="rcaron">
                    36 callgsubr
151 -20 hstem
149 133 38 73 vstem
391 635 -102 callsubr
152 -605 -69 callgsubr
                </CharString>
                <CharString name="rcaron.sc">
                    -25 callgsubr
447 73 hintmask 00111000
361 664 -102 callsubr
hintmask 10011000
56 -670 -86 callgsubr
                </CharString>
                <CharString name="rcommaaccent">
                    36 callgsubr
hstemhm
149 133 -122 90 70 73 hintmask 11110110
542 30 rmoveto
-8 38 -168 -58 -35 36 189 479 rlinecurve
-30 21 rlineto
hintmask 11111010
-71 -32 -81 -23 -66 -7 rrcurveto
6 20 4 19 16 vvcurveto
28 -15 15 -22 -47 -49 -59 -44 -25 18 -16 29 -7 vhcurveto
-30 -72 -49 -71 -68 -86 30 -27 rcurveline
68 77 64 94 38 80 rrcurveto
51 65 13 21 63 hvcurveto
hintmask 11110110
-187 -450 68 -82 233 102 rrcurveto
-429 -317 -101 callgsubr
                </CharString>
                <CharString name="rcommaaccent.sc">
                    -51 callsubr
                </CharString>
                <CharString name="registered">
                    92 219 41 310 44 90 41 hstem
115 45 284 50 100 45 vstem
639 508 rmoveto
154 -99 83 -135 -154 -136 -116 -173 -152 99 -85 135 154 136 117 172 vhcurveto
-234 196 rmoveto
109 80 -66 -135 -146 -114 -97 -130 -109 -81 67 133 147 114 97 131 hvcurveto
29 -347 rmoveto
51 7 -71 96 rlineto
57 24 23 28 33 vvcurveto
46 -52 35 -127 -16 vhcurveto
-48 -250 rlineto
49 hlineto
40 210 rlineto
64 6 24 -17 -24 vvcurveto
-20 -19 -24 -66 -22 vhcurveto
1 -2 rlineto
endchar
                </CharString>
                <CharString name="registered.alt">
                    324 -34 51 467 51 137 51 hstem
84 56 425 59 170 -35 callgsubr
43 -523 rmoveto
59 8 -101 149 rlineto
77 38 40 39 55 vvcurveto
66 -75 49 -165 -25 vhcurveto
-73 -375 rlineto
58 hlineto
60 328 rlineto
93 12 43 -25 -39 vvcurveto
-46 -37 -26 -86 -38 vhcurveto
-1 -2 rlineto
endchar
                </CharString>
                <CharString name="ring">
                    -27 605 48 134 47 hstem
231 55 155 55 vstem
372 834 -99 callsubr
endchar
                </CharString>
                <CharString name="ring.cap">
                    -27 605 48 134 47 hstem
231 55 155 55 vstem
372 834 -99 callsubr
endchar
                </CharString>
                <CharString name="ruble">
                    26 21 -21 139 58 103 61 -57 57 268 63 hstemhm
539 72 hintmask 11101100
539 508 rmoveto
hintmask 11011100
-101 -98 -45 -195 -1 vhcurveto
53 268 rlineto
hintmask 11101100
168 14 72 -48 -87 vvcurveto
-90 -369 rmoveto
17 58 rlineto
-252 hlineto
hintmask 11011100
21 107 rlineto
252 14 124 77 127 vvcurveto
117 -107 78 -268 -32 vhcurveto
hintmask 11101100
-63 -324 rlineto
-98 hlineto
-12 -61 rlineto
33 33 0 1 32 hvcurveto
-19 -102 rlineto
-100 hlineto
-11 -60 rlineto
99 hlineto
-27 -139 rlineto
73 hlineto
27 139 rlineto
endchar
                </CharString>
                <CharString name="rupee">
                    368 -8 62 -33 -21 586 -20 67 62 hstemhm
478 73 135 143 5 69 hintmask 10111010
429 -7 rmoveto
39 callsubr
hintmask 01111010
20 callsubr
hintmask 10111010
652 -168 rmoveto
91 -107 97 -31 87 vhcurveto
hintmask 10111100
105 86 -9 67 -53 hhcurveto
-45 -58 -64 -69 -16 2 -15 4 -15 hvcurveto
-29 -37 -41 -39 -66 -54 21 -33 rcurveline
55 40 44 37 35 35 rrcurveto
hintmask 10111010
42 -88 81 -75 -65 vvcurveto
-54 -44 -35 -204 20 vhcurveto
-4 -67 rlineto
254 -15 67 78 84 vvcurveto
endchar
                </CharString>
                <CharString name="rupeeindia">
                    26 5 -21 432 57 152 63 hstem
79 549 vstem
492 23 rmoveto
-134 125 -74 62 -92 29 150 21 102 68 23 88 rrcurveto
102 hlineto
11 57 rlineto
-109 hlineto
-7 63 -43 59 -83 30 rrcurveto
274 hlineto
16 63 rlineto
-456 hlineto
-16 -62 164 -17 69 -64 10 -72 rlinecurve
-269 hlineto
-11 -57 rlineto
275 hlineto
-21 -71 -87 -58 -183 -12 -24 -58 rcurveline
140 -41 59 -52 149 -140 rrcurveto
endchar
                </CharString>
                <CharString name="s">
                    25 callsubr
451 139 -66 callgsubr
                </CharString>
                <CharString name="s.sc">
                    -36 callgsubr
467 434 -88 callgsubr
                </CharString>
                <CharString name="sacute">
                    25 callsubr
246 687 -107 callgsubr
205 -548 -66 callgsubr
                </CharString>
                <CharString name="sacute.sc">
                    -36 callgsubr
240 706 -107 callgsubr
227 -272 -88 callgsubr
                </CharString>
                <CharString name="scaron">
                    25 callsubr
346 650 -102 callsubr
106 -511 -66 callgsubr
                </CharString>
                <CharString name="scaron.sc">
                    -36 callgsubr
340 669 -102 callsubr
128 -235 -88 callgsubr
                </CharString>
                <CharString name="scedilla">
                    -77 -40 94 -63 63 -54 54 532 -20 hstemhm
231 144 -96 65 37 70 hintmask 10010110
279 -188 rmoveto
65 1 rlineto
hintmask 00110110
7 100 -22 61 -36 26 rrcurveto
119 22 39 57 60 vvcurveto
93 -112 99 -28 89 vhcurveto
hintmask 01011000
103 85 -9 63 -51 hhcurveto
-45 -60 -64 -69 -14 2 -13 3 -13 hvcurveto
-37 -46 -55 -49 -88 -70 22 -31 rcurveline
74 51 59 48 44 43 rrcurveto
hintmask 01010110
42 -89 84 -76 -66 vvcurveto
-54 -52 -36 -220 22 vhcurveto
-4 -67 28 -2 26 -1 23 1 rlinecurve
-28 -25 -27 -45 -25 -65 39 -13 rcurveline
hintmask 10010110
73 32 31 44 32 hhcurveto
31 19 -42 -106 -7 hvcurveto
endchar
                </CharString>
                <CharString name="scedilla.sc">
                    -65 callgsubr
                </CharString>
                <CharString name="schwa">
                    -49 -12 62 437 64 hstem
53 69 300 69 vstem
189 -12 rmoveto
169 133 192 177 173 -135 97 -271 -148 hvcurveto
10 -37 rlineto
231 87 96 -42 -141 -3 0 -4 -3 vvcurveto
-230 -18 -139 -77 -129 vvcurveto
-76 51 -48 85 vhcurveto
19 62 rmoveto
-54 -32 31 47 94 120 53 176 15 hvcurveto
-123 -20 -79 -117 -111 hhcurveto
endchar
                </CharString>
                <CharString name="scommaaccent">
                    -77 -7 61 532 -20 hstemhm
151 90 -10 144 6 70 hintmask 11101000
451 139 rmoveto
93 -112 99 -28 89 vhcurveto
hintmask 11010000
103 85 -9 63 -51 hhcurveto
-45 -60 -64 -69 -14 2 -13 3 -13 hvcurveto
-37 -46 -55 -49 -88 -70 22 -31 rcurveline
74 51 59 48 44 43 rrcurveto
hintmask 11101000
42 -89 84 -76 -66 vvcurveto
-54 -52 -36 -220 22 vhcurveto
-4 -67 rlineto
268 -17 78 78 85 vvcurveto
-347 -433 -101 callgsubr
                </CharString>
                <CharString name="scommaaccent.sc">
                    -55 callsubr
                </CharString>
                <CharString name="section">
                    29 -118 62 696 61 hstemhm
86 67 36 73 131 73 11 68 hintmask 11111000
153 279 rmoveto
55 81 34 84 13 vhcurveto
hintmask 11111100
77 -42 82 -32 -49 vvcurveto
-39 -51 -30 -124 -28 vhcurveto
hintmask 11111000
-75 36 -74 33 49 vvcurveto
313 -266 rmoveto
52 -48 36 -58 32 vhcurveto
hintmask 11111100
127 34 58 42 60 124 -283 32 119 vvcurveto
51 52 45 73 70 38 -37 -83 13 vhcurveto
66 13 rlineto
110 -16 -47 58 -103 hhcurveto
-127 -92 -83 -87 -51 34 -38 45 -31 hvcurveto
-104 -20 -78 -47 -76 vvcurveto
hintmask 11111000
-136 307 -31 -94 vvcurveto
-54 -85 -42 -266 69 vhcurveto
-18 -73 rlineto
316 -69 126 86 89 vvcurveto
endchar
                </CharString>
                <CharString name="semicolon">
                    -265 -174 -21 622 112 hstem
92 100 vstem
252 1 callgsubr
                </CharString>
                <CharString name="semicolon.tab">
                    -152 -174 -21 622 112 hstem
132 100 vstem
292 1 callgsubr
                </CharString>
                <CharString name="servicemark">
                    343 298 49 271 71 -69 68 -40 48 hstemhm
159 58 104 58 hintmask 11001100
565 618 rmoveto
4 hlineto
56 -280 rlineto
46 hlineto
hintmask 10101100
69 callgsubr
75 386 rlineto
-89 hlineto
-155 -267 rlineto
hintmask 11001100
-54 268 -84 -2 -75 -385 rlineto
55 hlineto
-95 286 rmoveto
hintmask 10011100
70 -8 -36 38 -67 hhcurveto
-80 -61 -57 -58 hvcurveto
-92 162 -44 -60 vvcurveto
-37 -50 -18 -157 40 vhcurveto
-13 -57 rlineto
201 -45 77 62 63 87 -162 45 65 vvcurveto
35 29 23 42 40 24 -21 -49 8 vhcurveto
endchar
                </CharString>
                <CharString name="seven">
                    26 15 -21 31 -21 619 65 hstemhm
125 501 hintmask 10110000
197 -6 rmoveto
115 214 138 219 164 204 12 57 rcurveline
-446 hlineto
-13 -65 rlineto
367 hlineto
1 -4 rlineto
hintmask 01110000
-163 -199 -134 -209 -113 -207 rrcurveto
endchar
                </CharString>
                <CharString name="seven.den">
                    16 -21 29 -21 382 54 hstemhm
33 338 hintmask 10110000
97 0 callgsubr
                </CharString>
                <CharString name="seven.den_afrc">
                    -28 152 54 hstem
98 338 vstem
162 -238 -73 callsubr
                </CharString>
                <CharString name="seven.den_afrc2">
                    392 152 54 hstem
308 338 vstem
372 -238 -73 callsubr
                </CharString>
                <CharString name="seven.inf">
                    -96 218 54 hstem
78 338 vstem
142 -172 -73 callsubr
                </CharString>
                <CharString name="seven.num">
                    635 54 hstem
150 338 vstem
214 245 -73 callsubr
                </CharString>
                <CharString name="seven.num_afrc">
                    -28 857 54 hstem
218 338 vstem
5 callgsubr
endchar
                </CharString>
                <CharString name="seven.num_afrc2">
                    392 857 54 hstem
427 338 vstem
491 467 -73 callsubr
                </CharString>
                <CharString name="seven.small">
                    16 -21 29 -21 382 54 hstemhm
67 338 hintmask 10110000
131 0 callgsubr
                </CharString>
                <CharString name="seven.sup">
                    -96 746 54 hstem
162 338 vstem
226 356 -73 callsubr
                </CharString>
                <CharString name="seveneighths">
                    78 callgsubr
405 53 188 54 17 -20 hstemhm
690 -27 callsubr
hintmask 10110011
300 -22 rmoveto
hintmask 01101011
-56 callsubr
-47 236 rmoveto
hintmask 10110011
-81 callgsubr
838 -147 -105 callgsubr
hintmask 10110101
-68 callgsubr
hintmask 10110011
9 callsubr
hintmask 10110101
-150 -67 -92 callgsubr
                </CharString>
                <CharString name="seveneighths.afrc">
                    -28 11 callsubr
99 51 493 54 52 callsubr
hintmask 11111011
5 callgsubr
-149 -162 -62 callsubr
282 -491 -105 callgsubr
hintmask 11111101
-68 callgsubr
hintmask 11111011
9 callsubr
hintmask 11111101
-150 -67 -92 callgsubr
                </CharString>
                <CharString name="six">
                    26 -12 62 311 57 293 -20 hstem
83 68 318 67 vstem
290 -12 rmoveto
135 111 100 147 184 -202 67 -169 -150 hvcurveto
34 113 100 124 241 71 -18 67 rcurveline
-327 -106 -112 -208 -179 vvcurveto
-155 90 -75 117 vhcurveto
15 62 rmoveto
-82 -72 50 138 14 1 15 2 15 hvcurveto
154 137 161 -54 -141 vvcurveto
-97 -62 -77 -102 vhcurveto
endchar
                </CharString>
                <CharString name="six.den">
                    -10 86 callgsubr
hstem
9 64 callsubr
156 -10 -102 callgsubr
                </CharString>
                <CharString name="six.den_afrc">
                    -28 -243 86 callgsubr
hstem
74 64 callsubr
221 -243 -102 callgsubr
                </CharString>
                <CharString name="six.den_afrc2">
                    392 -243 86 callgsubr
hstem
284 64 callsubr
431 -243 -102 callgsubr
                </CharString>
                <CharString name="six.inf">
                    -96 -177 86 callgsubr
hstem
54 64 callsubr
201 -177 -102 callgsubr
                </CharString>
                <CharString name="six.num">
                    240 86 callgsubr
187 -20 hstem
126 64 callsubr
273 240 -102 callgsubr
                </CharString>
                <CharString name="six.num_afrc">
                    -28 462 49 178 -20 24 44 hstemhm
194 66 callgsubr
hintmask 10111000
341 -32 callsubr
                </CharString>
                <CharString name="six.num_afrc2">
                    392 462 49 178 -20 24 44 hstemhm
403 66 callgsubr
hintmask 10111000
550 -32 callsubr
                </CharString>
                <CharString name="six.small">
                    -10 86 callgsubr
hstem
43 64 callsubr
190 -10 -102 callgsubr
                </CharString>
                <CharString name="six.sup">
                    -96 351 86 callgsubr
hstem
138 64 callsubr
285 351 -102 callgsubr
                </CharString>
</ttFont>
